<?xml version="1.0" standalone="no"?><!DOCTYPE svg PUBLIC "-//W3C//DTD SVG 1.1//EN" 	"http://www.w3.org/Graphics/SVG/1.1/DTD/svg11.dtd"><svg width="1440" height="820" version="1.1"	xmlns="http://www.w3.org/2000/svg"><title>Krona (snapshot) - all</title><defs>	<style type="text/css">	text {font-size: 11px; font-family: sans-serif; dominant-baseline:central}	path {stroke-width:0.27499999999999997;}	path.wedge {stroke:none}	path.line {fill:none;stroke:black;}	line {stroke:black;stroke-width:0.27499999999999997;}	line.tick {stroke-width:0.5499999999999999;}	line.pattern {stroke-width:0.18333333333333332;}	circle {fill:none;stroke:black;stroke-width:0.27499999999999997;}	rect {stroke:black;stroke-width:0.27499999999999997;}	.highlight {stroke:black;stroke-width:1.375;}	.searchHighlight {fill:rgb(255, 255, 100);stroke:none;}	</style><pattern id="hiddenPattern" patternUnits="userSpaceOnUse" x="0" y="0" width="6.6" height="6.6"><line class="pattern" x1="0" y1="0" x2="3.3" y2="3.3"/><line class="pattern" x1="3.3" y1="6.6" x2="6.6" y2="3.3"/></pattern></defs><path class="wedge" fill="rgb(220,220,220)" d=" M 645.4637469106787,491.9986886407511 L 646.8549876427146,737.9947545630042 A 328,328 0 0,1 645.0000000000001,738 L 645,492 A 82,82 0 0 0 645.4637469106787,491.9986886407511 Z "/><path class="wedge" fill="rgb(207,111,111)" d=" M 645,492 L 645,738 A 328,328 0 1,1 657.0273240632691,737.7794128310641 L 648.0068310158173,491.944853207766 A 82,82 0 1 0 645,492 Z "/><path class="wedge" fill="rgb(207,111,111)" d=" M 649.9850404196247,545.8285742384056 L 657.0298190158211,737.7793212733936 A 328,328 0 0,1 657.0273240632691,737.7794128310641 L 649.9840065354657,545.828612179017 A 135.92002136412196,135.92002136412196 0 0 0 649.9850404196247,545.8285742384056 Z "/><path class="wedge" fill="rgb(210,121,121)" d=" M 645,545.920021364122 L 645,738 A 328,328 0 1,1 657.0323139676758,737.7792296967325 L 649.9860743034949,545.8285362899247 A 135.92002136412196,135.92002136412196 0 1 0 645,545.920021364122 Z "/><path class="wedge" fill="rgb(210,121,121)" d=" M 652.1299833889274,582.3139596773998 L 658.5603354641896,737.7195711307133 A 328,328 0 0,1 657.0323139676758,737.7792296967325 L 651.3265543058609,582.3453279710417 A 172.4614083290257,172.4614083290257 0 0 0 652.1299833889274,582.3139596773998 Z "/><path class="wedge" fill="rgb(213,130,130)" d=" M 645,582.4614083290257 L 645,738 A 328,328 0 1,1 659.1826877388095,737.693227529199 L 652.4572143333106,582.3001082913705 A 172.4614083290257,172.4614083290257 0 1 0 645,582.4614083290257 Z "/><path class="wedge" fill="rgb(213,130,130)" d=" M 653.7718792924002,608.6159739620207 L 659.4720206113928,737.6805771165319 A 328,328 0 0,1 659.1826877388095,737.693227529199 L 653.5965068892109,608.6236417159505 A 198.80958472669897,198.80958472669897 0 0 0 653.7718792924002,608.6159739620207 Z "/><path class="wedge" fill="rgb(216,140,140)" d=" M 645,608.809584726699 L 645,738 A 328,328 0 1,1 948.201916065259,535.1103436745166 L 828.7788018941268,485.8327300943452 A 198.80958472669897,198.80958472669897 0 1 0 645,608.809584726699 Z "/><path class="wedge" fill="rgb(216,140,140)" d=" M 847.5104029270801,492.5463538119083 L 948.7362177888292,533.8075522871561 A 328,328 0 0,1 948.201916065259,535.1103436745166 L 847.1541673154283,493.4149654338773 A 218.68782275501553,218.68782275501553 0 0 0 847.5104029270801,492.5463538119083 Z "/><path class="wedge" fill="rgb(219,149,149)" d=" M 645,628.6878227550155 L 645,738 A 328,328 0 1,1 948.8336602470765,533.5682277159632 L 847.5753708509765,492.3867886612803 A 218.68782275501553,218.68782275501553 0 1 0 645,628.6878227550155 Z "/><path class="wedge" fill="rgb(219,149,149)" d=" M 864.6937644586499,491.1719414561442 L 952.6709524653829,523.6775483947647 A 328,328 0 0,1 948.8336602470765,533.5682277159632 L 861.9537294764314,498.23442348675417 A 234.20980812462236,234.20980812462236 0 0 0 864.6937644586499,491.1719414561442 Z "/><path class="wedge" fill="rgb(223,159,159)" d=" M 645,644.2098081246223 L 645,738 A 328,328 0 1,1 879.8355643463693,181.01035456134215 L 812.6853428853676,246.48896060758122 A 234.20980812462236,234.20980812462236 0 1 0 645,644.2098081246223 Z "/><path class="wedge" fill="rgb(223,159,159)" d=" M 820.6494775832434,236.82581362585873 L 878.5709517355446,179.7205816722825 A 328,328 0 0,1 879.8355643463693,181.01035456134215 L 821.6004885834814,237.79574559933832 A 246.6617882883608,246.6617882883608 0 0 0 820.6494775832434,236.82581362585873 Z "/><path class="wedge" fill="rgb(226,168,168)" d=" M 645,656.6617882883609 L 645,738 A 328,328 0 1,1 877.404985943765,178.54390803334132 L 819.7726507317697,235.9409342843557 A 246.6617882883608,246.6617882883608 0 1 0 645,656.6617882883609 Z "/><path class="wedge" fill="rgb(226,168,168)" d=" M 826.4642545480968,228.19494792162914 L 876.7133384516816,177.8514941172861 A 328,328 0 0,1 877.404985943765,178.54390803334132 L 827.0059121729864,228.7372057646833 A 256.87030314910993,256.87030314910993 0 0 0 826.4642545480968,228.19494792162914 Z "/><path class="wedge" fill="rgb(229,178,178)" d=" M 645,666.87030314911 L 645,738 A 328,328 0 1,1 876.6939001909586,177.83209391842706 L 826.4490316458878,228.17975482723256 A 256.87030314910993,256.87030314910993 0 1 0 645,666.87030314911 Z "/><path class="wedge" fill="rgb(229,178,178)" d=" M 829.824670825755,219.54834755484987 L 873.4277188728856,174.61780600366146 A 328,328 0 0,1 876.6939001909586,177.83209391842706 L 832.4673925144745,222.14908142689077 A 265.3902614357523,265.3902614357523 0 0 0 829.824670825755,219.54834755484987 Z "/><path class="wedge" fill="rgb(229,178,178)" d=" M 645,675.3902614357523 L 645,738 A 328,328 0 1,1 873.0825802769584,174.28335533059015 L 829.5454134409846,219.27773794642377 A 265.3902614357523,265.3902614357523 0 1 0 645,675.3902614357523 Z "/><path class="wedge" fill="rgb(229,178,178)" d=" M 420.17917792497553,564.177283141176 L 374.4970367456452,595.5051127883357 A 328,328 0 0,1 873.0825802769584,174.28335533059015 L 834.5643307635116,214.09083437096137 A 272.6078441191378,272.6078441191378 0 0 0 420.17917792497553,564.177283141176 Z "/><path class="wedge" fill="rgb(229,178,178)" d=" M 645,682.6078441191378 L 645,738 A 328,328 0 0,1 516.5405854962384,711.7982419189196 L 538.2346218150086,660.8310002697033 A 272.6078441191378,272.6078441191378 0 0 0 645,682.6078441191378 Z "/><path class="wedge" fill="rgb(229,180,178)" d=" M 538.2346218150086,660.8310002697033 L 516.5405854962384,711.7982419189196 A 328,328 0 0,1 456.2204781599378,678.2280599300482 L 488.1012851748139,632.9301010664308 A 272.6078441191378,272.6078441191378 0 0 0 538.2346218150086,660.8310002697033 Z "/><path class="wedge" fill="rgb(229,180,178)" d=" M 488.1012851748139,632.9301010664308 L 456.2204781599378,678.2280599300482 A 328,328 0 0,1 411.63685169426526,640.4900019802067 L 451.0468757424361,601.5651906428046 A 272.6078441191378,272.6078441191378 0 0 0 488.1012851748139,632.9301010664308 Z "/><path class="wedge" fill="rgb(229,181,178)" d=" M 451.0468757424361,601.5651906428046 L 411.63685169426526,640.4900019802067 A 328,328 0 0,1 374.4970367456452,595.5051127883357 L 420.17917792497553,564.177283141176 A 272.6078441191378,272.6078441191378 0 0 0 451.0468757424361,601.5651906428046 Z "/><path class="wedge" fill="rgb(229,193,178)" d=" M 829.5454134409846,219.27773794642377 L 873.0825802769584,174.28335533059015 A 328,328 0 0,1 873.4277188728856,174.61780600366146 L 829.824670825755,219.54834755484987 A 265.3902614357523,265.3902614357523 0 0 0 829.5454134409846,219.27773794642377 Z "/><path class="wedge" fill="url(#hiddenPattern)" d=" M 829.5454134409846,219.27773794642377 L 873.0825802769584,174.28335533059015 A 328,328 0 0,1 873.4277188728856,174.61780600366146 L 829.824670825755,219.54834755484987 A 265.3902614357523,265.3902614357523 0 0 0 829.5454134409846,219.27773794642377 Z "/><path class="wedge" fill="rgb(226,185,168)" d=" M 826.4490316458878,228.17975482723256 L 876.6939001909586,177.83209391842706 A 328,328 0 0,1 876.7133384516816,177.8514941172861 L 826.4642545480968,228.19494792162914 A 256.87030314910993,256.87030314910993 0 0 0 826.4490316458878,228.17975482723256 Z "/><path class="wedge" fill="url(#hiddenPattern)" d=" M 826.4490316458878,228.17975482723256 L 876.6939001909586,177.83209391842706 A 328,328 0 0,1 876.7133384516816,177.8514941172861 L 826.4642545480968,228.19494792162914 A 256.87030314910993,256.87030314910993 0 0 0 826.4490316458878,228.17975482723256 Z "/><path class="wedge" fill="rgb(223,178,159)" d=" M 819.7726507317697,235.9409342843557 L 877.404985943765,178.54390803334132 A 328,328 0 0,1 878.5709517355446,179.7205816722825 L 820.6494775832434,236.82581362585873 A 246.6617882883608,246.6617882883608 0 0 0 819.7726507317697,235.9409342843557 Z "/><path class="wedge" fill="url(#hiddenPattern)" d=" M 819.7726507317697,235.9409342843557 L 877.404985943765,178.54390803334132 A 328,328 0 0,1 878.5709517355446,179.7205816722825 L 820.6494775832434,236.82581362585873 A 246.6617882883608,246.6617882883608 0 0 0 819.7726507317697,235.9409342843557 Z "/><path class="wedge" fill="rgb(223,178,159)" d=" M 812.6853428853676,246.48896060758122 L 879.8355643463693,181.01035456134215 A 328,328 0 0,1 952.6709524653829,523.6775483947647 L 864.6937644586499,491.1719414561442 A 234.20980812462236,234.20980812462236 0 0 0 812.6853428853676,246.48896060758122 Z "/><path class="wedge" fill="rgb(223,178,159)" d=" M 876.4484035049404,495.2858388985323 L 952.7699098689404,523.4093584289423 A 328,328 0 0,1 952.6709524653829,523.6775483947647 L 876.3739857911421,495.4875224856382 A 246.6617882883608,246.6617882883608 0 0 0 876.4484035049404,495.2858388985323 Z "/><path class="wedge" fill="rgb(226,186,168)" d=" M 821.6004885834814,237.79574559933832 L 879.8355643463693,181.01035456134215 A 328,328 0 0,1 952.8849929640655,523.0965565679049 L 876.5349480233713,495.0506063789487 A 246.6617882883608,246.6617882883608 0 0 0 821.6004885834814,237.79574559933832 Z "/><path class="wedge" fill="rgb(226,186,168)" d=" M 886.2516321190809,498.2043232488935 L 953.0563785106924,522.6288935348163 A 328,328 0 0,1 952.8849929640655,523.0965565679049 L 886.1174130418935,498.5705694229213 A 256.87030314910993,256.87030314910993 0 0 0 886.2516321190809,498.2043232488935 Z "/><path class="wedge" fill="rgb(229,193,178)" d=" M 828.9093981824518,230.6687815797706 L 879.8355643463693,181.01035456134215 A 328,328 0 0,1 953.0632363027919,522.6101347066514 L 886.2570027383965,498.1896324382916 A 256.87030314910993,256.87030314910993 0 0 0 828.9093981824518,230.6687815797706 Z "/><path class="wedge" fill="rgb(229,193,178)" d=" M 897.2652088088236,492.4272727292224 L 956.778540936873,511.87316335166304 A 328,328 0 0,1 953.0632363027919,522.6101347066514 L 894.259093966896,501.1147350308338 A 265.3902614357523,265.3902614357523 0 0 0 897.2652088088236,492.4272727292224 Z "/><path class="wedge" fill="rgb(229,193,178)" d=" M 835.0093652935834,224.72066503339747 L 879.8355643463693,181.01035456134215 A 328,328 0 0,1 958.8348866179795,505.35021731218035 L 898.9290323390403,487.149448476937 A 265.3902614357523,265.3902614357523 0 0 0 835.0093652935834,224.72066503339747 Z "/><path class="wedge" fill="rgb(229,193,178)" d=" M 881.0566088154786,273.64636378218495 L 929.0217894010389,245.94018424540417 A 328,328 0 0,1 958.8348866179795,505.35021731218035 L 905.8349141777483,489.2476133468438 A 272.6078441191378,272.6078441191378 0 0 0 881.0566088154786,273.64636378218495 Z "/><path class="wedge" fill="rgb(229,193,178)" d=" M 840.1768808505024,219.68178790049308 L 879.8355643463693,181.01035456134215 A 328,328 0 0,1 909.7923384558694,216.43084570347386 L 865.0745991637793,249.1205187782295 A 272.6078441191378,272.6078441191378 0 0 0 840.1768808505024,219.68178790049308 Z "/><path class="wedge" fill="rgb(229,194,178)" d=" M 865.0745991637793,249.1205187782295 L 909.7923384558694,216.43084570347386 A 328,328 0 0,1 929.0217894010389,245.94018424540417 L 881.0566088154786,273.64636378218495 A 272.6078441191378,272.6078441191378 0 0 0 865.0745991637793,249.1205187782295 Z "/><path class="wedge" fill="rgb(229,198,178)" d=" M 898.9290323390403,487.149448476937 L 958.8348866179795,505.35021731218035 A 328,328 0 0,1 956.778540936873,511.87316335166304 L 897.2652088088236,492.4272727292224 A 265.3902614357523,265.3902614357523 0 0 0 898.9290323390403,487.149448476937 Z "/><path class="wedge" fill="url(#hiddenPattern)" d=" M 898.9290323390403,487.149448476937 L 958.8348866179795,505.35021731218035 A 328,328 0 0,1 956.778540936873,511.87316335166304 L 897.2652088088236,492.4272727292224 A 265.3902614357523,265.3902614357523 0 0 0 898.9290323390403,487.149448476937 Z "/><path class="wedge" fill="rgb(226,191,168)" d=" M 886.2570027383965,498.1896324382916 L 953.0632363027919,522.6101347066514 A 328,328 0 0,1 953.0563785106924,522.6288935348163 L 886.2516321190809,498.2043232488935 A 256.87030314910993,256.87030314910993 0 0 0 886.2570027383965,498.1896324382916 Z "/><path class="wedge" fill="url(#hiddenPattern)" d=" M 886.2570027383965,498.1896324382916 L 953.0632363027919,522.6101347066514 A 328,328 0 0,1 953.0563785106924,522.6288935348163 L 886.2516321190809,498.2043232488935 A 256.87030314910993,256.87030314910993 0 0 0 886.2570027383965,498.1896324382916 Z "/><path class="wedge" fill="rgb(223,184,159)" d=" M 876.5349480233713,495.0506063789487 L 952.8849929640655,523.0965565679049 A 328,328 0 0,1 952.7699098689404,523.4093584289423 L 876.4484035049404,495.2858388985323 A 246.6617882883608,246.6617882883608 0 0 0 876.5349480233713,495.0506063789487 Z "/><path class="wedge" fill="url(#hiddenPattern)" d=" M 876.5349480233713,495.0506063789487 L 952.8849929640655,523.0965565679049 A 328,328 0 0,1 952.7699098689404,523.4093584289423 L 876.4484035049404,495.2858388985323 A 246.6617882883608,246.6617882883608 0 0 0 876.5349480233713,495.0506063789487 Z "/><path class="wedge" fill="rgb(216,170,140)" d=" M 847.5753708509765,492.3867886612803 L 948.8336602470765,533.5682277159632 A 328,328 0 0,1 948.7362177888292,533.8075522871561 L 847.5104029270801,492.5463538119083 A 218.68782275501553,218.68782275501553 0 0 0 847.5753708509765,492.3867886612803 Z "/><path class="wedge" fill="url(#hiddenPattern)" d=" M 847.5753708509765,492.3867886612803 L 948.8336602470765,533.5682277159632 A 328,328 0 0,1 948.7362177888292,533.8075522871561 L 847.5104029270801,492.5463538119083 A 218.68782275501553,218.68782275501553 0 0 0 847.5753708509765,492.3867886612803 Z "/><path class="wedge" fill="rgb(216,170,140)" d=" M 828.7788018941268,485.8327300943452 L 948.201916065259,535.1103436745166 A 328,328 0 0,1 659.5181631787467,737.678535973773 L 653.7998475382959,608.6147367707272 A 198.80958472669897,198.80958472669897 0 0 0 828.7788018941268,485.8327300943452 Z "/><path class="wedge" fill="rgb(216,170,140)" d=" M 654.6863636771016,628.473197852835 L 659.528139912246,737.678093791285 A 328,328 0 0,1 659.5181631787467,737.678535973773 L 654.6797118779334,628.4734926696813 A 218.68782275501553,218.68782275501553 0 0 0 654.6863636771016,628.473197852835 Z "/><path class="wedge" fill="rgb(219,177,149)" d=" M 847.1541673154283,493.4149654338773 L 948.201916065259,535.1103436745166 A 328,328 0 0,1 659.5343753638449,737.6778172729776 L 654.6905210470225,628.4730134894612 A 218.68782275501553,218.68782275501553 0 0 0 847.1541673154283,493.4149654338773 Z "/><path class="wedge" fill="rgb(219,177,149)" d=" M 655.7202700119369,643.9643349586504 L 660.0132421527127,737.6562261884612 A 328,328 0 0,1 659.5343753638449,737.6778172729776 L 655.3783331255407,643.9797521652413 A 234.20980812462236,234.20980812462236 0 0 0 655.7202700119369,643.9643349586504 Z "/><path class="wedge" fill="rgb(223,184,159)" d=" M 861.5026298312871,499.33557800736 L 948.201916065259,535.1103436745166 A 328,328 0 0,1 660.1765982784308,737.6487003860921 L 655.8369151548042,643.95896112716 A 234.20980812462236,234.20980812462236 0 0 0 861.5026298312871,499.33557800736 Z "/><path class="wedge" fill="rgb(223,184,159)" d=" M 656.4224472238714,656.3971702374644 L 660.1890680572293,737.6481225515458 A 328,328 0 0,1 660.1765982784308,737.6487003860921 L 656.413069730158,656.3976047792403 A 246.6617882883608,246.6617882883608 0 0 0 656.4224472238714,656.3971702374644 Z "/><path class="wedge" fill="rgb(226,191,168)" d=" M 873.0131915521777,504.0851862930721 L 948.201916065259,535.1103436745166 A 328,328 0 0,1 660.1915620103493,737.6480069276871 L 656.424322720629,656.3970832862822 A 246.6617882883608,246.6617882883608 0 0 0 873.0131915521777,504.0851862930721 Z "/><path class="wedge" fill="rgb(226,191,168)" d=" M 657.8892296491402,666.5467216687193 L 661.4583732455203,737.5868158978794 A 328,328 0 0,1 660.1915620103493,737.6480069276871 L 656.8971376186187,666.5946428832825 A 256.87030314910993,256.87030314910993 0 0 0 657.8892296491402,666.5467216687193 Z "/><path class="wedge" fill="rgb(229,198,178)" d=" M 882.4499027288844,507.97906069134876 L 948.201916065259,535.1103436745166 A 328,328 0 0,1 661.504502590088,737.5844950455589 L 657.9253554379304,666.5449041137219 A 256.87030314910993,256.87030314910993 0 0 0 882.4499027288844,507.97906069134876 Z "/><path class="wedge" fill="rgb(229,198,178)" d=" M 661.5880661246013,674.8713403280597 L 665.501451935102,737.3586572378264 A 328,328 0 0,1 661.504502590088,737.5844950455589 L 658.354067857471,675.0540694586578 A 265.3902614357523,265.3902614357523 0 0 0 661.5880661246013,674.8713403280597 Z "/><path class="wedge" fill="rgb(229,198,178)" d=" M 890.325718818232,511.22886224419744 L 948.201916065259,535.1103436745166 A 328,328 0 0,1 685.5957293464495,735.478089521906 L 677.8466805622844,673.3497416763043 A 265.3902614357523,265.3902614357523 0 0 0 890.325718818232,511.22886224419744 Z "/><path class="wedge" fill="rgb(229,198,178)" d=" M 890.325718818232,511.22886224419744 L 948.201916065259,535.1103436745166 A 328,328 0 0,1 685.5957293464495,735.478089521906 L 677.8466805622844,673.3497416763043 A 265.3902614357523,265.3902614357523 0 0 0 890.325718818232,511.22886224419744 Z "/><path class="wedge" fill="rgb(229,202,178)" d=" M 677.8466805622844,673.3497416763043 L 685.5957293464495,735.478089521906 A 328,328 0 0,1 665.501451935102,737.3586572378264 L 661.5880661246013,674.8713403280597 A 265.3902614357523,265.3902614357523 0 0 0 677.8466805622844,673.3497416763043 Z "/><path class="wedge" fill="rgb(229,202,178)" d=" M 677.1240656523951,680.7084798842561 L 683.6514686253149,735.7146972015637 A 328,328 0 0,1 665.501451935102,737.3586572378264 L 662.0391969918911,682.0748103760354 A 272.6078441191378,272.6078441191378 0 0 0 677.1240656523951,680.7084798842561 Z "/><path class="wedge" fill="rgb(229,202,178)" d=" M 678.7399824926208,680.5118301603125 L 685.5957293464495,735.478089521906 A 328,328 0 0,1 683.6514686253149,735.7146972015637 L 677.1240656523951,680.7084798842561 A 272.6078441191378,272.6078441191378 0 0 0 678.7399824926208,680.5118301603125 Z "/><path class="wedge" fill="url(#hiddenPattern)" d=" M 678.7399824926208,680.5118301603125 L 685.5957293464495,735.478089521906 A 328,328 0 0,1 683.6514686253149,735.7146972015637 L 677.1240656523951,680.7084798842561 A 272.6078441191378,272.6078441191378 0 0 0 678.7399824926208,680.5118301603125 Z "/><path class="wedge" fill="rgb(226,196,168)" d=" M 657.9253554379304,666.5449041137219 L 661.504502590088,737.5844950455589 A 328,328 0 0,1 661.4583732455203,737.5868158978794 L 657.8892296491402,666.5467216687193 A 256.87030314910993,256.87030314910993 0 0 0 657.9253554379304,666.5449041137219 Z "/><path class="wedge" fill="url(#hiddenPattern)" d=" M 657.9253554379304,666.5449041137219 L 661.504502590088,737.5844950455589 A 328,328 0 0,1 661.4583732455203,737.5868158978794 L 657.8892296491402,666.5467216687193 A 256.87030314910993,256.87030314910993 0 0 0 657.9253554379304,666.5449041137219 Z "/><path class="wedge" fill="rgb(223,190,159)" d=" M 656.424322720629,656.3970832862822 L 660.1915620103493,737.6480069276871 A 328,328 0 0,1 660.1890680572293,737.6481225515458 L 656.4224472238714,656.3971702374644 A 246.6617882883608,246.6617882883608 0 0 0 656.424322720629,656.3970832862822 Z "/><path class="wedge" fill="url(#hiddenPattern)" d=" M 656.424322720629,656.3970832862822 L 660.1915620103493,737.6480069276871 A 328,328 0 0,1 660.1890680572293,737.6481225515458 L 656.4224472238714,656.3971702374644 A 246.6617882883608,246.6617882883608 0 0 0 656.424322720629,656.3970832862822 Z "/><path class="wedge" fill="rgb(219,184,149)" d=" M 655.8369151548042,643.95896112716 L 660.1765982784308,737.6487003860921 A 328,328 0 0,1 660.0132421527127,737.6562261884612 L 655.7202700119369,643.9643349586504 A 234.20980812462236,234.20980812462236 0 0 0 655.8369151548042,643.95896112716 Z "/><path class="wedge" fill="url(#hiddenPattern)" d=" M 655.8369151548042,643.95896112716 L 660.1765982784308,737.6487003860921 A 328,328 0 0,1 660.0132421527127,737.6562261884612 L 655.7202700119369,643.9643349586504 A 234.20980812462236,234.20980812462236 0 0 0 655.8369151548042,643.95896112716 Z "/><path class="wedge" fill="rgb(216,177,140)" d=" M 654.6905210470225,628.4730134894612 L 659.5343753638449,737.6778172729776 A 328,328 0 0,1 659.528139912246,737.678093791285 L 654.6863636771016,628.473197852835 A 218.68782275501553,218.68782275501553 0 0 0 654.6905210470225,628.4730134894612 Z "/><path class="wedge" fill="url(#hiddenPattern)" d=" M 654.6905210470225,628.4730134894612 L 659.5343753638449,737.6778172729776 A 328,328 0 0,1 659.528139912246,737.678093791285 L 654.6863636771016,628.473197852835 A 218.68782275501553,218.68782275501553 0 0 0 654.6905210470225,628.4730134894612 Z "/><path class="wedge" fill="rgb(213,171,130)" d=" M 653.7998475382959,608.6147367707272 L 659.5181631787467,737.678535973773 A 328,328 0 0,1 659.4720206113928,737.6805771165319 L 653.7718792924002,608.6159739620207 A 198.80958472669897,198.80958472669897 0 0 0 653.7998475382959,608.6147367707272 Z "/><path class="wedge" fill="url(#hiddenPattern)" d=" M 653.7998475382959,608.6147367707272 L 659.5181631787467,737.678535973773 A 328,328 0 0,1 659.4720206113928,737.6805771165319 L 653.7718792924002,608.6159739620207 A 198.80958472669897,198.80958472669897 0 0 0 653.7998475382959,608.6147367707272 Z "/><path class="wedge" fill="rgb(210,165,121)" d=" M 652.4572143333106,582.3001082913705 L 659.1826877388095,737.693227529199 A 328,328 0 0,1 658.5603354641896,737.7195711307133 L 652.1299833889274,582.3139596773998 A 172.4614083290257,172.4614083290257 0 0 0 652.4572143333106,582.3001082913705 Z "/><path class="wedge" fill="url(#hiddenPattern)" d=" M 652.4572143333106,582.3001082913705 L 659.1826877388095,737.693227529199 A 328,328 0 0,1 658.5603354641896,737.7195711307133 L 652.1299833889274,582.3139596773998 A 172.4614083290257,172.4614083290257 0 0 0 652.4572143333106,582.3001082913705 Z "/><path class="wedge" fill="rgb(207,159,111)" d=" M 649.9860743034949,545.8285362899247 L 657.0323139676758,737.7792296967325 A 328,328 0 0,1 657.0298190158211,737.7793212733936 L 649.9850404196247,545.8285742384056 A 135.92002136412196,135.92002136412196 0 0 0 649.9860743034949,545.8285362899247 Z "/><path class="wedge" fill="url(#hiddenPattern)" d=" M 649.9860743034949,545.8285362899247 L 657.0323139676758,737.7792296967325 A 328,328 0 0,1 657.0298190158211,737.7793212733936 L 649.9850404196247,545.8285742384056 A 135.92002136412196,135.92002136412196 0 0 0 649.9860743034949,545.8285362899247 Z "/><path class="wedge" fill="rgb(101,204,204)" d=" M 648.0068310158173,491.944853207766 L 657.0273240632691,737.7794128310641 A 328,328 0 0,1 646.8549876427146,737.9947545630042 L 645.4637469106787,491.9986886407511 A 82,82 0 0 0 648.0068310158173,491.944853207766 Z "/><path class="wedge" fill="url(#hiddenPattern)" d=" M 648.0068310158173,491.944853207766 L 657.0273240632691,737.7794128310641 A 328,328 0 0,1 646.8549876427146,737.9947545630042 L 645.4637469106787,491.9986886407511 A 82,82 0 0 0 648.0068310158173,491.944853207766 Z "/><rect fill="rgb(101,204,204)" x="1405.7" y="756.3666666666668" width="22" height="22"/><rect fill="url(#hiddenPattern)" style="stroke:none" x="1405.7" y="756.3666666666668" width="22" height="22"/><path class="line" d="M 651.9419908953339,737.9265295190511 L 653.0989893778896,792.5809511055596 A 382.6666666666667,382.6666666666667 0 0,0 781.8314413186285,767.3666666666668 L 1041.3333333333333,767.3666666666668 L 1322.1401041666668,767.3666666666668"/><text x="1398.3666666666668" y="767.3666666666668" style="font-color:black;font-weight:normal" text-anchor="end">Viruses&#160;&#160;&#160;0.5%</text><circle cx="645" cy="410" r="82"/><circle cx="645" cy="410" r="328"/><text x="645" y="410" text-anchor="middle" style="font-color:black;font-weight:bold" transform="rotate(360,645,410)">all</text><rect fill="rgb(220,220,220)" x="1405.7" y="785.7" width="22" height="22"/><path class="line" d="M 645.927497529543,737.9986886381296 L 646.120726181531,806.3317487710733 A 396.3333333333333,396.3333333333333 0 0,0 731.8517191027964,796.7 L 1030.3333333333333,796.7 L 1307.2621744791668,796.7"/><text x="1398.3666666666668" y="796.7" style="font-color:black;font-weight:normal" text-anchor="end">[other all]&#160;&#160;&#160;0.09%</text><path class="line" d=" M 648.0068310158173,491.944853207766 A 82,82 0 1 0 645,492"/><line x1="657.0273240632691" y1="737.7794128310641" x2="648.0068310158173" y2="491.944853207766"/><text x="645" y="311.8239935907634" text-anchor="middle" style="font-color:black;font-weight:normal" transform="rotate(358.94928440420324,645,410)">cellular organisms</text><path class="line" d=" M 649.9860743034949,545.8285362899247 A 135.92002136412196,135.92002136412196 0 1 0 645,545.920021364122"/><line x1="657.0323139676758" y1="737.7792296967325" x2="649.9860743034949" y2="545.8285362899247"/><text x="645" y="263.11756254640693" text-anchor="middle" style="font-color:black;font-weight:normal" transform="rotate(358.94884828690704,645,410)">Bacteria</text><path class="line" d=" M 652.4572143333106,582.3001082913705 A 172.4614083290257,172.4614083290257 0 1 0 645,582.4614083290257"/><line x1="659.1826877388095" y1="737.693227529199" x2="652.4572143333106" y2="582.3001082913705"/><text x="645" y="224.36450347213767" text-anchor="middle" style="font-color:black;font-weight:normal" transform="rotate(358.76088173225793,645,410)">Terrabacteria group</text><path class="line" d=" M 828.7788018941268,485.8327300943452 A 198.80958472669897,198.80958472669897 0 1 0 645,608.809584726699"/><line x1="948.201916065259" y1="535.1103436745166" x2="828.7788018941268" y2="485.8327300943452"/><text x="645" y="201.25129625914275" text-anchor="middle" style="font-color:black;font-weight:normal" transform="rotate(326.21126733263395,645,410)">Firmicutes</text><path class="line" d=" M 847.5753708509765,492.3867886612803 A 218.68782275501553,218.68782275501553 0 1 0 645,628.6878227550155"/><line x1="948.8336602470765" y1="533.5682277159632" x2="847.5753708509765" y2="492.3867886612803"/><text x="645" y="183.55118456018104" text-anchor="middle" style="font-color:black;font-weight:normal" transform="rotate(326.0657131850373,645,410)">Bacilli</text><path class="line" d=" M 812.6853428853676,246.48896060758122 A 234.20980812462236,234.20980812462236 0 1 0 645,644.2098081246223"/><line x1="879.8355643463693" y1="181.01035456134215" x2="812.6853428853676" y2="246.48896060758122"/><path class="line" d=" M 819.7726507317697,235.9409342843557 A 246.6617882883608,246.6617882883608 0 1 0 645,656.6617882883609"/><line x1="877.404985943765" y1="178.54390803334132" x2="819.7726507317697" y2="235.9409342843557"/><path class="line" d=" M 826.4490316458878,228.17975482723256 A 256.87030314910993,256.87030314910993 0 1 0 645,666.87030314911"/><line x1="876.6939001909586" y1="177.83209391842706" x2="826.4490316458878" y2="228.17975482723256"/><path class="line" d=" M 829.5454134409846,219.27773794642377 A 265.3902614357523,265.3902614357523 0 1 0 645,675.3902614357523"/><line x1="873.0825802769584" y1="174.28335533059015" x2="829.5454134409846" y2="219.27773794642377"/><text x="348.30486928212383" y="410" text-anchor="end" style="font-color:black;font-weight:normal" transform="rotate(22.02850268817856,645,410)">Enterococcus faecalis&#160;&#160;&#160;62%</text><path class="line" d=" M 538.2346218150086,660.8310002697033 A 272.6078441191378,272.6078441191378 0 0 0 645,682.6078441191378"/><line x1="516.5405854962384" y1="711.7982419189196" x2="538.2346218150086" y2="660.8310002697033"/><text x="344.6960779404311" y="410" text-anchor="end" style="font-color:black;font-weight:normal" transform="rotate(-78.47156636372667,645,410)">Enterococcus faecalis V583&#160;&#160;&#160;6%</text><path class="line" d=" M 488.1012851748139,632.9301010664308 A 272.6078441191378,272.6078441191378 0 0 0 538.2346218150086,660.8310002697033"/><line x1="456.2204781599378" y1="678.2280599300482" x2="488.1012851748139" y2="632.9301010664308"/><text x="344.6960779404311" y="410" text-anchor="end" style="font-color:black;font-weight:normal" transform="rotate(-60.90258108753116,645,410)">Enterococcus faecalis str. Symbioflor 1&#160;&#160;&#160;3%</text><path class="line" d=" M 451.0468757424361,601.5651906428046 A 272.6078441191378,272.6078441191378 0 0 0 488.1012851748139,632.9301010664308"/><line x1="411.63685169426526" y1="640.4900019802067" x2="451.0468757424361" y2="601.5651906428046"/><text x="344.6960779404311" y="410" text-anchor="end" style="font-color:black;font-weight:normal" transform="rotate(-49.75356949892545,645,410)">Enterococcus faecalis D32&#160;&#160;&#160;3%</text><path class="line" d=" M 420.17917792497553,564.177283141176 A 272.6078441191378,272.6078441191378 0 0 0 451.0468757424361,601.5651906428046"/><line x1="374.4970367456452" y1="595.5051127883357" x2="420.17917792497553" y2="564.177283141176"/><text x="344.6960779404311" y="410" text-anchor="end" style="font-color:black;font-weight:normal" transform="rotate(-39.54330039032497,645,410)">Enterococcus faecalis OG1RF&#160;&#160;&#160;3%</text><path class="line" d=" M 829.824670825755,219.54834755484987 A 265.3902614357523,265.3902614357523 0 0 0 829.5454134409846,219.27773794642377"/><line x1="873.4277188728856" y1="174.61780600366146" x2="829.824670825755" y2="219.54834755484987"/><path class="line" d=" M 826.4642545480968,228.19494792162914 A 256.87030314910993,256.87030314910993 0 0 0 826.4490316458878,228.17975482723256"/><line x1="876.7133384516816" y1="177.8514941172861" x2="826.4642545480968" y2="228.19494792162914"/><path class="line" d=" M 820.6494775832434,236.82581362585873 A 246.6617882883608,246.6617882883608 0 0 0 819.7726507317697,235.9409342843557"/><line x1="878.5709517355446" y1="179.7205816722825" x2="820.6494775832434" y2="236.82581362585873"/><path class="line" d=" M 864.6937644586499,491.1719414561442 A 234.20980812462236,234.20980812462236 0 0 0 812.6853428853676,246.48896060758122"/><line x1="952.6709524653829" y1="523.6775483947647" x2="864.6937644586499" y2="491.1719414561442"/><path class="line" d=" M 876.5349480233713,495.0506063789487 A 246.6617882883608,246.6617882883608 0 0 0 821.6004885834814,237.79574559933832"/><line x1="952.8849929640655" y1="523.0965565679049" x2="876.5349480233713" y2="495.0506063789487"/><path class="line" d=" M 886.2570027383965,498.1896324382916 A 256.87030314910993,256.87030314910993 0 0 0 828.9093981824518,230.6687815797706"/><line x1="953.0632363027919" y1="522.6101347066514" x2="886.2570027383965" y2="498.1896324382916"/><path class="line" d=" M 898.9290323390403,487.149448476937 A 265.3902614357523,265.3902614357523 0 0 0 835.0093652935834,224.72066503339747"/><line x1="958.8348866179795" y1="505.35021731218035" x2="898.9290323390403" y2="487.149448476937"/><text x="941.6951307178762" y="410" text-anchor="start" style="font-color:black;font-weight:normal" transform="rotate(346.3110412785021,645,410)">17%&#160;&#160;&#160;Staphylococcus epidermidis</text><path class="line" d=" M 865.0745991637793,249.1205187782295 A 272.6078441191378,272.6078441191378 0 0 0 840.1768808505024,219.68178790049308"/><line x1="909.7923384558694" y1="216.43084570347386" x2="865.0745991637793" y2="249.1205187782295"/><text x="945.3039220595689" y="410" text-anchor="start" style="font-color:black;font-weight:normal" transform="rotate(319.7772288622426,645,410)">2%&#160;&#160;&#160;Staphylococcus epidermidis ATCC 12228</text><path class="line" d=" M 881.0566088154786,273.64636378218495 A 272.6078441191378,272.6078441191378 0 0 0 865.0745991637793,249.1205187782295"/><line x1="929.0217894010389" y1="245.94018424540417" x2="881.0566088154786" y2="273.64636378218495"/><text x="945.3039220595689" y="410" text-anchor="start" style="font-color:black;font-weight:normal" transform="rotate(326.91014529974586,645,410)">2%&#160;&#160;&#160;Staphylococcus epidermidis RP62A</text><path class="line" d=" M 897.2652088088236,492.4272727292224 A 265.3902614357523,265.3902614357523 0 0 0 898.9290323390403,487.149448476937"/><line x1="956.778540936873" y1="511.87316335166304" x2="897.2652088088236" y2="492.4272727292224"/><path class="line" d=" M 886.2516321190809,498.2043232488935 A 256.87030314910993,256.87030314910993 0 0 0 886.2570027383965,498.1896324382916"/><line x1="953.0563785106924" y1="522.6288935348163" x2="886.2516321190809" y2="498.2043232488935"/><path class="line" d=" M 876.4484035049404,495.2858388985323 A 246.6617882883608,246.6617882883608 0 0 0 876.5349480233713,495.0506063789487"/><line x1="952.7699098689404" y1="523.4093584289423" x2="876.4484035049404" y2="495.2858388985323"/><path class="line" d=" M 847.5104029270801,492.5463538119083 A 218.68782275501553,218.68782275501553 0 0 0 847.5753708509765,492.3867886612803"/><line x1="948.7362177888292" y1="533.8075522871561" x2="847.5104029270801" y2="492.5463538119083"/><path class="line" d=" M 653.7998475382959,608.6147367707272 A 198.80958472669897,198.80958472669897 0 0 0 828.7788018941268,485.8327300943452"/><line x1="659.5181631787467" y1="737.678535973773" x2="653.7998475382959" y2="608.6147367707272"/><text x="645" y="618.7487037408573" text-anchor="middle" style="font-color:black;font-weight:normal" transform="rotate(324.9428201767244,645,410)">Actinobacteria</text><path class="line" d=" M 654.6905210470225,628.4730134894612 A 218.68782275501553,218.68782275501553 0 0 0 847.1541673154283,493.4149654338773"/><line x1="659.5343753638449" y1="737.6778172729776" x2="654.6905210470225" y2="628.4730134894612"/><text x="645" y="636.448815439819" text-anchor="middle" style="font-color:black;font-weight:normal" transform="rotate(324.94140279551186,645,410)">Actinobacteria</text><path class="line" d=" M 655.8369151548042,643.95896112716 A 234.20980812462236,234.20980812462236 0 0 0 861.5026298312871,499.33557800736"/><line x1="660.1765982784308" y1="737.6487003860921" x2="655.8369151548042" y2="643.95896112716"/><path class="line" d=" M 656.424322720629,656.3970832862822 A 246.6617882883608,246.6617882883608 0 0 0 873.0131915521777,504.0851862930721"/><line x1="660.1915620103493" y1="737.6480069276871" x2="656.424322720629" y2="656.3970832862822"/><path class="line" d=" M 657.9253554379304,666.5449041137219 A 256.87030314910993,256.87030314910993 0 0 0 882.4499027288844,507.97906069134876"/><line x1="661.504502590088" y1="737.5844950455589" x2="657.9253554379304" y2="666.5449041137219"/><line x1="685.5957293464495" y1="735.478089521906" x2="677.8466805622844" y2="673.3497416763043"/><path class="line" d=" M 677.8466805622844,673.3497416763043 A 265.3902614357523,265.3902614357523 0 0 0 890.325718818232,511.22886224419744"/><text x="941.6951307178762" y="410" text-anchor="start" style="font-color:black;font-weight:normal" transform="rotate(412.6564752515549,645,410)">17%&#160;&#160;&#160;Cutibacterium avidum 44067</text><path class="line" d=" M 661.5880661246013,674.8713403280597 A 265.3902614357523,265.3902614357523 0 0 0 677.8466805622844,673.3497416763043"/><line x1="665.501451935102" y1="737.3586572378264" x2="661.5880661246013" y2="674.8713403280597"/><text x="941.6951307178762" y="410" text-anchor="start" style="font-color:black;font-weight:normal" transform="rotate(444.6534200076079,645,410)">1%&#160;&#160;&#160;Cutibacterium acnes</text><path class="line" d=" M 677.1240656523951,680.7084798842561 A 272.6078441191378,272.6078441191378 0 0 0 678.7399824926208,680.5118301603125"/><line x1="683.6514686253149" y1="735.7146972015637" x2="677.1240656523951" y2="680.7084798842561"/><path class="line" d=" M 657.8892296491402,666.5467216687193 A 256.87030314910993,256.87030314910993 0 0 0 657.9253554379304,666.5449041137219"/><line x1="661.4583732455203" y1="737.5868158978794" x2="657.8892296491402" y2="666.5467216687193"/><path class="line" d=" M 656.4224472238714,656.3971702374644 A 246.6617882883608,246.6617882883608 0 0 0 656.424322720629,656.3970832862822"/><line x1="660.1890680572293" y1="737.6481225515458" x2="656.4224472238714" y2="656.3971702374644"/><path class="line" d=" M 655.7202700119369,643.9643349586504 A 234.20980812462236,234.20980812462236 0 0 0 655.8369151548042,643.95896112716"/><line x1="660.0132421527127" y1="737.6562261884612" x2="655.7202700119369" y2="643.9643349586504"/><path class="line" d=" M 654.6863636771016,628.473197852835 A 218.68782275501553,218.68782275501553 0 0 0 654.6905210470225,628.4730134894612"/><line x1="659.528139912246" y1="737.678093791285" x2="654.6863636771016" y2="628.473197852835"/><path class="line" d=" M 653.7718792924002,608.6159739620207 A 198.80958472669897,198.80958472669897 0 0 0 653.7998475382959,608.6147367707272"/><line x1="659.4720206113928" y1="737.6805771165319" x2="653.7718792924002" y2="608.6159739620207"/><path class="line" d=" M 652.1299833889274,582.3139596773998 A 172.4614083290257,172.4614083290257 0 0 0 652.4572143333106,582.3001082913705"/><line x1="658.5603354641896" y1="737.7195711307133" x2="652.1299833889274" y2="582.3139596773998"/><path class="line" d=" M 649.9850404196247,545.8285742384056 A 135.92002136412196,135.92002136412196 0 0 0 649.9860743034949,545.8285362899247"/><line x1="657.0298190158211" y1="737.7793212733936" x2="649.9850404196247" y2="545.8285742384056"/><path class="line" d=" M 645.4637469106787,491.9986886407511 A 82,82 0 0 0 648.0068310158173,491.944853207766"/><line x1="646.8549876427146" y1="737.9947545630042" x2="645.4637469106787" y2="491.9986886407511"/></svg>