<?xml version="1.0" standalone="no"?><!DOCTYPE svg PUBLIC "-//W3C//DTD SVG 1.1//EN" 	"http://www.w3.org/Graphics/SVG/1.1/DTD/svg11.dtd"><svg width="1440" height="820" version="1.1"	xmlns="http://www.w3.org/2000/svg"><title>Krona (snapshot) - all</title><defs>	<style type="text/css">	text {font-size: 11px; font-family: sans-serif; dominant-baseline:central}	path {stroke-width:0.27499999999999997;}	path.wedge {stroke:none}	path.line {fill:none;stroke:black;}	line {stroke:black;stroke-width:0.27499999999999997;}	line.tick {stroke-width:0.5499999999999999;}	line.pattern {stroke-width:0.18333333333333332;}	circle {fill:none;stroke:black;stroke-width:0.27499999999999997;}	rect {stroke:black;stroke-width:0.27499999999999997;}	.highlight {stroke:black;stroke-width:1.375;}	.searchHighlight {fill:rgb(255, 255, 100);stroke:none;}	</style><pattern id="hiddenPattern" patternUnits="userSpaceOnUse" x="0" y="0" width="6.6" height="6.6"><line class="pattern" x1="0" y1="0" x2="3.3" y2="3.3"/><line class="pattern" x1="3.3" y1="6.6" x2="6.6" y2="3.3"/></pattern></defs><path class="wedge" fill="rgb(220,220,220)" d=" M 645.74738634791,491.99659391491184 L 647.98954539164,737.9863756596474 A 328,328 0 0,1 645.0000000000001,738 L 645,492 A 82,82 0 0 0 645.74738634791,491.99659391491184 Z "/><path class="wedge" fill="rgb(207,111,111)" d=" M 645,492 L 645,738 A 328,328 0 1,1 649.3361328420872,737.9713370890447 L 646.0840332105217,491.9928342722612 A 82,82 0 1 0 645,492 Z "/><path class="wedge" fill="rgb(207,111,111)" d=" M 646.8838083584221,552.3154428270652 L 649.341306922957,737.9712686413259 A 328,328 0 0,1 649.3361328420872,737.9713370890447 L 646.8815631873337,552.315472528348 A 142.32791012656273,142.32791012656273 0 0 0 646.8838083584221,552.3154428270652 Z "/><path class="wedge" fill="rgb(210,121,121)" d=" M 645,552.3279101265628 L 645,738 A 328,328 0 1,1 649.4150374573331,737.9702843921234 L 646.9158019952217,552.3150157351993 A 142.32791012656273,142.32791012656273 0 1 0 645,552.3279101265628 Z "/><path class="wedge" fill="rgb(210,121,121)" d=" M 647.9875080635957,589.6942258025626 L 650.4524136337637,737.954678554166 A 328,328 0 0,1 649.4150374573331,737.9702843921234 L 647.419104802171,589.7027766150778 A 179.71905850858568,179.71905850858568 0 0 0 647.9875080635957,589.6942258025626 Z "/><path class="wedge" fill="rgb(213,130,130)" d=" M 645,589.7190585085857 L 645,738 A 328,328 0 1,1 652.752023096424,737.9083807070391 L 649.247519184226,589.668858102878 A 179.71905850858568,179.71905850858568 0 1 0 645,589.7190585085857 Z "/><path class="wedge" fill="rgb(213,130,130)" d=" M 650.0558123182,614.9965570389728 L 653.0869764552338,737.9002909602438 A 328,328 0 0,1 652.752023096424,737.9083807070391 L 649.8464063273618,615.001614583251 A 205.05889309178886,205.05889309178886 0 0 0 650.0558123182,614.9965570389728 Z "/><path class="wedge" fill="rgb(216,140,140)" d=" M 645,615.0588930917888 L 645,738 A 328,328 0 1,1 966.7852992011311,346.45299992888306 L 846.1735892298599,370.2717149576614 A 205.05889309178886,205.05889309178886 0 1 0 645,615.0588930917888 Z "/><path class="wedge" fill="rgb(216,140,140)" d=" M 863.0299631166804,361.6336094341777 L 965.2156805197751,338.96537499741873 A 328,328 0 0,1 966.7852992011311,346.45299992888306 L 864.098692488858,366.7318188191422 A 223.33018728561228,223.33018728561228 0 0 0 863.0299631166804,361.6336094341777 Z "/><path class="wedge" fill="rgb(219,149,149)" d=" M 645,633.3301872856123 L 645,738 A 328,328 0 1,1 962.1000639932839,326.14566549393385 L 860.9085874387188,352.904865152591 A 223.33018728561228,223.33018728561228 0 1 0 645,633.3301872856123 Z "/><path class="wedge" fill="rgb(219,149,149)" d=" M 872.5032079877798,343.17373397823246 L 959.7042343382271,317.5595062237862 A 328,328 0 0,1 962.1000639932839,326.14566549393385 L 874.2351800200718,349.3807644694499 A 237.11486557182158,237.11486557182158 0 0 0 872.5032079877798,343.17373397823246 Z "/><path class="wedge" fill="rgb(223,159,159)" d=" M 645,647.1148655718216 L 645,738 A 328,328 0 1,1 849.8149336712293,153.80702010935204 L 793.0630044651069,224.79523174629455 A 237.11486557182158,237.11486557182158 0 1 0 645,647.1148655718216 Z "/><path class="wedge" fill="rgb(223,159,159)" d=" M 798.5955346434,215.44345429593704 L 848.2419096692394,152.5573342392509 A 328,328 0 0,1 849.8149336712293,153.80702010935204 L 799.784312405751,216.3878764855674 A 247.87867544161406,247.87867544161406 0 0 0 798.5955346434,215.44345429593704 Z "/><path class="wedge" fill="rgb(226,168,168)" d=" M 645,657.8786754416141 L 645,738 A 328,328 0 1,1 837.1778705521925,144.19618875940705 L 790.2341341514251,209.12470531203968 A 247.87867544161406,247.87867544161406 0 1 0 645,657.8786754416141 Z "/><path class="wedge" fill="rgb(226,168,168)" d=" M 794.7887405225222,201.76324501117193 L 836.5325820697808,143.7308316652439 A 328,328 0 0,1 837.1778705521925,144.19618875940705 L 795.293390687051,202.1271791902795 A 256.51357257580094,256.51357257580094 0 0 0 794.7887405225222,201.76324501117193 Z "/><path class="wedge" fill="rgb(229,178,178)" d=" M 645,666.5135725758009 L 645,738 A 328,328 0 1,1 836.5126283640546,143.71647971177134 L 794.773135655626,201.75202101465152 A 256.51357257580094,256.51357257580094 0 1 0 645,666.5135725758009 Z "/><path class="wedge" fill="rgb(229,178,178)" d=" M 796.0725835974831,193.99490842119698 L 832.9862475972848,141.21538229598713 A 328,328 0 0,1 836.5126283640546,143.71647971177134 L 798.9065113980192,196.0048812424055 A 263.59272581538664,263.59272581538664 0 0 0 796.0725835974831,193.99490842119698 Z "/><path class="wedge" fill="rgb(229,178,178)" d=" M 645,673.5927258153866 L 645,738 A 328,328 0 1,1 832.6903693849365,141.00868928505128 L 795.834805108147,193.8288024024178 A 263.59272581538664,263.59272581538664 0 1 0 645,673.5927258153866 Z "/><path class="wedge" fill="rgb(229,178,178)" d=" M 412.1345078855253,545.6628878421408 L 361.58769921537385,575.1104713940476 A 328,328 0 0,1 832.6903693849365,141.00868928505128 L 799.2156431141808,188.98350293639763 A 269.5009398042718,269.5009398042718 0 0 0 412.1345078855253,545.6628878421408 Z "/><path class="wedge" fill="rgb(229,178,178)" d=" M 645,679.5009398042719 L 645,738 A 328,328 0 0,1 507.6919269657131,707.8766407082148 L 532.1809307150795,654.7501055384248 A 269.5009398042718,269.5009398042718 0 0 0 645,679.5009398042719 Z "/><path class="wedge" fill="rgb(229,180,178)" d=" M 532.1809307150795,654.7501055384248 L 507.6919269657131,707.8766407082148 A 328,328 0 0,1 444.72916755294693,669.7606468866376 L 480.4476293906565,623.4321294515684 A 269.5009398042718,269.5009398042718 0 0 0 532.1809307150795,654.7501055384248 Z "/><path class="wedge" fill="rgb(229,180,178)" d=" M 480.4476293906565,623.4321294515684 L 444.72916755294693,669.7606468866376 A 328,328 0 0,1 398.3726797687291,626.2382133563403 L 442.35885797641276,587.6719564668608 A 269.5009398042718,269.5009398042718 0 0 0 480.4476293906565,623.4321294515684 Z "/><path class="wedge" fill="rgb(229,181,178)" d=" M 442.35885797641276,587.6719564668608 L 398.3726797687291,626.2382133563403 A 328,328 0 0,1 361.58769921537385,575.1104713940476 L 412.1345078855253,545.6628878421408 A 269.5009398042718,269.5009398042718 0 0 0 442.35885797641276,587.6719564668608 Z "/><path class="wedge" fill="rgb(229,192,178)" d=" M 795.834805108147,193.8288024024178 L 832.6903693849365,141.00868928505128 A 328,328 0 0,1 832.9862475972848,141.21538229598713 L 796.0725835974831,193.99490842119698 A 263.59272581538664,263.59272581538664 0 0 0 795.834805108147,193.8288024024178 Z "/><path class="wedge" fill="url(#hiddenPattern)" d=" M 795.834805108147,193.8288024024178 L 832.6903693849365,141.00868928505128 A 328,328 0 0,1 832.9862475972848,141.21538229598713 L 796.0725835974831,193.99490842119698 A 263.59272581538664,263.59272581538664 0 0 0 795.834805108147,193.8288024024178 Z "/><path class="wedge" fill="rgb(226,185,168)" d=" M 794.773135655626,201.75202101465152 L 836.5126283640546,143.71647971177134 A 328,328 0 0,1 836.5325820697808,143.7308316652439 L 794.7887405225222,201.76324501117193 A 256.51357257580094,256.51357257580094 0 0 0 794.773135655626,201.75202101465152 Z "/><path class="wedge" fill="url(#hiddenPattern)" d=" M 794.773135655626,201.75202101465152 L 836.5126283640546,143.71647971177134 A 328,328 0 0,1 836.5325820697808,143.7308316652439 L 794.7887405225222,201.76324501117193 A 256.51357257580094,256.51357257580094 0 0 0 794.773135655626,201.75202101465152 Z "/><path class="wedge" fill="rgb(223,177,159)" d=" M 790.2341341514251,209.12470531203968 L 837.1778705521925,144.19618875940705 A 328,328 0 0,1 848.2419096692394,152.5573342392509 L 798.5955346434,215.44345429593704 A 247.87867544161406,247.87867544161406 0 0 0 790.2341341514251,209.12470531203968 Z "/><path class="wedge" fill="url(#hiddenPattern)" d=" M 790.2341341514251,209.12470531203968 L 837.1778705521925,144.19618875940705 A 328,328 0 0,1 848.2419096692394,152.5573342392509 L 798.5955346434,215.44345429593704 A 247.87867544161406,247.87867544161406 0 0 0 790.2341341514251,209.12470531203968 Z "/><path class="wedge" fill="rgb(223,178,159)" d=" M 793.0630044651069,224.79523174629455 L 849.8149336712293,153.80702010935204 A 328,328 0 0,1 959.7042343382271,317.5595062237862 L 872.5032079877798,343.17373397823246 A 237.11486557182158,237.11486557182158 0 0 0 793.0630044651069,224.79523174629455 Z "/><path class="wedge" fill="rgb(223,178,159)" d=" M 882.8091950513538,340.0670000091786 L 959.6757817625046,317.4626974017687 A 328,328 0 0,1 959.7042343382271,317.5595062237862 L 882.8306974500825,340.1401611145834 A 247.87867544161406,247.87867544161406 0 0 0 882.8091950513538,340.0670000091786 Z "/><path class="wedge" fill="rgb(226,185,168)" d=" M 799.784312405751,216.3878764855674 L 849.8149336712293,153.80702010935204 A 328,328 0 0,1 959.5356402478062,316.9874685114815 L 882.7032862311165,339.7078563876665 A 247.87867544161406,247.87867544161406 0 0 0 799.784312405751,216.3878764855674 Z "/><path class="wedge" fill="rgb(226,185,168)" d=" M 890.918211542349,337.03805000266806 L 959.4518731540209,316.7046653367513 A 328,328 0 0,1 959.5356402478062,316.9874685114815 L 890.983721897505,337.25921723646627 A 256.51357257580094,256.51357257580094 0 0 0 890.918211542349,337.03805000266806 Z "/><path class="wedge" fill="rgb(229,193,178)" d=" M 805.176251075862,209.64336420551695 L 849.8149336712293,153.80702010935204 A 328,328 0 0,1 959.4463532457792,316.6860625070902 L 890.9138946783753,337.0235015932278 A 256.51357257580094,256.51357257580094 0 0 0 805.176251075862,209.64336420551695 Z "/><path class="wedge" fill="rgb(229,193,178)" d=" M 895.9366456066098,329.30350072965774 L 957.251483816036,309.5858035202001 A 328,328 0 0,1 959.4463532457792,316.6860625070902 L 897.7005224840332,335.0095270112113 A 263.59272581538664,263.59272581538664 0 0 0 895.9366456066098,329.30350072965774 Z "/><path class="wedge" fill="rgb(229,193,178)" d=" M 809.596727603954,204.11400638980965 L 849.8149336712293,153.80702010935204 A 328,328 0 0,1 922.8234960649768,235.64947653008363 L 868.2690628759987,269.88558009519875 A 263.59272581538664,263.59272581538664 0 0 0 809.596727603954,204.11400638980965 Z "/><path class="wedge" fill="rgb(229,193,178)" d=" M 830.2998046158789,214.3095838710979 L 870.5217957983717,171.83216081956505 A 328,328 0 0,1 922.8234960649768,235.64947653008363 L 873.2734551500599,266.74503069966704 A 269.5009398042718,269.5009398042718 0 0 0 830.2998046158789,214.3095838710979 Z "/><path class="wedge" fill="rgb(229,193,178)" d=" M 813.2860277754447,199.49924130552884 L 849.8149336712293,153.80702010935204 A 328,328 0 0,1 862.323100943692,164.3281257526253 L 823.5633534923891,208.14389941114524 A 269.5009398042718,269.5009398042718 0 0 0 813.2860277754447,199.49924130552884 Z "/><path class="wedge" fill="rgb(229,193,178)" d=" M 823.5633534923891,208.14389941114524 L 862.323100943692,164.3281257526253 A 328,328 0 0,1 870.5217957983717,171.83216081956505 L 830.2998046158789,214.3095838710979 A 269.5009398042718,269.5009398042718 0 0 0 823.5633534923891,208.14389941114524 Z "/><path class="wedge" fill="url(#hiddenPattern)" d=" M 823.5633534923891,208.14389941114524 L 862.323100943692,164.3281257526253 A 328,328 0 0,1 870.5217957983717,171.83216081956505 L 830.2998046158789,214.3095838710979 A 269.5009398042718,269.5009398042718 0 0 0 823.5633534923891,208.14389941114524 Z "/><path class="wedge" fill="rgb(229,194,178)" d=" M 868.2690628759987,269.88558009519875 L 922.8234960649768,235.64947653008363 A 328,328 0 0,1 956.3171825072166,306.72555071186093 L 895.1858071044006,327.0048975763917 A 263.59272581538664,263.59272581538664 0 0 0 868.2690628759987,269.88558009519875 Z "/><path class="wedge" fill="rgb(229,194,178)" d=" M 879.377754782279,276.9668288786454 L 930.2528218432913,248.0900632127864 A 328,328 0 0,1 956.3171825072166,306.72555071186093 L 900.793516045466,325.1446306679204 A 269.5009398042718,269.5009398042718 0 0 0 879.377754782279,276.9668288786454 Z "/><path class="wedge" fill="rgb(229,194,178)" d=" M 873.2734551500599,266.74503069966704 L 922.8234960649768,235.64947653008363 A 328,328 0 0,1 930.2132217596316,248.02031567665279 L 879.3452174049539,276.90952087091057 A 269.5009398042718,269.5009398042718 0 0 0 873.2734551500599,266.74503069966704 Z "/><path class="wedge" fill="rgb(229,194,178)" d=" M 880.919214394739,269.6587160661642 L 926.8936503682039,242.30989927223257 A 328,328 0 0,1 930.2132217596316,248.02031567665279 L 883.6973921712513,274.4378125454143 A 274.5060139538447,274.5060139538447 0 0 0 880.919214394739,269.6587160661642 Z "/><path class="wedge" fill="rgb(229,194,178)" d=" M 877.5128673399952,264.08455113264336 L 922.8234960649768,235.64947653008363 A 328,328 0 0,1 926.8936503682039,242.30989927223257 L 880.919214394739,269.6587160661642 A 274.5060139538447,274.5060139538447 0 0 0 877.5128673399952,264.08455113264336 Z "/><path class="wedge" fill="url(#hiddenPattern)" d=" M 877.5128673399952,264.08455113264336 L 922.8234960649768,235.64947653008363 A 328,328 0 0,1 926.8936503682039,242.30989927223257 L 880.919214394739,269.6587160661642 A 274.5060139538447,274.5060139538447 0 0 0 877.5128673399952,264.08455113264336 Z "/><path class="wedge" fill="rgb(229,194,178)" d=" M 879.3452174049539,276.90952087091057 L 930.2132217596316,248.02031567665279 A 328,328 0 0,1 930.2528218432913,248.0900632127864 L 879.377754782279,276.9668288786454 A 269.5009398042718,269.5009398042718 0 0 0 879.3452174049539,276.90952087091057 Z "/><path class="wedge" fill="url(#hiddenPattern)" d=" M 879.3452174049539,276.90952087091057 L 930.2132217596316,248.02031567665279 A 328,328 0 0,1 930.2528218432913,248.0900632127864 L 879.377754782279,276.9668288786454 A 269.5009398042718,269.5009398042718 0 0 0 879.3452174049539,276.90952087091057 Z "/><path class="wedge" fill="rgb(229,195,178)" d=" M 895.1858071044006,327.0048975763917 L 956.3171825072166,306.72555071186093 A 328,328 0 0,1 957.251483816036,309.5858035202001 L 895.9366456066098,329.30350072965774 A 263.59272581538664,263.59272581538664 0 0 0 895.1858071044006,327.0048975763917 Z "/><path class="wedge" fill="url(#hiddenPattern)" d=" M 895.1858071044006,327.0048975763917 L 956.3171825072166,306.72555071186093 A 328,328 0 0,1 957.251483816036,309.5858035202001 L 895.9366456066098,329.30350072965774 A 263.59272581538664,263.59272581538664 0 0 0 895.1858071044006,327.0048975763917 Z "/><path class="wedge" fill="rgb(226,188,168)" d=" M 890.9138946783753,337.0235015932278 L 959.4463532457792,316.6860625070902 A 328,328 0 0,1 959.4518731540209,316.7046653367513 L 890.918211542349,337.03805000266806 A 256.51357257580094,256.51357257580094 0 0 0 890.9138946783753,337.0235015932278 Z "/><path class="wedge" fill="url(#hiddenPattern)" d=" M 890.9138946783753,337.0235015932278 L 959.4463532457792,316.6860625070902 A 328,328 0 0,1 959.4518731540209,316.7046653367513 L 890.918211542349,337.03805000266806 A 256.51357257580094,256.51357257580094 0 0 0 890.9138946783753,337.0235015932278 Z "/><path class="wedge" fill="rgb(223,180,159)" d=" M 882.7032862311165,339.7078563876665 L 959.5356402478062,316.9874685114815 A 328,328 0 0,1 959.6757817625046,317.4626974017687 L 882.8091950513538,340.0670000091786 A 247.87867544161406,247.87867544161406 0 0 0 882.7032862311165,339.7078563876665 Z "/><path class="wedge" fill="url(#hiddenPattern)" d=" M 882.7032862311165,339.7078563876665 L 959.5356402478062,316.9874685114815 A 328,328 0 0,1 959.6757817625046,317.4626974017687 L 882.8091950513538,340.0670000091786 A 247.87867544161406,247.87867544161406 0 0 0 882.7032862311165,339.7078563876665 Z "/><path class="wedge" fill="rgb(216,166,140)" d=" M 860.9085874387188,352.904865152591 L 962.1000639932839,326.14566549393385 A 328,328 0 0,1 965.2156805197751,338.96537499741873 L 863.0299631166804,361.6336094341777 A 223.33018728561228,223.33018728561228 0 0 0 860.9085874387188,352.904865152591 Z "/><path class="wedge" fill="url(#hiddenPattern)" d=" M 860.9085874387188,352.904865152591 L 962.1000639932839,326.14566549393385 A 328,328 0 0,1 965.2156805197751,338.96537499741873 L 863.0299631166804,361.6336094341777 A 223.33018728561228,223.33018728561228 0 0 0 860.9085874387188,352.904865152591 Z "/><path class="wedge" fill="rgb(216,167,140)" d=" M 846.1735892298599,370.2717149576614 L 966.7852992011311,346.45299992888306 A 328,328 0 0,1 653.4788223517321,737.8903926185209 L 650.3007863602686,614.9903687981279 A 205.05889309178886,205.05889309178886 0 0 0 846.1735892298599,370.2717149576614 Z "/><path class="wedge" fill="rgb(216,167,140)" d=" M 650.7775031635143,633.2554434055803 L 653.4852883556184,737.8902253522084 A 328,328 0 0,1 653.4788223517321,737.8903926185209 L 650.7731005602859,633.2555572946561 A 223.33018728561228,223.33018728561228 0 0 0 650.7775031635143,633.2554434055803 Z "/><path class="wedge" fill="rgb(219,174,149)" d=" M 864.098692488858,366.7318188191422 L 966.7852992011311,346.45299992888306 A 328,328 0 0,1 653.4904611563518,737.8900914473514 L 650.7810252444795,633.2553522318095 A 223.33018728561228,223.33018728561228 0 0 0 864.098692488858,366.7318188191422 Z "/><path class="wedge" fill="rgb(219,174,149)" d=" M 651.3500619560099,647.0298213058809 L 653.7840140960726,737.882358623272 A 328,328 0 0,1 653.4904611563518,737.8900914473514 L 651.1378492552778,647.0354114508264 A 237.11486557182158,237.11486557182158 0 0 0 651.3500619560099,647.0298213058809 Z "/><path class="wedge" fill="rgb(223,181,159)" d=" M 877.6221889117824,364.0611634775749 L 966.7852992011311,346.45299992888306 A 328,328 0 0,1 653.9676427666764,737.8773877278048 L 651.4828091741359,647.0262277899953 A 237.11486557182158,237.11486557182158 0 0 0 877.6221889117824,364.0611634775749 Z "/><path class="wedge" fill="rgb(223,181,159)" d=" M 651.7829593774255,657.7858535122077 L 653.9754016630592,737.8771754254735 A 328,328 0 0,1 653.9676427666764,737.8773877278048 L 651.777095764748,657.7860139549537 A 247.87867544161406,247.87867544161406 0 0 0 651.7829593774255,657.7858535122077 Z "/><path class="wedge" fill="rgb(226,189,168)" d=" M 888.1820540931703,361.9757737624493 L 966.7852992011311,346.45299992888306 A 328,328 0 0,1 653.9818674062053,737.8769983666091 L 651.7878457184219,657.7857197039248 A 247.87867544161406,247.87867544161406 0 0 0 888.1820540931703,361.9757737624493 Z "/><path class="wedge" fill="rgb(226,189,168)" d=" M 653.1538643466665,666.3839453082367 L 655.4262222027893,737.8342475864565 A 328,328 0 0,1 653.9818674062053,737.8769983666091 L 652.0243015145362,666.4173787086858 A 256.51357257580094,256.51357257580094 0 0 0 653.1538643466665,666.3839453082367 Z "/><path class="wedge" fill="rgb(229,196,178)" d=" M 896.6533435989487,360.3028414185461 L 966.7852992011311,346.45299992888306 A 328,328 0 0,1 655.4753553130016,737.832681304147 L 653.1922890711553,666.3827203915571 A 256.51357257580094,256.51357257580094 0 0 0 896.6533435989487,360.3028414185461 Z "/><path class="wedge" fill="rgb(229,196,178)" d=" M 656.9420790472404,673.3220686741145 L 659.8600531952396,737.6632094377314 A 328,328 0 0,1 655.4753553130016,737.832681304147 L 653.4183764049963,673.4582624278264 A 263.59272581538664,263.59272581538664 0 0 0 656.9420790472404,673.3220686741145 Z "/><path class="wedge" fill="rgb(229,196,178)" d=" M 903.5983662919082,358.93132022519427 L 966.7852992011311,346.45299992888306 A 328,328 0 0,1 660.2890856252134,737.6434706517816 L 657.2868651072404,673.3062058680389 A 263.59272581538664,263.59272581538664 0 0 0 903.5983662919082,358.93132022519427 Z "/><path class="wedge" fill="rgb(229,196,178)" d=" M 903.5983662919082,358.93132022519427 L 966.7852992011311,346.45299992888306 A 328,328 0 0,1 660.2890856252134,737.6434706517816 L 657.2868651072404,673.3062058680389 A 263.59272581538664,263.59272581538664 0 0 0 903.5983662919082,358.93132022519427 Z "/><path class="wedge" fill="rgb(229,203,178)" d=" M 657.2868651072404,673.3062058680389 L 660.2890856252134,737.6434706517816 A 328,328 0 0,1 659.8600531952396,737.6632094377314 L 656.9420790472404,673.3220686741145 A 263.59272581538664,263.59272581538664 0 0 0 657.2868651072404,673.3062058680389 Z "/><path class="wedge" fill="url(#hiddenPattern)" d=" M 657.2868651072404,673.3062058680389 L 660.2890856252134,737.6434706517816 A 328,328 0 0,1 659.8600531952396,737.6632094377314 L 656.9420790472404,673.3220686741145 A 263.59272581538664,263.59272581538664 0 0 0 657.2868651072404,673.3062058680389 Z "/><path class="wedge" fill="rgb(226,196,168)" d=" M 653.1922890711553,666.3827203915571 L 655.4753553130016,737.832681304147 A 328,328 0 0,1 655.4262222027893,737.8342475864565 L 653.1538643466665,666.3839453082367 A 256.51357257580094,256.51357257580094 0 0 0 653.1922890711553,666.3827203915571 Z "/><path class="wedge" fill="url(#hiddenPattern)" d=" M 653.1922890711553,666.3827203915571 L 655.4753553130016,737.832681304147 A 328,328 0 0,1 655.4262222027893,737.8342475864565 L 653.1538643466665,666.3839453082367 A 256.51357257580094,256.51357257580094 0 0 0 653.1922890711553,666.3827203915571 Z "/><path class="wedge" fill="rgb(223,190,159)" d=" M 651.7878457184219,657.7857197039248 L 653.9818674062053,737.8769983666091 A 328,328 0 0,1 653.9754016630592,737.8771754254735 L 651.7829593774255,657.7858535122077 A 247.87867544161406,247.87867544161406 0 0 0 651.7878457184219,657.7857197039248 Z "/><path class="wedge" fill="url(#hiddenPattern)" d=" M 651.7878457184219,657.7857197039248 L 653.9818674062053,737.8769983666091 A 328,328 0 0,1 653.9754016630592,737.8771754254735 L 651.7829593774255,657.7858535122077 A 247.87867544161406,247.87867544161406 0 0 0 651.7878457184219,657.7857197039248 Z "/><path class="wedge" fill="rgb(219,183,149)" d=" M 651.4828091741359,647.0262277899953 L 653.9676427666764,737.8773877278048 A 328,328 0 0,1 653.7840140960726,737.882358623272 L 651.3500619560099,647.0298213058809 A 237.11486557182158,237.11486557182158 0 0 0 651.4828091741359,647.0262277899953 Z "/><path class="wedge" fill="url(#hiddenPattern)" d=" M 651.4828091741359,647.0262277899953 L 653.9676427666764,737.8773877278048 A 328,328 0 0,1 653.7840140960726,737.882358623272 L 651.3500619560099,647.0298213058809 A 237.11486557182158,237.11486557182158 0 0 0 651.4828091741359,647.0262277899953 Z "/><path class="wedge" fill="rgb(216,177,140)" d=" M 650.7810252444795,633.2553522318095 L 653.4904611563518,737.8900914473514 A 328,328 0 0,1 653.4852883556184,737.8902253522084 L 650.7775031635143,633.2554434055803 A 223.33018728561228,223.33018728561228 0 0 0 650.7810252444795,633.2553522318095 Z "/><path class="wedge" fill="url(#hiddenPattern)" d=" M 650.7810252444795,633.2553522318095 L 653.4904611563518,737.8900914473514 A 328,328 0 0,1 653.4852883556184,737.8902253522084 L 650.7775031635143,633.2554434055803 A 223.33018728561228,223.33018728561228 0 0 0 650.7810252444795,633.2553522318095 Z "/><path class="wedge" fill="rgb(213,171,130)" d=" M 650.3007863602686,614.9903687981279 L 653.4788223517321,737.8903926185209 A 328,328 0 0,1 653.0869764552338,737.9002909602438 L 650.0558123182,614.9965570389728 A 205.05889309178886,205.05889309178886 0 0 0 650.3007863602686,614.9903687981279 Z "/><path class="wedge" fill="url(#hiddenPattern)" d=" M 650.3007863602686,614.9903687981279 L 653.4788223517321,737.8903926185209 A 328,328 0 0,1 653.0869764552338,737.9002909602438 L 650.0558123182,614.9965570389728 A 205.05889309178886,205.05889309178886 0 0 0 650.3007863602686,614.9903687981279 Z "/><path class="wedge" fill="rgb(210,165,121)" d=" M 649.247519184226,589.668858102878 L 652.752023096424,737.9083807070391 A 328,328 0 0,1 650.4524136337637,737.954678554166 L 647.9875080635957,589.6942258025626 A 179.71905850858568,179.71905850858568 0 0 0 649.247519184226,589.668858102878 Z "/><path class="wedge" fill="url(#hiddenPattern)" d=" M 649.247519184226,589.668858102878 L 652.752023096424,737.9083807070391 A 328,328 0 0,1 650.4524136337637,737.954678554166 L 647.9875080635957,589.6942258025626 A 179.71905850858568,179.71905850858568 0 0 0 649.247519184226,589.668858102878 Z "/><path class="wedge" fill="rgb(207,159,111)" d=" M 646.9158019952217,552.3150157351993 L 649.4150374573331,737.9702843921234 A 328,328 0 0,1 649.341306922957,737.9712686413259 L 646.8838083584221,552.3154428270652 A 142.32791012656273,142.32791012656273 0 0 0 646.9158019952217,552.3150157351993 Z "/><path class="wedge" fill="url(#hiddenPattern)" d=" M 646.9158019952217,552.3150157351993 L 649.4150374573331,737.9702843921234 A 328,328 0 0,1 649.341306922957,737.9712686413259 L 646.8838083584221,552.3154428270652 A 142.32791012656273,142.32791012656273 0 0 0 646.9158019952217,552.3150157351993 Z "/><path class="wedge" fill="rgb(101,204,204)" d=" M 646.0840332105217,491.9928342722612 L 649.3361328420872,737.9713370890447 A 328,328 0 0,1 647.98954539164,737.9863756596474 L 645.74738634791,491.99659391491184 A 82,82 0 0 0 646.0840332105217,491.9928342722612 Z "/><path class="wedge" fill="url(#hiddenPattern)" d=" M 646.0840332105217,491.9928342722612 L 649.3361328420872,737.9713370890447 A 328,328 0 0,1 647.98954539164,737.9863756596474 L 645.74738634791,491.99659391491184 A 82,82 0 0 0 646.0840332105217,491.9928342722612 Z "/><rect fill="rgb(101,204,204)" x="1405.7" y="756.3666666666668" width="22" height="22"/><rect fill="url(#hiddenPattern)" style="stroke:none" x="1405.7" y="756.3666666666668" width="22" height="22"/><path class="line" d="M 648.6628468348647,737.9795474615213 L 649.273321307342,792.6428053717749 A 382.6666666666667,382.6666666666667 0 0,0 781.8314413186285,767.3666666666668 L 1041.3333333333333,767.3666666666668 L 1316.0224283854168,767.3666666666668"/><text x="1398.3666666666668" y="767.3666666666668" style="font-color:black;font-weight:normal" text-anchor="end">Viruses&#160;&#160;&#160;0.07%</text><circle cx="645" cy="410" r="82"/><circle cx="645" cy="410" r="328"/><text x="645" y="410" text-anchor="middle" style="font-color:black;font-weight:bold" transform="rotate(360,645,410)">all</text><rect fill="rgb(220,220,220)" x="1405.7" y="785.7" width="22" height="22"/><path class="line" d="M 646.4947882183878,737.9965938972266 L 646.8062024305519,806.3292176258154 A 396.3333333333333,396.3333333333333 0 0,0 731.8517191027964,796.7 L 1030.3333333333333,796.7 L 1313.3798502604168,796.7"/><text x="1398.3666666666668" y="796.7" style="font-color:black;font-weight:normal" text-anchor="end">[other all]&#160;&#160;&#160;0.1%</text><path class="line" d=" M 646.0840332105217,491.9928342722612 A 82,82 0 1 0 645,492"/><line x1="649.3361328420872" y1="737.9713370890447" x2="646.0840332105217" y2="491.9928342722612"/><text x="645" y="297.8360449367186" text-anchor="middle" style="font-color:black;font-weight:normal" transform="rotate(359.6212662372309,645,410)">cellular organisms</text><path class="line" d=" M 646.9158019952217,552.3150157351993 A 142.32791012656273,142.32791012656273 0 1 0 645,552.3279101265628"/><line x1="649.4150374573331" y1="737.9702843921234" x2="646.9158019952217" y2="552.3150157351993"/><text x="645" y="256.45474535883034" text-anchor="middle" style="font-color:black;font-weight:normal" transform="rotate(359.6143740058678,645,410)">Bacteria</text><path class="line" d=" M 649.247519184226,589.668858102878 A 179.71905850858568,179.71905850858568 0 1 0 645,589.7190585085857"/><line x1="652.752023096424" y1="737.9083807070391" x2="649.247519184226" y2="589.668858102878"/><text x="645" y="217.61102419981273" text-anchor="middle" style="font-color:black;font-weight:normal" transform="rotate(359.3228665154309,645,410)">Terrabacteria group</text><path class="line" d=" M 846.1735892298599,370.2717149576614 A 205.05889309178886,205.05889309178886 0 1 0 645,615.0588930917888"/><line x1="966.7852992011311" y1="346.45299992888306" x2="846.1735892298599" y2="370.2717149576614"/><text x="645" y="195.80545981129941" text-anchor="middle" style="font-color:black;font-weight:normal" transform="rotate(309.4144114172512,645,410)">Firmicutes</text><path class="line" d=" M 860.9085874387188,352.904865152591 A 223.33018728561228,223.33018728561228 0 1 0 645,633.3301872856123"/><line x1="962.1000639932839" y1="326.14566549393385" x2="860.9085874387188" y2="352.904865152591"/><text x="645" y="179.77747357128305" text-anchor="middle" style="font-color:black;font-weight:normal" transform="rotate(307.59384545081343,645,410)">Bacilli</text><path class="line" d=" M 793.0630044651069,224.79523174629455 A 237.11486557182158,237.11486557182158 0 1 0 645,647.1148655718216"/><line x1="849.8149336712293" y1="153.80702010935204" x2="793.0630044651069" y2="224.79523174629455"/><path class="line" d=" M 790.2341341514251,209.12470531203968 A 247.87867544161406,247.87867544161406 0 1 0 645,657.8786754416141"/><line x1="837.1778705521925" y1="144.19618875940705" x2="790.2341341514251" y2="209.12470531203968"/><path class="line" d=" M 794.773135655626,201.75202101465152 A 256.51357257580094,256.51357257580094 0 1 0 645,666.5135725758009"/><line x1="836.5126283640546" y1="143.71647971177134" x2="794.773135655626" y2="201.75202101465152"/><path class="line" d=" M 795.834805108147,193.8288024024178 A 263.59272581538664,263.59272581538664 0 1 0 645,673.5927258153866"/><line x1="832.6903693849365" y1="141.00868928505128" x2="795.834805108147" y2="193.8288024024178"/><text x="349.2036370923067" y="410" text-anchor="end" style="font-color:black;font-weight:normal" transform="rotate(17.452824622214056,645,410)">Enterococcus faecalis&#160;&#160;&#160;60%</text><path class="line" d=" M 532.1809307150795,654.7501055384248 A 269.5009398042718,269.5009398042718 0 0 0 645,679.5009398042719"/><line x1="507.6919269657131" y1="707.8766407082148" x2="532.1809307150795" y2="654.7501055384248"/><text x="346.2495300978641" y="410" text-anchor="end" style="font-color:black;font-weight:normal" transform="rotate(-77.62618495535114,645,410)">Enterococcus faecalis V583&#160;&#160;&#160;7%</text><path class="line" d=" M 480.4476293906565,623.4321294515684 A 269.5009398042718,269.5009398042718 0 0 0 532.1809307150795,654.7501055384248"/><line x1="444.72916755294693" y1="669.7606468866376" x2="480.4476293906565" y2="623.4321294515684"/><text x="346.2495300978641" y="410" text-anchor="end" style="font-color:black;font-weight:normal" transform="rotate(-58.810393334245624,645,410)">Enterococcus faecalis str. Symbioflor 1&#160;&#160;&#160;4%</text><path class="line" d=" M 442.35885797641276,587.6719564668608 A 269.5009398042718,269.5009398042718 0 0 0 480.4476293906565,623.4321294515684"/><line x1="398.3726797687291" y1="626.2382133563403" x2="442.35885797641276" y2="587.6719564668608"/><text x="346.2495300978641" y="410" text-anchor="end" style="font-color:black;font-weight:normal" transform="rotate(-46.806047085615575,645,410)">Enterococcus faecalis D32&#160;&#160;&#160;3%</text><path class="line" d=" M 412.1345078855253,545.6628878421408 A 269.5009398042718,269.5009398042718 0 0 0 442.35885797641276,587.6719564668608"/><line x1="361.58769921537385" y1="575.1104713940476" x2="412.1345078855253" y2="545.6628878421408"/><text x="346.2495300978641" y="410" text-anchor="end" style="font-color:black;font-weight:normal" transform="rotate(-35.73395986938655,645,410)">Enterococcus faecalis OG1RF&#160;&#160;&#160;3%</text><path class="line" d=" M 796.0725835974831,193.99490842119698 A 263.59272581538664,263.59272581538664 0 0 0 795.834805108147,193.8288024024178"/><line x1="832.9862475972848" y1="141.21538229598713" x2="796.0725835974831" y2="193.99490842119698"/><path class="line" d=" M 794.7887405225222,201.76324501117193 A 256.51357257580094,256.51357257580094 0 0 0 794.773135655626,201.75202101465152"/><line x1="836.5325820697808" y1="143.7308316652439" x2="794.7887405225222" y2="201.76324501117193"/><line x1="964.75" y1="410" x2="981.25" y2="410" class="tick" transform="rotate(307.07850992217675,645,410)"/><text x="984" y="410" text-anchor="start" style="font-color:black;font-weight:normal" transform="rotate(307.07850992217675,645,410)">5 more</text><path class="line" d=" M 798.5955346434,215.44345429593704 A 247.87867544161406,247.87867544161406 0 0 0 790.2341341514251,209.12470531203968"/><line x1="848.2419096692394" y1="152.5573342392509" x2="798.5955346434" y2="215.44345429593704"/><path class="line" d=" M 872.5032079877798,343.17373397823246 A 237.11486557182158,237.11486557182158 0 0 0 793.0630044651069,224.79523174629455"/><line x1="959.7042343382271" y1="317.5595062237862" x2="872.5032079877798" y2="343.17373397823246"/><path class="line" d=" M 882.7032862311165,339.7078563876665 A 247.87867544161406,247.87867544161406 0 0 0 799.784312405751,216.3878764855674"/><line x1="959.5356402478062" y1="316.9874685114815" x2="882.7032862311165" y2="339.7078563876665"/><path class="line" d=" M 890.9138946783753,337.0235015932278 A 256.51357257580094,256.51357257580094 0 0 0 805.176251075862,209.64336420551695"/><line x1="959.4463532457792" y1="316.6860625070902" x2="890.9138946783753" y2="337.0235015932278"/><path class="line" d=" M 868.2690628759987,269.88558009519875 A 263.59272581538664,263.59272581538664 0 0 0 809.596727603954,204.11400638980965"/><line x1="922.8234960649768" y1="235.64947653008363" x2="868.2690628759987" y2="269.88558009519875"/><text x="940.7963629076933" y="410" text-anchor="start" style="font-color:black;font-weight:normal" transform="rotate(318.2650533739921,645,410)">5%&#160;&#160;&#160;Staphylococcus epidermidis</text><path class="line" d=" M 823.5633534923891,208.14389941114524 A 269.5009398042718,269.5009398042718 0 0 0 813.2860277754447,199.49924130552884"/><line x1="862.323100943692" y1="164.3281257526253" x2="823.5633534923891" y2="208.14389941114524"/><text x="943.7504699021358" y="410" text-anchor="start" style="font-color:black;font-weight:normal" transform="rotate(310.0684954723438,645,410)">0.8%&#160;&#160;&#160;Staphylococcus epidermidis RP62A</text><path class="line" d=" M 830.2998046158789,214.3095838710979 A 269.5009398042718,269.5009398042718 0 0 0 823.5633534923891,208.14389941114524"/><line x1="870.5217957983717" y1="171.83216081956505" x2="830.2998046158789" y2="214.3095838710979"/><path class="line" d=" M 895.1858071044006,327.0048975763917 A 263.59272581538664,263.59272581538664 0 0 0 868.2690628759987,269.88558009519875"/><line x1="956.3171825072166" y1="306.72555071186093" x2="895.1858071044006" y2="327.0048975763917"/><text x="940.7963629076933" y="410" text-anchor="start" style="font-color:black;font-weight:normal" transform="rotate(334.76844487909716,645,410)">4%&#160;&#160;&#160;Staphylococcus aureus</text><path class="line" d=" M 879.3452174049539,276.90952087091057 A 269.5009398042718,269.5009398042718 0 0 0 873.2734551500599,266.74503069966704"/><line x1="930.2132217596316" y1="248.02031567665279" x2="879.3452174049539" y2="276.90952087091057"/><path class="line" d=" M 880.919214394739,269.6587160661642 A 274.5060139538447,274.5060139538447 0 0 0 877.5128673399952,264.08455113264336"/><line x1="926.8936503682039" y1="242.30989927223257" x2="880.919214394739" y2="269.6587160661642"/><path class="line" d=" M 879.377754782279,276.9668288786454 A 269.5009398042718,269.5009398042718 0 0 0 879.3452174049539,276.90952087091057"/><line x1="930.2528218432913" y1="248.0900632127864" x2="879.377754782279" y2="276.9668288786454"/><path class="line" d=" M 895.9366456066098,329.30350072965774 A 263.59272581538664,263.59272581538664 0 0 0 895.1858071044006,327.0048975763917"/><line x1="957.251483816036" y1="309.5858035202001" x2="895.9366456066098" y2="329.30350072965774"/><path class="line" d=" M 890.918211542349,337.03805000266806 A 256.51357257580094,256.51357257580094 0 0 0 890.9138946783753,337.0235015932278"/><line x1="959.4518731540209" y1="316.7046653367513" x2="890.918211542349" y2="337.03805000266806"/><path class="line" d=" M 882.8091950513538,340.0670000091786 A 247.87867544161406,247.87867544161406 0 0 0 882.7032862311165,339.7078563876665"/><line x1="959.6757817625046" y1="317.4626974017687" x2="882.8091950513538" y2="340.0670000091786"/><line x1="964.75" y1="410" x2="981.25" y2="410" class="tick" transform="rotate(346.3400493880477,645,410)"/><text x="984" y="410" text-anchor="start" style="font-color:black;font-weight:normal" transform="rotate(346.3400493880477,645,410)">4 more</text><path class="line" d=" M 863.0299631166804,361.6336094341777 A 223.33018728561228,223.33018728561228 0 0 0 860.9085874387188,352.904865152591"/><line x1="965.2156805197751" y1="338.96537499741873" x2="863.0299631166804" y2="361.6336094341777"/><path class="line" d=" M 650.3007863602686,614.9903687981279 A 205.05889309178886,205.05889309178886 0 0 0 846.1735892298599,370.2717149576614"/><line x1="653.4788223517321" y1="737.8903926185209" x2="650.3007863602686" y2="614.9903687981279"/><text x="645" y="624.1945401887006" text-anchor="middle" style="font-color:black;font-weight:normal" transform="rotate(308.6737790142226,645,410)">Actinobacteria</text><path class="line" d=" M 650.7810252444795,633.2553522318095 A 223.33018728561228,223.33018728561228 0 0 0 864.098692488858,366.7318188191422"/><line x1="653.4904611563518" y1="737.8900914473514" x2="650.7810252444795" y2="633.2553522318095"/><text x="645" y="640.222526428717" text-anchor="middle" style="font-color:black;font-weight:normal" transform="rotate(308.67276212762806,645,410)">Actinobacteria</text><path class="line" d=" M 651.4828091741359,647.0262277899953 A 237.11486557182158,237.11486557182158 0 0 0 877.6221889117824,364.0611634775749"/><line x1="653.9676427666764" y1="737.8773877278048" x2="651.4828091741359" y2="647.0262277899953"/><path class="line" d=" M 651.7878457184219,657.7857197039248 A 247.87867544161406,247.87867544161406 0 0 0 888.1820540931703,361.9757737624493"/><line x1="653.9818674062053" y1="737.8769983666091" x2="651.7878457184219" y2="657.7857197039248"/><path class="line" d=" M 653.1922890711553,666.3827203915571 A 256.51357257580094,256.51357257580094 0 0 0 896.6533435989487,360.3028414185461"/><line x1="655.4753553130016" y1="737.832681304147" x2="653.1922890711553" y2="666.3827203915571"/><line x1="660.2890856252134" y1="737.6434706517816" x2="657.2868651072404" y2="673.3062058680389"/><path class="line" d=" M 657.2868651072404,673.3062058680389 A 263.59272581538664,263.59272581538664 0 0 0 903.5983662919082,358.93132022519427"/><text x="940.7963629076933" y="410" text-anchor="start" style="font-color:black;font-weight:normal" transform="rotate(398.0785613942143,645,410)">27%&#160;&#160;&#160;Cutibacterium avidum 44067</text><path class="line" d=" M 656.9420790472404,673.3220686741145 A 263.59272581538664,263.59272581538664 0 0 0 657.2868651072404,673.3062058680389"/><line x1="659.8600531952396" y1="737.6632094377314" x2="656.9420790472404" y2="673.3220686741145"/><path class="line" d=" M 653.1538643466665,666.3839453082367 A 256.51357257580094,256.51357257580094 0 0 0 653.1922890711553,666.3827203915571"/><line x1="655.4262222027893" y1="737.8342475864565" x2="653.1538643466665" y2="666.3839453082367"/><path class="line" d=" M 651.7829593774255,657.7858535122077 A 247.87867544161406,247.87867544161406 0 0 0 651.7878457184219,657.7857197039248"/><line x1="653.9754016630592" y1="737.8771754254735" x2="651.7829593774255" y2="657.7858535122077"/><path class="line" d=" M 651.3500619560099,647.0298213058809 A 237.11486557182158,237.11486557182158 0 0 0 651.4828091741359,647.0262277899953"/><line x1="653.7840140960726" y1="737.882358623272" x2="651.3500619560099" y2="647.0298213058809"/><path class="line" d=" M 650.7775031635143,633.2554434055803 A 223.33018728561228,223.33018728561228 0 0 0 650.7810252444795,633.2553522318095"/><line x1="653.4852883556184" y1="737.8902253522084" x2="650.7775031635143" y2="633.2554434055803"/><path class="line" d=" M 650.0558123182,614.9965570389728 A 205.05889309178886,205.05889309178886 0 0 0 650.3007863602686,614.9903687981279"/><line x1="653.0869764552338" y1="737.9002909602438" x2="650.0558123182" y2="614.9965570389728"/><path class="line" d=" M 647.9875080635957,589.6942258025626 A 179.71905850858568,179.71905850858568 0 0 0 649.247519184226,589.668858102878"/><line x1="650.4524136337637" y1="737.954678554166" x2="647.9875080635957" y2="589.6942258025626"/><path class="line" d=" M 646.8838083584221,552.3154428270652 A 142.32791012656273,142.32791012656273 0 0 0 646.9158019952217,552.3150157351993"/><line x1="649.341306922957" y1="737.9712686413259" x2="646.8838083584221" y2="552.3154428270652"/><path class="line" d=" M 645.74738634791,491.99659391491184 A 82,82 0 0 0 646.0840332105217,491.9928342722612"/><line x1="647.98954539164" y1="737.9863756596474" x2="645.74738634791" y2="491.99659391491184"/></svg>