<?xml version="1.0" standalone="no"?><!DOCTYPE svg PUBLIC "-//W3C//DTD SVG 1.1//EN" 	"http://www.w3.org/Graphics/SVG/1.1/DTD/svg11.dtd"><svg width="1440" height="820" version="1.1"	xmlns="http://www.w3.org/2000/svg"><title>Krona (snapshot) - all</title><defs>	<style type="text/css">	text {font-size: 11px; font-family: sans-serif; dominant-baseline:central}	path {stroke-width:0.27499999999999997;}	path.wedge {stroke:none}	path.line {fill:none;stroke:black;}	line {stroke:black;stroke-width:0.27499999999999997;}	line.tick {stroke-width:0.5499999999999999;}	line.pattern {stroke-width:0.18333333333333332;}	circle {fill:none;stroke:black;stroke-width:0.27499999999999997;}	rect {stroke:black;stroke-width:0.27499999999999997;}	.highlight {stroke:black;stroke-width:1.375;}	.searchHighlight {fill:rgb(255, 255, 100);stroke:none;}	</style><pattern id="hiddenPattern" patternUnits="userSpaceOnUse" x="0" y="0" width="6.6" height="6.6"><line class="pattern" x1="0" y1="0" x2="3.3" y2="3.3"/><line class="pattern" x1="3.3" y1="6.6" x2="6.6" y2="3.3"/></pattern></defs><path class="wedge" fill="rgb(220,220,220)" d=" M 645.6390506915196,491.99750980495486 L 647.5562027660784,737.9900392198194 A 328,328 0 0,1 645.0000000000001,738 L 645,492 A 82,82 0 0 0 645.6390506915196,491.99750980495486 Z "/><path class="wedge" fill="rgb(207,111,111)" d=" M 645,492 L 645,738 A 328,328 0 1,1 650.8340890027299,737.9481108430239 L 646.4585222506824,491.98702771075597 A 82,82 0 1 0 645,492 Z "/><path class="wedge" fill="rgb(207,111,111)" d=" M 647.4191809944007,545.8984906867611 L 650.8379284979487,737.9480425171841 A 328,328 0 0,1 650.8340890027299,737.9481108430239 L 647.4175899447904,545.8985190003269 A 135.92002136412196,135.92002136412196 0 0 0 647.4191809944007,545.8984906867611 Z "/><path class="wedge" fill="rgb(210,121,121)" d=" M 645,545.920021364122 L 645,738 A 328,328 0 1,1 650.8481671479525,737.9478600951828 L 647.4234237917398,545.8984150928516 A 135.92002136412196,135.92002136412196 0 1 0 645,545.920021364122 Z "/><path class="wedge" fill="rgb(210,121,121)" d=" M 648.5856891611098,582.4241288105317 L 651.8195317215559,737.9290990246195 A 328,328 0 0,1 650.8481671479525,737.9478600951828 L 648.0749486051202,582.433993324712 A 172.4614083290257,172.4614083290257 0 0 0 648.5856891611098,582.4241288105317 Z "/><path class="wedge" fill="rgb(213,130,130)" d=" M 645,582.4614083290257 L 645,738 A 328,328 0 1,1 652.486270916668,737.9145555594662 L 648.936258614089,582.4164819005247 A 172.4614083290257,172.4614083290257 0 1 0 645,582.4614083290257 Z "/><path class="wedge" fill="rgb(213,130,130)" d=" M 649.7059460955252,608.7538805924264 L 652.7639632991244,737.9080982133406 A 328,328 0 0,1 652.486270916668,737.9145555594662 L 649.5376293051656,608.7577945628583 A 198.80958472669897,198.80958472669897 0 0 0 649.7059460955252,608.7538805924264 Z "/><path class="wedge" fill="rgb(216,140,140)" d=" M 645,608.809584726699 L 645,738 A 328,328 0 1,1 652.8778539677782,737.9053818052738 L 649.7749782800962,608.7522341047444 A 198.80958472669897,198.80958472669897 0 1 0 645,608.809584726699 Z "/><path class="wedge" fill="rgb(216,140,140)" d=" M 651.6455582271486,628.5868257173306 L 654.9673729933587,737.848519099311 A 328,328 0 0,1 652.8778539677782,737.9053818052738 L 650.2524107688884,628.6247378556324 A 218.68782275501553,218.68782275501553 0 0 0 651.6455582271486,628.5868257173306 Z "/><path class="wedge" fill="rgb(219,149,149)" d=" M 645,628.6878227550155 L 645,738 A 328,328 0 1,1 655.0722868245784,737.8453126676106 L 651.7155075482655,628.5846878893814 A 218.68782275501553,218.68782275501553 0 1 0 645,628.6878227550155 Z "/><path class="wedge" fill="rgb(219,149,149)" d=" M 662.2756138002705,643.5718034986165 L 669.1936978295703,737.1065040400931 A 328,328 0 0,1 655.0722868245784,737.8453126676106 L 652.1921596480508,644.0993529708473 A 234.20980812462236,234.20980812462236 0 0 0 662.2756138002705,643.5718034986165 Z "/><path class="wedge" fill="rgb(223,159,159)" d=" M 645,644.2098081246223 L 645,738 A 328,328 0 1,1 846.4747948286654,668.8279487395964 L 788.8639421913701,594.8172079621661 A 234.20980812462236,234.20980812462236 0 1 0 645,644.2098081246223 Z "/><path class="wedge" fill="rgb(223,159,159)" d=" M 797.9305232050262,603.5311160352492 L 848.3602851877789,667.3491682682213 A 328,328 0 0,1 846.4747948286654,668.8279487395964 L 796.5126011813086,604.6431850460885 A 246.6617882883608,246.6617882883608 0 0 0 797.9305232050262,603.5311160352492 Z "/><path class="wedge" fill="rgb(226,168,168)" d=" M 645,656.6617882883609 L 645,738 A 328,328 0 1,1 850.3946406738194,665.7284528214892 L 799.4603944312487,602.3123094181836 A 246.6617882883608,246.6617882883608 0 1 0 645,656.6617882883609 Z "/><path class="wedge" fill="rgb(226,168,168)" d=" M 806.6535962775724,609.625818596802 L 851.4169307584962,664.9040029035289 A 328,328 0 0,1 850.3946406738194,665.7284528214892 L 805.8529988264831,610.2714792686244 A 256.87030314910993,256.87030314910993 0 0 0 806.6535962775724,609.625818596802 Z "/><path class="wedge" fill="rgb(229,178,178)" d=" M 645,666.87030314911 L 645,738 A 328,328 0 1,1 851.4587084952883,664.8701663326988 L 806.686314143166,609.5993197851964 A 256.87030314910993,256.87030314910993 0 1 0 645,666.87030314911 Z "/><path class="wedge" fill="rgb(229,178,178)" d=" M 816.1027906369616,612.8689870364149 L 856.4686312350228,660.7289732033096 A 328,328 0 0,1 851.4587084952883,664.8701663326988 L 812.0491787294279,616.2196953512457 A 265.3902614357523,265.3902614357523 0 0 0 816.1027906369616,612.8689870364149 Z "/><path class="wedge" fill="rgb(229,178,178)" d=" M 645,675.3902614357523 L 645,738 A 328,328 0 1,1 856.9535612472844,660.3191720076464 L 816.4951555843156,612.5374100655193 A 265.3902614357523,265.3902614357523 0 1 0 645,675.3902614357523 Z "/><path class="wedge" fill="rgb(229,178,178)" d=" M 377.5120908536003,462.5856932613002 L 323.16027274080994,473.2707670076013 A 328,328 0 1,1 856.9535612472844,660.3191720076464 L 821.1591566615725,618.0456397033297 A 272.6078441191378,272.6078441191378 0 1 0 377.5120908536003,462.5856932613002 Z "/><path class="wedge" fill="rgb(229,178,178)" d=" M 645,682.6078441191378 L 645,738 A 328,328 0 0,1 470.8958229680174,687.9779407435346 L 500.29827941211744,641.0334363986964 A 272.6078441191378,272.6078441191378 0 0 0 645,682.6078441191378 Z "/><path class="wedge" fill="rgb(229,180,178)" d=" M 500.29827941211744,641.0334363986964 L 470.8958229680174,687.9779407435346 A 328,328 0 0,1 395.7233653418314,623.1787030017256 L 437.8208354773254,587.1773982848 A 272.6078441191378,272.6078441191378 0 0 0 500.29827941211744,641.0334363986964 Z "/><path class="wedge" fill="rgb(229,181,178)" d=" M 437.8208354773254,587.1773982848 L 395.7233653418314,623.1787030017256 A 328,328 0 0,1 349.665236548537,552.6932987111462 L 399.5409354940889,528.5954650362613 A 272.6078441191378,272.6078441191378 0 0 0 437.8208354773254,587.1773982848 Z "/><path class="wedge" fill="rgb(229,182,178)" d=" M 399.5409354940889,528.5954650362613 L 349.665236548537,552.6932987111462 A 328,328 0 0,1 323.16027274080994,473.2707670076013 L 377.5120908536003,462.5856932613002 A 272.6078441191378,272.6078441191378 0 0 0 399.5409354940889,528.5954650362613 Z "/><path class="wedge" fill="rgb(229,199,178)" d=" M 816.4951555843156,612.5374100655193 L 856.9535612472844,660.3191720076464 A 328,328 0 0,1 856.4686312350228,660.7289732033096 L 816.1027906369616,612.8689870364149 A 265.3902614357523,265.3902614357523 0 0 0 816.4951555843156,612.5374100655193 Z "/><path class="wedge" fill="url(#hiddenPattern)" d=" M 816.4951555843156,612.5374100655193 L 856.9535612472844,660.3191720076464 A 328,328 0 0,1 856.4686312350228,660.7289732033096 L 816.1027906369616,612.8689870364149 A 265.3902614357523,265.3902614357523 0 0 0 816.4951555843156,612.5374100655193 Z "/><path class="wedge" fill="rgb(226,193,168)" d=" M 806.686314143166,609.5993197851964 L 851.4587084952883,664.8701663326988 A 328,328 0 0,1 851.4169307584962,664.9040029035289 L 806.6535962775724,609.625818596802 A 256.87030314910993,256.87030314910993 0 0 0 806.686314143166,609.5993197851964 Z "/><path class="wedge" fill="url(#hiddenPattern)" d=" M 806.686314143166,609.5993197851964 L 851.4587084952883,664.8701663326988 A 328,328 0 0,1 851.4169307584962,664.9040029035289 L 806.6535962775724,609.625818596802 A 256.87030314910993,256.87030314910993 0 0 0 806.686314143166,609.5993197851964 Z "/><path class="wedge" fill="rgb(223,186,159)" d=" M 799.4603944312487,602.3123094181836 L 850.3946406738194,665.7284528214892 A 328,328 0 0,1 848.3602851877789,667.3491682682213 L 797.9305232050262,603.5311160352492 A 246.6617882883608,246.6617882883608 0 0 0 799.4603944312487,602.3123094181836 Z "/><path class="wedge" fill="url(#hiddenPattern)" d=" M 799.4603944312487,602.3123094181836 L 850.3946406738194,665.7284528214892 A 328,328 0 0,1 848.3602851877789,667.3491682682213 L 797.9305232050262,603.5311160352492 A 246.6617882883608,246.6617882883608 0 0 0 799.4603944312487,602.3123094181836 Z "/><path class="wedge" fill="rgb(223,186,159)" d=" M 788.8639421913701,594.8172079621661 L 846.4747948286654,668.8279487395964 A 328,328 0 0,1 669.1936978295703,737.1065040400931 L 662.2756138002705,643.5718034986165 A 234.20980812462236,234.20980812462236 0 0 0 788.8639421913701,594.8172079621661 Z "/><path class="wedge" fill="rgb(223,186,159)" d=" M 663.3179236311589,655.9806729713844 L 669.3583693798414,737.0942828010835 A 328,328 0 0,1 669.1936978295703,737.1065040400931 L 663.1940877193598,655.9898635587905 A 246.6617882883608,246.6617882883608 0 0 0 663.3179236311589,655.9806729713844 Z "/><path class="wedge" fill="rgb(226,193,168)" d=" M 796.5126011813086,604.6431850460885 L 846.4747948286654,668.8279487395964 A 328,328 0 0,1 669.7757648579068,737.0629319805375 L 663.6318123965342,655.957096601079 A 246.6617882883608,246.6617882883608 0 0 0 796.5126011813086,604.6431850460885 Z "/><path class="wedge" fill="rgb(226,193,168)" d=" M 664.6178250741852,666.1200764861558 L 670.0501772507253,737.0420288276528 A 328,328 0 0,1 669.7757648579068,737.0629319805375 L 664.4029214323218,666.1364466057238 A 256.87030314910993,256.87030314910993 0 0 0 664.6178250741852,666.1200764861558 Z "/><path class="wedge" fill="rgb(229,200,178)" d=" M 802.7832061723902,612.6988221225683 L 846.4747948286654,668.8279487395964 A 328,328 0 0,1 670.0718742249999,737.0403661978835 L 664.6348168679637,666.1187744123363 A 256.87030314910993,256.87030314910993 0 0 0 802.7832061723902,612.6988221225683 Z "/><path class="wedge" fill="rgb(229,200,178)" d=" M 670.6751030834535,674.145376538358 L 676.732263896245,736.4614271671603 A 328,328 0 0,1 670.0718742249999,737.0403661978835 L 665.2860709001739,674.6138057478673 A 265.3902614357523,265.3902614357523 0 0 0 670.6751030834535,674.145376538358 Z "/><path class="wedge" fill="rgb(229,200,178)" d=" M 808.0166111960185,619.4220029965884 L 846.4747948286654,668.8279487395964 A 328,328 0 0,1 680.5470019561399,736.0681073823844 L 673.761671165845,673.8271349514389 A 265.3902614357523,265.3902614357523 0 0 0 808.0166111960185,619.4220029965884 Z "/><path class="wedge" fill="rgb(229,200,178)" d=" M 782.7821970292224,645.2256424310169 L 810.7786509101127,693.0219760061451 A 328,328 0 0,1 680.5470019561399,736.0681073823844 L 674.5438767322014,681.0022066753638 A 272.6078441191378,272.6078441191378 0 0 0 782.7821970292224,645.2256424310169 Z "/><path class="wedge" fill="rgb(229,200,178)" d=" M 812.4500288493539,625.1174667795125 L 846.4747948286654,668.8279487395964 A 328,328 0 0,1 826.6714554024468,683.0924427587787 L 795.991048156241,636.972994102743 A 272.6078441191378,272.6078441191378 0 0 0 812.4500288493539,625.1174667795125 Z "/><path class="wedge" fill="rgb(229,200,178)" d=" M 795.991048156241,636.972994102743 L 826.6714554024468,683.0924427587787 A 328,328 0 0,1 810.7786509101127,693.0219760061451 L 782.7821970292224,645.2256424310169 A 272.6078441191378,272.6078441191378 0 0 0 795.991048156241,636.972994102743 Z "/><path class="wedge" fill="rgb(229,202,178)" d=" M 673.761671165845,673.8271349514389 L 680.5470019561399,736.0681073823844 A 328,328 0 0,1 676.732263896245,736.4614271671603 L 670.6751030834535,674.145376538358 A 265.3902614357523,265.3902614357523 0 0 0 673.761671165845,673.8271349514389 Z "/><path class="wedge" fill="url(#hiddenPattern)" d=" M 673.761671165845,673.8271349514389 L 680.5470019561399,736.0681073823844 A 328,328 0 0,1 676.732263896245,736.4614271671603 L 670.6751030834535,674.145376538358 A 265.3902614357523,265.3902614357523 0 0 0 673.761671165845,673.8271349514389 Z "/><path class="wedge" fill="rgb(226,196,168)" d=" M 664.6348168679637,666.1187744123363 L 670.0718742249999,737.0403661978835 A 328,328 0 0,1 670.0501772507253,737.0420288276528 L 664.6178250741852,666.1200764861558 A 256.87030314910993,256.87030314910993 0 0 0 664.6348168679637,666.1187744123363 Z "/><path class="wedge" fill="url(#hiddenPattern)" d=" M 664.6348168679637,666.1187744123363 L 670.0718742249999,737.0403661978835 A 328,328 0 0,1 670.0501772507253,737.0420288276528 L 664.6178250741852,666.1200764861558 A 256.87030314910993,256.87030314910993 0 0 0 664.6348168679637,666.1187744123363 Z "/><path class="wedge" fill="rgb(223,189,159)" d=" M 663.6318123965342,655.957096601079 L 669.7757648579068,737.0629319805375 A 328,328 0 0,1 669.3583693798414,737.0942828010835 L 663.3179236311589,655.9806729713844 A 246.6617882883608,246.6617882883608 0 0 0 663.6318123965342,655.957096601079 Z "/><path class="wedge" fill="url(#hiddenPattern)" d=" M 663.6318123965342,655.957096601079 L 669.7757648579068,737.0629319805375 A 328,328 0 0,1 669.3583693798414,737.0942828010835 L 663.3179236311589,655.9806729713844 A 246.6617882883608,246.6617882883608 0 0 0 663.6318123965342,655.957096601079 Z "/><path class="wedge" fill="rgb(216,177,140)" d=" M 651.7155075482655,628.5846878893814 L 655.0722868245784,737.8453126676106 A 328,328 0 0,1 654.9673729933587,737.848519099311 L 651.6455582271486,628.5868257173306 A 218.68782275501553,218.68782275501553 0 0 0 651.7155075482655,628.5846878893814 Z "/><path class="wedge" fill="url(#hiddenPattern)" d=" M 651.7155075482655,628.5846878893814 L 655.0722868245784,737.8453126676106 A 328,328 0 0,1 654.9673729933587,737.848519099311 L 651.6455582271486,628.5868257173306 A 218.68782275501553,218.68782275501553 0 0 0 651.7155075482655,628.5846878893814 Z "/><path class="wedge" fill="rgb(213,171,130)" d=" M 649.7749782800962,608.7522341047444 L 652.8778539677782,737.9053818052738 A 328,328 0 0,1 652.7639632991244,737.9080982133406 L 649.7059460955252,608.7538805924264 A 198.80958472669897,198.80958472669897 0 0 0 649.7749782800962,608.7522341047444 Z "/><path class="wedge" fill="url(#hiddenPattern)" d=" M 649.7749782800962,608.7522341047444 L 652.8778539677782,737.9053818052738 A 328,328 0 0,1 652.7639632991244,737.9080982133406 L 649.7059460955252,608.7538805924264 A 198.80958472669897,198.80958472669897 0 0 0 649.7749782800962,608.7522341047444 Z "/><path class="wedge" fill="rgb(210,165,121)" d=" M 648.936258614089,582.4164819005247 L 652.486270916668,737.9145555594662 A 328,328 0 0,1 651.8195317215559,737.9290990246195 L 648.5856891611098,582.4241288105317 A 172.4614083290257,172.4614083290257 0 0 0 648.936258614089,582.4164819005247 Z "/><path class="wedge" fill="url(#hiddenPattern)" d=" M 648.936258614089,582.4164819005247 L 652.486270916668,737.9145555594662 A 328,328 0 0,1 651.8195317215559,737.9290990246195 L 648.5856891611098,582.4241288105317 A 172.4614083290257,172.4614083290257 0 0 0 648.936258614089,582.4164819005247 Z "/><path class="wedge" fill="rgb(207,159,111)" d=" M 647.4234237917398,545.8984150928516 L 650.8481671479525,737.9478600951828 A 328,328 0 0,1 650.8379284979487,737.9480425171841 L 647.4191809944007,545.8984906867611 A 135.92002136412196,135.92002136412196 0 0 0 647.4234237917398,545.8984150928516 Z "/><path class="wedge" fill="url(#hiddenPattern)" d=" M 647.4234237917398,545.8984150928516 L 650.8481671479525,737.9478600951828 A 328,328 0 0,1 650.8379284979487,737.9480425171841 L 647.4191809944007,545.8984906867611 A 135.92002136412196,135.92002136412196 0 0 0 647.4234237917398,545.8984150928516 Z "/><path class="wedge" fill="rgb(101,204,204)" d=" M 646.4585222506824,491.98702771075597 L 650.8340890027299,737.9481108430239 A 328,328 0 0,1 647.5562027660784,737.9900392198194 L 645.6390506915196,491.99750980495486 A 82,82 0 0 0 646.4585222506824,491.98702771075597 Z "/><path class="wedge" fill="url(#hiddenPattern)" d=" M 646.4585222506824,491.98702771075597 L 650.8340890027299,737.9481108430239 A 328,328 0 0,1 647.5562027660784,737.9900392198194 L 645.6390506915196,491.99750980495486 A 82,82 0 0 0 646.4585222506824,491.98702771075597 Z "/><rect fill="rgb(101,204,204)" x="1405.7" y="756.3666666666668" width="22" height="22"/><rect fill="url(#hiddenPattern)" style="stroke:none" x="1405.7" y="756.3666666666668" width="22" height="22"/><path class="line" d="M 649.1951982657114,737.9731701092505 L 649.8943979766632,792.635365127459 A 382.6666666666667,382.6666666666667 0 0,0 781.8314413186285,767.3666666666668 L 1041.3333333333333,767.3666666666668 L 1322.1401041666668,767.3666666666668"/><text x="1398.3666666666668" y="767.3666666666668" style="font-color:black;font-weight:normal" text-anchor="end">Viruses&#160;&#160;&#160;0.2%</text><circle cx="645" cy="410" r="82"/><circle cx="645" cy="410" r="328"/><text x="645" y="410" text-anchor="middle" style="font-color:black;font-weight:bold" transform="rotate(360,645,410)">all</text><rect fill="rgb(220,220,220)" x="1405.7" y="785.7" width="22" height="22"/><path class="line" d="M 646.2781110865694,737.9975097955019 L 646.5443842296047,806.3303243362315 A 396.3333333333333,396.3333333333333 0 0,0 731.8517191027964,796.7 L 1030.3333333333333,796.7 L 1313.3798502604168,796.7"/><text x="1398.3666666666668" y="796.7" style="font-color:black;font-weight:normal" text-anchor="end">[other all]&#160;&#160;&#160;0.1%</text><path class="line" d=" M 646.4585222506824,491.98702771075597 A 82,82 0 1 0 645,492"/><line x1="650.8340890027299" y1="737.9481108430239" x2="646.4585222506824" y2="491.98702771075597"/><text x="645" y="311.8239935907634" text-anchor="middle" style="font-color:black;font-weight:normal" transform="rotate(359.49041721764223,645,410)">cellular organisms</text><path class="line" d=" M 647.4234237917398,545.8984150928516 A 135.92002136412196,135.92002136412196 0 1 0 645,545.920021364122"/><line x1="650.8481671479525" y1="737.9478600951828" x2="647.4234237917398" y2="545.8984150928516"/><text x="645" y="263.11756254640693" text-anchor="middle" style="font-color:black;font-weight:normal" transform="rotate(359.4891874215462,645,410)">Bacteria</text><path class="line" d=" M 648.936258614089,582.4164819005247 A 172.4614083290257,172.4614083290257 0 1 0 645,582.4614083290257"/><line x1="652.486270916668" y1="737.9145555594662" x2="648.936258614089" y2="582.4164819005247"/><text x="645" y="224.36450347213767" text-anchor="middle" style="font-color:black;font-weight:normal" transform="rotate(359.34608387582045,645,410)">Terrabacteria group</text><path class="line" d=" M 649.7749782800962,608.7522341047444 A 198.80958472669897,198.80958472669897 0 1 0 645,608.809584726699"/><line x1="652.8778539677782" y1="737.9053818052738" x2="649.7749782800962" y2="608.7522341047444"/><text x="645" y="201.25129625914275" text-anchor="middle" style="font-color:black;font-weight:normal" transform="rotate(359.3118731844204,645,410)">Firmicutes</text><path class="line" d=" M 651.7155075482655,628.5846878893814 A 218.68782275501553,218.68782275501553 0 1 0 645,628.6878227550155"/><line x1="655.0722868245784" y1="737.8453126676106" x2="651.7155075482655" y2="628.5846878893814"/><text x="645" y="183.55118456018104" text-anchor="middle" style="font-color:black;font-weight:normal" transform="rotate(359.12013679307694,645,410)">Bacilli</text><path class="line" d=" M 788.8639421913701,594.8172079621661 A 234.20980812462236,234.20980812462236 0 1 0 645,644.2098081246223"/><line x1="846.4747948286654" y1="668.8279487395964" x2="788.8639421913701" y2="594.8172079621661"/><path class="line" d=" M 799.4603944312487,602.3123094181836 A 246.6617882883608,246.6617882883608 0 1 0 645,656.6617882883609"/><line x1="850.3946406738194" y1="665.7284528214892" x2="799.4603944312487" y2="602.3123094181836"/><path class="line" d=" M 806.686314143166,609.5993197851964 A 256.87030314910993,256.87030314910993 0 1 0 645,666.87030314911"/><line x1="851.4587084952883" y1="664.8701663326988" x2="806.686314143166" y2="609.5993197851964"/><path class="line" d=" M 816.4951555843156,612.5374100655193 A 265.3902614357523,265.3902614357523 0 1 0 645,675.3902614357523"/><line x1="856.9535612472844" y1="660.3191720076464" x2="816.4951555843156" y2="612.5374100655193"/><text x="348.30486928212383" y="410" text-anchor="end" style="font-color:black;font-weight:normal" transform="rotate(69.87215089473877,645,410)">Enterococcus faecalis&#160;&#160;&#160;89%</text><path class="line" d=" M 500.29827941211744,641.0334363986964 A 272.6078441191378,272.6078441191378 0 0 0 645,682.6078441191378"/><line x1="470.8958229680174" y1="687.9779407435346" x2="500.29827941211744" y2="641.0334363986964"/><text x="344.6960779404311" y="410" text-anchor="end" style="font-color:black;font-weight:normal" transform="rotate(-73.97005508616958,645,410)">Enterococcus faecalis V583&#160;&#160;&#160;9%</text><path class="line" d=" M 437.8208354773254,587.1773982848 A 272.6078441191378,272.6078441191378 0 0 0 500.29827941211744,641.0334363986964"/><line x1="395.7233653418314" y1="623.1787030017256" x2="437.8208354773254" y2="587.1773982848"/><text x="344.6960779404311" y="410" text-anchor="end" style="font-color:black;font-weight:normal" transform="rotate(-49.23840839540801,645,410)">Enterococcus faecalis str. Symbioflor 1&#160;&#160;&#160;5%</text><path class="line" d=" M 399.5409354940889,528.5954650362613 A 272.6078441191378,272.6078441191378 0 0 0 437.8208354773254,587.1773982848"/><line x1="349.665236548537" y1="552.6932987111462" x2="399.5409354940889" y2="528.5954650362613"/><text x="344.6960779404311" y="410" text-anchor="end" style="font-color:black;font-weight:normal" transform="rotate(-33.162290228151996,645,410)">Enterococcus faecalis OG1RF&#160;&#160;&#160;4%</text><path class="line" d=" M 377.5120908536003,462.5856932613002 A 272.6078441191378,272.6078441191378 0 0 0 399.5409354940889,528.5954650362613"/><line x1="323.16027274080994" y1="473.2707670076013" x2="377.5120908536003" y2="462.5856932613002"/><text x="344.6960779404311" y="410" text-anchor="end" style="font-color:black;font-weight:normal" transform="rotate(-18.454935115833734,645,410)">Enterococcus faecalis D32&#160;&#160;&#160;4%</text><path class="line" d=" M 816.1027906369616,612.8689870364149 A 265.3902614357523,265.3902614357523 0 0 0 816.4951555843156,612.5374100655193"/><line x1="856.4686312350228" y1="660.7289732033096" x2="816.1027906369616" y2="612.8689870364149"/><path class="line" d=" M 806.6535962775724,609.625818596802 A 256.87030314910993,256.87030314910993 0 0 0 806.686314143166,609.5993197851964"/><line x1="851.4169307584962" y1="664.9040029035289" x2="806.6535962775724" y2="609.625818596802"/><path class="line" d=" M 797.9305232050262,603.5311160352492 A 246.6617882883608,246.6617882883608 0 0 0 799.4603944312487,602.3123094181836"/><line x1="848.3602851877789" y1="667.3491682682213" x2="797.9305232050262" y2="603.5311160352492"/><path class="line" d=" M 662.2756138002705,643.5718034986165 A 234.20980812462236,234.20980812462236 0 0 0 788.8639421913701,594.8172079621661"/><line x1="669.1936978295703" y1="737.1065040400931" x2="662.2756138002705" y2="643.5718034986165"/><path class="line" d=" M 663.6318123965342,655.957096601079 A 246.6617882883608,246.6617882883608 0 0 0 796.5126011813086,604.6431850460885"/><line x1="669.7757648579068" y1="737.0629319805375" x2="663.6318123965342" y2="655.957096601079"/><path class="line" d=" M 664.6348168679637,666.1187744123363 A 256.87030314910993,256.87030314910993 0 0 0 802.7832061723902,612.6988221225683"/><line x1="670.0718742249999" y1="737.0403661978835" x2="664.6348168679637" y2="666.1187744123363"/><path class="line" d=" M 673.761671165845,673.8271349514389 A 265.3902614357523,265.3902614357523 0 0 0 808.0166111960185,619.4220029965884"/><line x1="680.5470019561399" y1="736.0681073823844" x2="673.761671165845" y2="673.8271349514389"/><text x="941.6951307178762" y="410" text-anchor="start" style="font-color:black;font-weight:normal" transform="rotate(427.94036482708634,645,410)">9%&#160;&#160;&#160;Staphylococcus epidermidis</text><path class="line" d=" M 795.991048156241,636.972994102743 A 272.6078441191378,272.6078441191378 0 0 0 812.4500288493539,625.1174667795125"/><line x1="826.6714554024468" y1="683.0924427587787" x2="795.991048156241" y2="636.972994102743"/><text x="945.3039220595689" y="410" text-anchor="start" style="font-color:black;font-weight:normal" transform="rotate(414.2345109355581,645,410)">1%&#160;&#160;&#160;Staphylococcus epidermidis RP62A</text><path class="line" d=" M 782.7821970292224,645.2256424310169 A 272.6078441191378,272.6078441191378 0 0 0 795.991048156241,636.972994102743"/><line x1="810.7786509101127" y1="693.0219760061451" x2="782.7821970292224" y2="645.2256424310169"/><text x="945.3039220595689" y="410" text-anchor="start" style="font-color:black;font-weight:normal" transform="rotate(418.0036123707549,645,410)">0.9%&#160;&#160;&#160;Staphylococcus epidermidis ATCC 12228</text><path class="line" d=" M 670.6751030834535,674.145376538358 A 265.3902614357523,265.3902614357523 0 0 0 673.761671165845,673.8271349514389"/><line x1="676.732263896245" y1="736.4614271671603" x2="670.6751030834535" y2="674.145376538358"/><path class="line" d=" M 664.6178250741852,666.1200764861558 A 256.87030314910993,256.87030314910993 0 0 0 664.6348168679637,666.1187744123363"/><line x1="670.0501772507253" y1="737.0420288276528" x2="664.6178250741852" y2="666.1200764861558"/><path class="line" d=" M 663.3179236311589,655.9806729713844 A 246.6617882883608,246.6617882883608 0 0 0 663.6318123965342,655.957096601079"/><line x1="669.3583693798414" y1="737.0942828010835" x2="663.3179236311589" y2="655.9806729713844"/><path class="line" d=" M 651.6455582271486,628.5868257173306 A 218.68782275501553,218.68782275501553 0 0 0 651.7155075482655,628.5846878893814"/><line x1="654.9673729933587" y1="737.848519099311" x2="651.6455582271486" y2="628.5868257173306"/><path class="line" d=" M 649.7059460955252,608.7538805924264 A 198.80958472669897,198.80958472669897 0 0 0 649.7749782800962,608.7522341047444"/><line x1="652.7639632991244" y1="737.9080982133406" x2="649.7059460955252" y2="608.7538805924264"/><path class="line" d=" M 648.5856891611098,582.4241288105317 A 172.4614083290257,172.4614083290257 0 0 0 648.936258614089,582.4164819005247"/><line x1="651.8195317215559" y1="737.9290990246195" x2="648.5856891611098" y2="582.4241288105317"/><path class="line" d=" M 647.4191809944007,545.8984906867611 A 135.92002136412196,135.92002136412196 0 0 0 647.4234237917398,545.8984150928516"/><line x1="650.8379284979487" y1="737.9480425171841" x2="647.4191809944007" y2="545.8984906867611"/><path class="line" d=" M 645.6390506915196,491.99750980495486 A 82,82 0 0 0 646.4585222506824,491.98702771075597"/><line x1="647.5562027660784" y1="737.9900392198194" x2="645.6390506915196" y2="491.99750980495486"/></svg>