<?xml version="1.0" standalone="no"?><!DOCTYPE svg PUBLIC "-//W3C//DTD SVG 1.1//EN" 	"http://www.w3.org/Graphics/SVG/1.1/DTD/svg11.dtd"><svg width="1440" height="820" version="1.1"	xmlns="http://www.w3.org/2000/svg"><title>Krona (snapshot) - all</title><defs>	<style type="text/css">	text {font-size: 11px; font-family: sans-serif; dominant-baseline:central}	path {stroke-width:0.27499999999999997;}	path.wedge {stroke:none}	path.line {fill:none;stroke:black;}	line {stroke:black;stroke-width:0.27499999999999997;}	line.tick {stroke-width:0.5499999999999999;}	line.pattern {stroke-width:0.18333333333333332;}	circle {fill:none;stroke:black;stroke-width:0.27499999999999997;}	rect {stroke:black;stroke-width:0.27499999999999997;}	.highlight {stroke:black;stroke-width:1.375;}	.searchHighlight {fill:rgb(255, 255, 100);stroke:none;}	</style><pattern id="hiddenPattern" patternUnits="userSpaceOnUse" x="0" y="0" width="6.6" height="6.6"><line class="pattern" x1="0" y1="0" x2="3.3" y2="3.3"/><line class="pattern" x1="3.3" y1="6.6" x2="6.6" y2="3.3"/></pattern></defs><path class="wedge" fill="rgb(220,220,220)" d=" M 645.6451384366599,491.9974621338828 L 647.5805537466393,737.9898485355312 A 328,328 0 0,1 645.0000000000001,738 L 645,492 A 82,82 0 0 0 645.6451384366599,491.9974621338828 Z "/><path class="wedge" fill="rgb(207,111,111)" d=" M 645,492 L 645,738 A 328,328 0 1,1 650.8797758002614,737.9472949065728 L 646.4699439500654,491.9868237266432 A 82,82 0 1 0 645,492 Z "/><path class="wedge" fill="rgb(207,111,111)" d=" M 647.4386124247538,545.8981433907954 L 650.8848201117956,737.9472044281698 A 328,328 0 0,1 650.8797758002614,737.9472949065728 L 647.4365221109383,545.8981808841688 A 135.92002136412196,135.92002136412196 0 0 0 647.4386124247538,545.8981433907954 Z "/><path class="wedge" fill="rgb(210,121,121)" d=" M 645,545.920021364122 L 645,738 A 328,328 0 1,1 650.9075194964516,737.9467963151935 L 647.4480188297765,545.8979742727331 A 135.92002136412196,135.92002136412196 0 1 0 645,545.920021364122 Z "/><path class="wedge" fill="rgb(210,121,121)" d=" M 648.455587174736,582.4267852745296 L 651.5720940371253,737.9341512864544 A 328,328 0 0,1 650.9075194964516,737.9467963151935 L 648.106155890516,582.4334339924098 A 172.4614083290257,172.4614083290257 0 0 0 648.455587174736,582.4267852745296 Z "/><path class="wedge" fill="rgb(213,130,130)" d=" M 645,582.4614083290257 L 645,738 A 328,328 0 1,1 652.3450849294684,737.9177484177685 L 648.8620234488793,582.4181606957667 A 172.4614083290257,172.4614083290257 0 1 0 645,582.4614083290257 Z "/><path class="wedge" fill="rgb(213,130,130)" d=" M 649.572047656479,608.7570058121962 L 652.5430549959985,737.9132542629641 A 328,328 0 0,1 652.3450849294684,737.9177484177685 L 649.4520526969816,608.7597298397886 A 198.80958472669897,198.80958472669897 0 0 0 649.572047656479,608.7570058121962 Z "/><path class="wedge" fill="rgb(216,140,140)" d=" M 645,608.809584726699 L 645,738 A 328,328 0 1,1 652.8368526170067,737.9063642887392 L 649.7501262632666,608.7528296142863 A 198.80958472669897,198.80958472669897 0 1 0 645,608.809584726699 Z "/><path class="wedge" fill="rgb(216,140,140)" d=" M 651.4086902314182,628.5938986130373 L 654.612105372049,737.8591274165119 A 328,328 0 0,1 652.8368526170067,737.9063642887392 L 650.2250738904426,628.6253929079797 A 218.68782275501553,218.68782275501553 0 0 0 651.4086902314182,628.5938986130373 Z "/><path class="wedge" fill="rgb(219,149,149)" d=" M 645,628.6878227550155 L 645,738 A 328,328 0 1,1 654.852903910834,737.8519792292307 L 651.5692381221788,628.5891326937897 A 218.68782275501553,218.68782275501553 0 1 0 645,628.6878227550155 Z "/><path class="wedge" fill="rgb(219,149,149)" d=" M 661.9250508746121,643.5974676118391 L 668.7027506718202,737.1424454432496 A 328,328 0 0,1 654.852903910834,737.8519792292307 L 652.035508336667,644.104113257792 A 234.20980812462236,234.20980812462236 0 0 0 661.9250508746121,643.5974676118391 Z "/><path class="wedge" fill="rgb(223,159,159)" d=" M 645,644.2098081246223 L 645,738 A 328,328 0 1,1 860.7293166943018,657.0725843119985 L 799.0424447250864,586.4232395261212 A 234.20980812462236,234.20980812462236 0 1 0 645,644.2098081246223 Z "/><path class="wedge" fill="rgb(223,159,159)" d=" M 808.4497887107776,594.732791815677 L 862.3483419104232,655.6495435957286 A 328,328 0 0,1 860.7293166943018,657.0725843119985 L 807.2322531769593,595.8029435470255 A 246.6617882883608,246.6617882883608 0 0 0 808.4497887107776,594.732791815677 Z "/><path class="wedge" fill="rgb(226,168,168)" d=" M 645,656.6617882883609 L 645,738 A 328,328 0 1,1 864.4533735385451,653.7708285307162 L 810.0328096430828,593.3199649326884 A 246.6617882883608,246.6617882883608 0 1 0 645,656.6617882883609 Z "/><path class="wedge" fill="rgb(226,168,168)" d=" M 817.52263757058,600.311040577277 L 865.2957073255055,653.0098790871581 A 328,328 0 0,1 864.4533735385451,653.7708285307162 L 816.8629713046979,600.9069714133987 A 256.87030314910993,256.87030314910993 0 0 0 817.52263757058,600.311040577277 Z "/><path class="wedge" fill="rgb(229,178,178)" d=" M 645,666.87030314911 L 645,738 A 328,328 0 1,1 865.3405577692945,652.969213280029 L 817.5577617995202,600.2791935095786 A 256.87030314910993,256.87030314910993 0 1 0 645,666.87030314911 Z "/><path class="wedge" fill="rgb(229,178,178)" d=" M 827.1050627273773,603.053715307411 L 870.0665124313152,648.5981244310285 A 328,328 0 0,1 865.3405577692945,652.969213280029 L 823.2812141197943,606.5904360769084 A 265.3902614357523,265.3902614357523 0 0 0 827.1050627273773,603.053715307411 Z "/><path class="wedge" fill="rgb(229,178,178)" d=" M 645,675.3902614357523 L 645,738 A 328,328 0 1,1 870.5422451547131,648.148473962298 L 827.4899859951702,602.6898956261576 A 265.3902614357523,265.3902614357523 0 1 0 645,675.3902614357523 Z "/><path class="wedge" fill="rgb(229,178,178)" d=" M 374.07780845734084,440.26884214843403 L 319.02816630926935,446.4192756696592 A 328,328 0 1,1 870.5422451547131,648.148473962298 L 832.4530036872451,607.9303111802581 A 272.6078441191378,272.6078441191378 0 1 0 374.07780845734084,440.26884214843403 Z "/><path class="wedge" fill="rgb(229,178,178)" d=" M 645,682.6078441191378 L 645,738 A 328,328 0 0,1 462.5789316124626,682.592284939155 L 493.38593239318186,636.5573021974778 A 272.6078441191378,272.6078441191378 0 0 0 645,682.6078441191378 Z "/><path class="wedge" fill="rgb(229,180,178)" d=" M 493.38593239318186,636.5573021974778 L 462.5789316124626,682.592284939155 A 328,328 0 0,1 385.34096252025864,610.4025555103883 L 429.1917975201137,576.5588677245512 A 272.6078441191378,272.6078441191378 0 0 0 493.38593239318186,636.5573021974778 Z "/><path class="wedge" fill="rgb(229,181,178)" d=" M 429.1917975201137,576.5588677245512 L 385.34096252025864,610.4025555103883 A 328,328 0 0,1 340.8158304458257,532.7028564974644 L 392.1860040325191,511.98097919827353 A 272.6078441191378,272.6078441191378 0 0 0 429.1917975201137,576.5588677245512 Z "/><path class="wedge" fill="rgb(229,182,178)" d=" M 392.1860040325191,511.98097919827353 L 340.8158304458257,532.7028564974644 A 328,328 0 0,1 319.02816630926935,446.4192756696592 L 374.07780845734084,440.26884214843403 A 272.6078441191378,272.6078441191378 0 0 0 392.1860040325191,511.98097919827353 Z "/><path class="wedge" fill="rgb(229,199,178)" d=" M 827.4899859951702,602.6898956261576 L 870.5422451547131,648.148473962298 A 328,328 0 0,1 870.0665124313152,648.5981244310285 L 827.1050627273773,603.053715307411 A 265.3902614357523,265.3902614357523 0 0 0 827.4899859951702,602.6898956261576 Z "/><path class="wedge" fill="url(#hiddenPattern)" d=" M 827.4899859951702,602.6898956261576 L 870.5422451547131,648.148473962298 A 328,328 0 0,1 870.0665124313152,648.5981244310285 L 827.1050627273773,603.053715307411 A 265.3902614357523,265.3902614357523 0 0 0 827.4899859951702,602.6898956261576 Z "/><path class="wedge" fill="rgb(226,192,168)" d=" M 817.5577617995202,600.2791935095786 L 865.3405577692945,652.969213280029 A 328,328 0 0,1 865.2957073255055,653.0098790871581 L 817.52263757058,600.311040577277 A 256.87030314910993,256.87030314910993 0 0 0 817.5577617995202,600.2791935095786 Z "/><path class="wedge" fill="url(#hiddenPattern)" d=" M 817.5577617995202,600.2791935095786 L 865.3405577692945,652.969213280029 A 328,328 0 0,1 865.2957073255055,653.0098790871581 L 817.52263757058,600.311040577277 A 256.87030314910993,256.87030314910993 0 0 0 817.5577617995202,600.2791935095786 Z "/><path class="wedge" fill="rgb(223,186,159)" d=" M 810.0328096430828,593.3199649326884 L 864.4533735385451,653.7708285307162 A 328,328 0 0,1 862.3483419104232,655.6495435957286 L 808.4497887107776,594.732791815677 A 246.6617882883608,246.6617882883608 0 0 0 810.0328096430828,593.3199649326884 Z "/><path class="wedge" fill="url(#hiddenPattern)" d=" M 810.0328096430828,593.3199649326884 L 864.4533735385451,653.7708285307162 A 328,328 0 0,1 862.3483419104232,655.6495435957286 L 808.4497887107776,594.732791815677 A 246.6617882883608,246.6617882883608 0 0 0 810.0328096430828,593.3199649326884 Z "/><path class="wedge" fill="rgb(223,186,159)" d=" M 799.0424447250864,586.4232395261212 L 860.7293166943018,657.0725843119985 A 328,328 0 0,1 668.7027506718202,737.1424454432496 L 661.9250508746121,643.5974676118391 A 234.20980812462236,234.20980812462236 0 0 0 799.0424447250864,586.4232395261212 Z "/><path class="wedge" fill="rgb(223,186,159)" d=" M 662.9554357963298,656.0073985208087 L 668.8763489961856,737.129821261548 A 328,328 0 0,1 668.7027506718202,737.1424454432496 L 662.824886792879,656.01689212823 A 246.6617882883608,246.6617882883608 0 0 0 662.9554357963298,656.0073985208087 Z "/><path class="wedge" fill="rgb(226,193,168)" d=" M 807.2322531769593,595.8029435470255 L 860.7293166943018,657.0725843119985 A 328,328 0 0,1 669.4926941865683,737.0842520383444 L 663.4189382562771,655.9731296607895 A 246.6617882883608,246.6617882883608 0 0 0 807.2322531769593,595.8029435470255 Z "/><path class="wedge" fill="rgb(226,193,168)" d=" M 664.3930062271018,666.1371975121756 L 669.7631040431986,737.0638908197384 A 328,328 0 0,1 669.4926941865683,737.0842520383444 L 664.1812371361044,666.1531432206995 A 256.87030314910993,256.87030314910993 0 0 0 664.3930062271018,666.1371975121756 Z "/><path class="wedge" fill="rgb(229,200,178)" d=" M 813.9465090774868,603.4927122928569 L 860.7293166943018,657.0725843119985 A 328,328 0 0,1 669.7844845680125,737.0622713256574 L 664.4097501962799,666.1359292196892 A 256.87030314910993,256.87030314910993 0 0 0 813.9465090774868,603.4927122928569 Z "/><path class="wedge" fill="rgb(229,200,178)" d=" M 671.001971890514,674.1134004982364 L 677.136246198142,736.4219074760338 A 328,328 0 0,1 669.7844845680125,737.0622713256574 L 665.0535391434611,674.6315295514853 A 265.3902614357523,265.3902614357523 0 0 0 671.001971890514,674.1134004982364 Z "/><path class="wedge" fill="rgb(229,200,178)" d=" M 819.5501821855396,609.910541902952 L 860.7293166943018,657.0725843119985 A 328,328 0 0,1 681.7119489222271,735.9390016649309 L 674.7042491533105,673.7226733657442 A 265.3902614357523,265.3902614357523 0 0 0 819.5501821855396,609.910541902952 Z "/><path class="wedge" fill="rgb(229,200,178)" d=" M 792.1368019809994,639.490300836633 L 822.0340512603751,686.1212499869195 A 328,328 0 0,1 681.7119489222271,735.9390016649309 L 675.512089174086,680.8949041409173 A 272.6078441191378,272.6078441191378 0 0 0 792.1368019809994,639.490300836633 Z "/><path class="wedge" fill="rgb(229,200,178)" d=" M 824.2972681016108,615.347330945847 L 860.7293166943018,657.0725843119985 A 328,328 0 0,1 839.3512220615436,674.2188533832978 L 806.5294745369428,629.5979634038151 A 272.6078441191378,272.6078441191378 0 0 0 824.2972681016108,615.347330945847 Z "/><path class="wedge" fill="rgb(229,200,178)" d=" M 806.5294745369428,629.5979634038151 L 839.3512220615436,674.2188533832978 A 328,328 0 0,1 822.0340512603751,686.1212499869195 L 792.1368019809994,639.490300836633 A 272.6078441191378,272.6078441191378 0 0 0 806.5294745369428,629.5979634038151 Z "/><path class="wedge" fill="rgb(229,202,178)" d=" M 674.7042491533105,673.7226733657442 L 681.7119489222271,735.9390016649309 A 328,328 0 0,1 677.136246198142,736.4219074760338 L 671.001971890514,674.1134004982364 A 265.3902614357523,265.3902614357523 0 0 0 674.7042491533105,673.7226733657442 Z "/><path class="wedge" fill="url(#hiddenPattern)" d=" M 674.7042491533105,673.7226733657442 L 681.7119489222271,735.9390016649309 A 328,328 0 0,1 677.136246198142,736.4219074760338 L 671.001971890514,674.1134004982364 A 265.3902614357523,265.3902614357523 0 0 0 674.7042491533105,673.7226733657442 Z "/><path class="wedge" fill="rgb(226,196,168)" d=" M 664.4097501962799,666.1359292196892 L 669.7844845680125,737.0622713256574 A 328,328 0 0,1 669.7631040431986,737.0638908197384 L 664.3930062271018,666.1371975121756 A 256.87030314910993,256.87030314910993 0 0 0 664.4097501962799,666.1359292196892 Z "/><path class="wedge" fill="url(#hiddenPattern)" d=" M 664.4097501962799,666.1359292196892 L 669.7844845680125,737.0622713256574 A 328,328 0 0,1 669.7631040431986,737.0638908197384 L 664.3930062271018,666.1371975121756 A 256.87030314910993,256.87030314910993 0 0 0 664.4097501962799,666.1359292196892 Z "/><path class="wedge" fill="rgb(223,189,159)" d=" M 663.4189382562771,655.9731296607895 L 669.4926941865683,737.0842520383444 A 328,328 0 0,1 668.8763489961856,737.129821261548 L 662.9554357963298,656.0073985208087 A 246.6617882883608,246.6617882883608 0 0 0 663.4189382562771,655.9731296607895 Z "/><path class="wedge" fill="url(#hiddenPattern)" d=" M 663.4189382562771,655.9731296607895 L 669.4926941865683,737.0842520383444 A 328,328 0 0,1 668.8763489961856,737.129821261548 L 662.9554357963298,656.0073985208087 A 246.6617882883608,246.6617882883608 0 0 0 663.4189382562771,655.9731296607895 Z "/><path class="wedge" fill="rgb(216,177,140)" d=" M 651.5692381221788,628.5891326937897 L 654.852903910834,737.8519792292307 A 328,328 0 0,1 654.612105372049,737.8591274165119 L 651.4086902314182,628.5938986130373 A 218.68782275501553,218.68782275501553 0 0 0 651.5692381221788,628.5891326937897 Z "/><path class="wedge" fill="url(#hiddenPattern)" d=" M 651.5692381221788,628.5891326937897 L 654.852903910834,737.8519792292307 A 328,328 0 0,1 654.612105372049,737.8591274165119 L 651.4086902314182,628.5938986130373 A 218.68782275501553,218.68782275501553 0 0 0 651.5692381221788,628.5891326937897 Z "/><path class="wedge" fill="rgb(213,171,130)" d=" M 649.7501262632666,608.7528296142863 L 652.8368526170067,737.9063642887392 A 328,328 0 0,1 652.5430549959985,737.9132542629641 L 649.572047656479,608.7570058121962 A 198.80958472669897,198.80958472669897 0 0 0 649.7501262632666,608.7528296142863 Z "/><path class="wedge" fill="url(#hiddenPattern)" d=" M 649.7501262632666,608.7528296142863 L 652.8368526170067,737.9063642887392 A 328,328 0 0,1 652.5430549959985,737.9132542629641 L 649.572047656479,608.7570058121962 A 198.80958472669897,198.80958472669897 0 0 0 649.7501262632666,608.7528296142863 Z "/><path class="wedge" fill="rgb(210,165,121)" d=" M 648.8620234488793,582.4181606957667 L 652.3450849294684,737.9177484177685 A 328,328 0 0,1 651.5720940371253,737.9341512864544 L 648.455587174736,582.4267852745296 A 172.4614083290257,172.4614083290257 0 0 0 648.8620234488793,582.4181606957667 Z "/><path class="wedge" fill="url(#hiddenPattern)" d=" M 648.8620234488793,582.4181606957667 L 652.3450849294684,737.9177484177685 A 328,328 0 0,1 651.5720940371253,737.9341512864544 L 648.455587174736,582.4267852745296 A 172.4614083290257,172.4614083290257 0 0 0 648.8620234488793,582.4181606957667 Z "/><path class="wedge" fill="rgb(207,159,111)" d=" M 647.4480188297765,545.8979742727331 L 650.9075194964516,737.9467963151935 A 328,328 0 0,1 650.8848201117956,737.9472044281698 L 647.4386124247538,545.8981433907954 A 135.92002136412196,135.92002136412196 0 0 0 647.4480188297765,545.8979742727331 Z "/><path class="wedge" fill="url(#hiddenPattern)" d=" M 647.4480188297765,545.8979742727331 L 650.9075194964516,737.9467963151935 A 328,328 0 0,1 650.8848201117956,737.9472044281698 L 647.4386124247538,545.8981433907954 A 135.92002136412196,135.92002136412196 0 0 0 647.4480188297765,545.8979742727331 Z "/><path class="wedge" fill="rgb(101,204,204)" d=" M 646.4699439500654,491.9868237266432 L 650.8797758002614,737.9472949065728 A 328,328 0 0,1 647.5805537466393,737.9898485355312 L 645.6451384366599,491.9974621338828 A 82,82 0 0 0 646.4699439500654,491.9868237266432 Z "/><path class="wedge" fill="url(#hiddenPattern)" d=" M 646.4699439500654,491.9868237266432 L 650.8797758002614,737.9472949065728 A 328,328 0 0,1 647.5805537466393,737.9898485355312 L 645.6451384366599,491.9974621338828 A 82,82 0 0 0 646.4699439500654,491.9868237266432 Z "/><rect fill="rgb(101,204,204)" x="1405.7" y="756.3666666666668" width="22" height="22"/><rect fill="url(#hiddenPattern)" style="stroke:none" x="1405.7" y="756.3666666666668" width="22" height="22"/><path class="line" d="M 649.2302182820008,737.9727202882682 L 649.9352546623343,792.6348403363129 A 382.6666666666667,382.6666666666667 0 0,0 781.8314413186285,767.3666666666668 L 1041.3333333333333,767.3666666666668 L 1322.1401041666668,767.3666666666668"/><text x="1398.3666666666668" y="767.3666666666668" style="font-color:black;font-weight:normal" text-anchor="end">Viruses&#160;&#160;&#160;0.2%</text><circle cx="645" cy="410" r="82"/><circle cx="645" cy="410" r="328"/><text x="645" y="410" text-anchor="middle" style="font-color:black;font-weight:bold" transform="rotate(360,645,410)">all</text><rect fill="rgb(220,220,220)" x="1405.7" y="785.7" width="22" height="22"/><path class="line" d="M 646.2902868568195,737.9974621240644 L 646.5590966186569,806.3302667332446 A 396.3333333333333,396.3333333333333 0 0,0 731.8517191027964,796.7 L 1030.3333333333333,796.7 L 1313.3798502604168,796.7"/><text x="1398.3666666666668" y="796.7" style="font-color:black;font-weight:normal" text-anchor="end">[other all]&#160;&#160;&#160;0.1%</text><path class="line" d=" M 646.4699439500654,491.9868237266432 A 82,82 0 1 0 645,492"/><line x1="650.8797758002614" y1="737.9472949065728" x2="646.4699439500654" y2="491.9868237266432"/><text x="645" y="311.8239935907634" text-anchor="middle" style="font-color:black;font-weight:normal" transform="rotate(359.48642624491873,645,410)">cellular organisms</text><path class="line" d=" M 647.4480188297765,545.8979742727331 A 135.92002136412196,135.92002136412196 0 1 0 645,545.920021364122"/><line x1="650.9075194964516" y1="737.9467963151935" x2="647.4480188297765" y2="545.8979742727331"/><text x="645" y="263.11756254640693" text-anchor="middle" style="font-color:black;font-weight:normal" transform="rotate(359.484002687945,645,410)">Bacteria</text><path class="line" d=" M 648.8620234488793,582.4181606957667 A 172.4614083290257,172.4614083290257 0 1 0 645,582.4614083290257"/><line x1="652.3450849294684" y1="737.9177484177685" x2="648.8620234488793" y2="582.4181606957667"/><text x="645" y="224.36450347213767" text-anchor="middle" style="font-color:black;font-weight:normal" transform="rotate(359.35841837203066,645,410)">Terrabacteria group</text><path class="line" d=" M 649.7501262632666,608.7528296142863 A 198.80958472669897,198.80958472669897 0 1 0 645,608.809584726699"/><line x1="652.8368526170067" y1="737.9063642887392" x2="649.7501262632666" y2="608.7528296142863"/><text x="645" y="201.25129625914275" text-anchor="middle" style="font-color:black;font-weight:normal" transform="rotate(359.3154553165863,645,410)">Firmicutes</text><path class="line" d=" M 651.5692381221788,628.5891326937897 A 218.68782275501553,218.68782275501553 0 1 0 645,628.6878227550155"/><line x1="654.852903910834" y1="737.8519792292307" x2="651.5692381221788" y2="628.5891326937897"/><text x="645" y="183.55118456018104" text-anchor="middle" style="font-color:black;font-weight:normal" transform="rotate(359.13930678926437,645,410)">Bacilli</text><path class="line" d=" M 799.0424447250864,586.4232395261212 A 234.20980812462236,234.20980812462236 0 1 0 645,644.2098081246223"/><line x1="860.7293166943018" y1="657.0725843119985" x2="799.0424447250864" y2="586.4232395261212"/><path class="line" d=" M 810.0328096430828,593.3199649326884 A 246.6617882883608,246.6617882883608 0 1 0 645,656.6617882883609"/><line x1="864.4533735385451" y1="653.7708285307162" x2="810.0328096430828" y2="593.3199649326884"/><path class="line" d=" M 817.5577617995202,600.2791935095786 A 256.87030314910993,256.87030314910993 0 1 0 645,666.87030314911"/><line x1="865.3405577692945" y1="652.969213280029" x2="817.5577617995202" y2="600.2791935095786"/><path class="line" d=" M 827.4899859951702,602.6898956261576 A 265.3902614357523,265.3902614357523 0 1 0 645,675.3902614357523"/><line x1="870.5422451547131" y1="648.148473962298" x2="827.4899859951702" y2="602.6898956261576"/><text x="348.30486928212383" y="410" text-anchor="end" style="font-color:black;font-weight:normal" transform="rotate(68.27865029908897,645,410)">Enterococcus faecalis&#160;&#160;&#160;88%</text><path class="line" d=" M 493.38593239318186,636.5573021974778 A 272.6078441191378,272.6078441191378 0 0 0 645,682.6078441191378"/><line x1="462.5789316124626" y1="682.592284939155" x2="493.38593239318186" y2="636.5573021974778"/><text x="344.6960779404311" y="410" text-anchor="end" style="font-color:black;font-weight:normal" transform="rotate(-73.10461320397904,645,410)">Enterococcus faecalis V583&#160;&#160;&#160;9%</text><path class="line" d=" M 429.1917975201137,576.5588677245512 A 272.6078441191378,272.6078441191378 0 0 0 493.38593239318186,636.5573021974778"/><line x1="385.34096252025864" y1="610.4025555103883" x2="429.1917975201137" y2="576.5588677245512"/><text x="344.6960779404311" y="410" text-anchor="end" style="font-color:black;font-weight:normal" transform="rotate(-46.934934839365916,645,410)">Enterococcus faecalis str. Symbioflor 1&#160;&#160;&#160;5%</text><path class="line" d=" M 392.1860040325191,511.98097919827353 A 272.6078441191378,272.6078441191378 0 0 0 429.1917975201137,576.5588677245512"/><line x1="340.8158304458257" y1="532.7028564974644" x2="392.1860040325191" y2="511.98097919827353"/><text x="344.6960779404311" y="410" text-anchor="end" style="font-color:black;font-weight:normal" transform="rotate(-29.814487729824823,645,410)">Enterococcus faecalis OG1RF&#160;&#160;&#160;4%</text><path class="line" d=" M 374.07780845734084,440.26884214843403 A 272.6078441191378,272.6078441191378 0 0 0 392.1860040325191,511.98097919827353"/><line x1="319.02816630926935" y1="446.4192756696592" x2="374.07780845734084" y2="440.26884214843403"/><text x="344.6960779404311" y="410" text-anchor="end" style="font-color:black;font-weight:normal" transform="rotate(-14.171639242528288,645,410)">Enterococcus faecalis D32&#160;&#160;&#160;4%</text><path class="line" d=" M 827.1050627273773,603.053715307411 A 265.3902614357523,265.3902614357523 0 0 0 827.4899859951702,602.6898956261576"/><line x1="870.0665124313152" y1="648.5981244310285" x2="827.1050627273773" y2="603.053715307411"/><path class="line" d=" M 817.52263757058,600.311040577277 A 256.87030314910993,256.87030314910993 0 0 0 817.5577617995202,600.2791935095786"/><line x1="865.2957073255055" y1="653.0098790871581" x2="817.52263757058" y2="600.311040577277"/><path class="line" d=" M 808.4497887107776,594.732791815677 A 246.6617882883608,246.6617882883608 0 0 0 810.0328096430828,593.3199649326884"/><line x1="862.3483419104232" y1="655.6495435957286" x2="808.4497887107776" y2="594.732791815677"/><path class="line" d=" M 661.9250508746121,643.5974676118391 A 234.20980812462236,234.20980812462236 0 0 0 799.0424447250864,586.4232395261212"/><line x1="668.7027506718202" y1="737.1424454432496" x2="661.9250508746121" y2="643.5974676118391"/><path class="line" d=" M 663.4189382562771,655.9731296607895 A 246.6617882883608,246.6617882883608 0 0 0 807.2322531769593,595.8029435470255"/><line x1="669.4926941865683" y1="737.0842520383444" x2="663.4189382562771" y2="655.9731296607895"/><path class="line" d=" M 664.4097501962799,666.1359292196892 A 256.87030314910993,256.87030314910993 0 0 0 813.9465090774868,603.4927122928569"/><line x1="669.7844845680125" y1="737.0622713256574" x2="664.4097501962799" y2="666.1359292196892"/><path class="line" d=" M 674.7042491533105,673.7226733657442 A 265.3902614357523,265.3902614357523 0 0 0 819.5501821855396,609.910541902952"/><line x1="681.7119489222271" y1="735.9390016649309" x2="674.7042491533105" y2="673.7226733657442"/><text x="941.6951307178762" y="410" text-anchor="start" style="font-color:black;font-weight:normal" transform="rotate(426.2240247937222,645,410)">10%&#160;&#160;&#160;Staphylococcus epidermidis</text><path class="line" d=" M 806.5294745369428,629.5979634038151 A 272.6078441191378,272.6078441191378 0 0 0 824.2972681016108,615.347330945847"/><line x1="839.3512220615436" y1="674.2188533832978" x2="806.5294745369428" y2="629.5979634038151"/><text x="945.3039220595689" y="410" text-anchor="start" style="font-color:black;font-weight:normal" transform="rotate(411.2686953552163,645,410)">1%&#160;&#160;&#160;Staphylococcus epidermidis RP62A</text><path class="line" d=" M 792.1368019809994,639.490300836633 A 272.6078441191378,272.6078441191378 0 0 0 806.5294745369428,629.5979634038151"/><line x1="822.0340512603751" y1="686.1212499869195" x2="792.1368019809994" y2="639.490300836633"/><text x="945.3039220595689" y="410" text-anchor="start" style="font-color:black;font-weight:normal" transform="rotate(415.4985734062359,645,410)">1%&#160;&#160;&#160;Staphylococcus epidermidis ATCC 12228</text><path class="line" d=" M 671.001971890514,674.1134004982364 A 265.3902614357523,265.3902614357523 0 0 0 674.7042491533105,673.7226733657442"/><line x1="677.136246198142" y1="736.4219074760338" x2="671.001971890514" y2="674.1134004982364"/><path class="line" d=" M 664.3930062271018,666.1371975121756 A 256.87030314910993,256.87030314910993 0 0 0 664.4097501962799,666.1359292196892"/><line x1="669.7631040431986" y1="737.0638908197384" x2="664.3930062271018" y2="666.1371975121756"/><path class="line" d=" M 662.9554357963298,656.0073985208087 A 246.6617882883608,246.6617882883608 0 0 0 663.4189382562771,655.9731296607895"/><line x1="668.8763489961856" y1="737.129821261548" x2="662.9554357963298" y2="656.0073985208087"/><path class="line" d=" M 651.4086902314182,628.5938986130373 A 218.68782275501553,218.68782275501553 0 0 0 651.5692381221788,628.5891326937897"/><line x1="654.612105372049" y1="737.8591274165119" x2="651.4086902314182" y2="628.5938986130373"/><path class="line" d=" M 649.572047656479,608.7570058121962 A 198.80958472669897,198.80958472669897 0 0 0 649.7501262632666,608.7528296142863"/><line x1="652.5430549959985" y1="737.9132542629641" x2="649.572047656479" y2="608.7570058121962"/><path class="line" d=" M 648.455587174736,582.4267852745296 A 172.4614083290257,172.4614083290257 0 0 0 648.8620234488793,582.4181606957667"/><line x1="651.5720940371253" y1="737.9341512864544" x2="648.455587174736" y2="582.4267852745296"/><path class="line" d=" M 647.4386124247538,545.8981433907954 A 135.92002136412196,135.92002136412196 0 0 0 647.4480188297765,545.8979742727331"/><line x1="650.8848201117956" y1="737.9472044281698" x2="647.4386124247538" y2="545.8981433907954"/><path class="line" d=" M 645.6451384366599,491.9974621338828 A 82,82 0 0 0 646.4699439500654,491.9868237266432"/><line x1="647.5805537466393" y1="737.9898485355312" x2="645.6451384366599" y2="491.9974621338828"/></svg>