<?xml version="1.0" standalone="no"?><!DOCTYPE svg PUBLIC "-//W3C//DTD SVG 1.1//EN" 	"http://www.w3.org/Graphics/SVG/1.1/DTD/svg11.dtd"><svg width="1440" height="820" version="1.1"	xmlns="http://www.w3.org/2000/svg"><title>Krona (snapshot) - all</title><defs>	<style type="text/css">	text {font-size: 11px; font-family: sans-serif; dominant-baseline:central}	path {stroke-width:0.27499999999999997;}	path.wedge {stroke:none}	path.line {fill:none;stroke:black;}	line {stroke:black;stroke-width:0.27499999999999997;}	line.tick {stroke-width:0.5499999999999999;}	line.pattern {stroke-width:0.18333333333333332;}	circle {fill:none;stroke:black;stroke-width:0.27499999999999997;}	rect {stroke:black;stroke-width:0.27499999999999997;}	.highlight {stroke:black;stroke-width:1.375;}	.searchHighlight {fill:rgb(255, 255, 100);stroke:none;}	</style><pattern id="hiddenPattern" patternUnits="userSpaceOnUse" x="0" y="0" width="6.6" height="6.6"><line class="pattern" x1="0" y1="0" x2="3.3" y2="3.3"/><line class="pattern" x1="3.3" y1="6.6" x2="6.6" y2="3.3"/></pattern></defs><path class="wedge" fill="rgb(220,220,220)" d=" M 646.3476720057939,491.9889247408746 L 650.3906880231759,737.9556989634984 A 328,328 0 0,1 645.0000000000001,738 L 645,492 A 82,82 0 0 0 646.3476720057939,491.9889247408746 Z "/><path class="wedge" fill="rgb(207,111,111)" d=" M 645,492 L 645,738 A 328,328 0 1,1 652.1561500146641,737.9219259472711 L 646.789037503666,491.9804814868178 A 82,82 0 1 0 645,492 Z "/><path class="wedge" fill="rgb(210,121,121)" d=" M 645,552.3279101265628 L 645,738 A 328,328 0 1,1 652.1574864012958,737.9218967809488 L 648.1058234184626,552.2940190657648 A 142.32791012656273,142.32791012656273 0 1 0 645,552.3279101265628 Z "/><path class="wedge" fill="rgb(210,121,121)" d=" M 649.4072173192548,589.6650116931878 L 653.0434834942477,737.9013607371548 A 328,328 0 0,1 652.1574864012958,737.9218967809488 L 648.9217582845392,589.6762638836028 A 179.71905850858568,179.71905850858568 0 0 0 649.4072173192548,589.6650116931878 Z "/><path class="wedge" fill="rgb(213,130,130)" d=" M 645,589.7190585085857 L 645,738 A 328,328 0 1,1 653.6621770426577,737.8856000023204 L 649.7462143376254,589.6563760089626 A 179.71905850858568,179.71905850858568 0 1 0 645,589.7190585085857 Z "/><path class="wedge" fill="rgb(213,130,130)" d=" M 650.5841627042748,614.9828450454377 L 653.9320942846515,737.8783580715417 A 328,328 0 0,1 653.6621770426577,737.8856000023204 L 650.4154159638186,614.9873725524783 A 205.05889309178886,205.05889309178886 0 0 0 650.5841627042748,614.9828450454377 Z "/><path class="wedge" fill="rgb(216,140,140)" d=" M 645,615.0588930917888 L 645,738 A 328,328 0 1,1 718.1523152601445,729.7385475229416 L 690.7333316900817,609.8940019324108 A 205.05889309178886,205.05889309178886 0 1 0 645,615.0588930917888 Z "/><path class="wedge" fill="rgb(216,140,140)" d=" M 696.1319796104963,627.3980064631193 L 720.0963831449902,729.2875400615264 A 328,328 0 0,1 718.1523152601445,729.7385475229416 L 694.8082934982447,627.7050905510006 A 223.33018728561228,223.33018728561228 0 0 0 696.1319796104963,627.3980064631193 Z "/><path class="wedge" fill="rgb(219,149,149)" d=" M 645,633.3301872856123 L 645,738 A 328,328 0 1,1 720.6661882847018,729.1529851818154 L 696.5199512219843,627.3063901018813 A 223.33018728561228,223.33018728561228 0 1 0 645,633.3301872856123 Z "/><path class="wedge" fill="rgb(219,149,149)" d=" M 707.4255922463702,638.7498741154473 L 731.3530601821649,726.4287423689185 A 328,328 0 0,1 720.6661882847018,729.1529851818154 L 699.6999331203025,640.7192596897308 A 237.11486557182158,237.11486557182158 0 0 0 707.4255922463702,638.7498741154473 Z "/><path class="wedge" fill="rgb(223,159,159)" d=" M 645,647.1148655718216 L 645,738 A 328,328 0 1,1 963.345011932578,331.00345971090394 L 875.1351667983329,352.8925181972927 A 237.11486557182158,237.11486557182158 0 1 0 645,647.1148655718216 Z "/><path class="wedge" fill="rgb(223,159,159)" d=" M 885.2249070817148,348.8785491314995 L 962.872319522547,329.1223857834827 A 328,328 0 0,1 963.345011932578,331.00345971090394 L 885.5821338149154,350.3001287459414 A 247.87867544161406,247.87867544161406 0 0 0 885.2249070817148,348.8785491314995 Z "/><path class="wedge" fill="rgb(226,168,168)" d=" M 645,657.8786754416141 L 645,738 A 328,328 0 1,1 961.7978676208269,325.0111120740068 L 884.4129140505438,345.7715458342958 A 247.87867544161406,247.87867544161406 0 1 0 645,657.8786754416141 Z "/><path class="wedge" fill="rgb(226,168,168)" d=" M 892.5581816023798,342.812503861776 L 961.5488779023023,324.08837157408004 A 328,328 0 0,1 961.7978676208269,325.0111120740068 L 892.7529049018718,343.53413636847296 A 256.51357257580094,256.51357257580094 0 0 0 892.5581816023798,342.812503861776 Z "/><path class="wedge" fill="rgb(229,178,178)" d=" M 645,666.5135725758009 L 645,738 A 328,328 0 1,1 961.5240063194872,323.9967824819254 L 892.5387306921251,342.7408762848322 A 256.51357257580094,256.51357257580094 0 1 0 645,666.5135725758009 Z "/><path class="wedge" fill="rgb(229,178,178)" d=" M 898.1601721017375,336.57621390717975 L 960.0183154429175,318.6355597866076 A 328,328 0 0,1 961.5240063194872,323.9967824819254 L 899.3702000358545,340.8846873948692 A 263.59272581538664,263.59272581538664 0 0 0 898.1601721017375,336.57621390717975 Z "/><path class="wedge" fill="rgb(229,178,178)" d=" M 645,673.5927258153866 L 645,738 A 328,328 0 1,1 959.8584751014671,318.0862324960029 L 898.0317185916822,336.13475452335274 A 263.59272581538664,263.59272581538664 0 1 0 645,673.5927258153866 Z "/><path class="wedge" fill="rgb(229,178,178)" d=" M 407.6618011628998,537.6766851392485 L 356.1441270850257,565.3907483813892 A 328,328 0 1,1 959.8584751014671,318.0862324960029 L 903.7032162962967,334.4791258436629 A 269.5009398042718,269.5009398042718 0 1 0 407.6618011628998,537.6766851392485 Z "/><path class="wedge" fill="rgb(229,178,178)" d=" M 645,679.5009398042719 L 645,738 A 328,328 0 0,1 499.0492403531558,703.738618091849 L 525.0796741159394,651.3501025382969 A 269.5009398042718,269.5009398042718 0 0 0 645,679.5009398042719 Z "/><path class="wedge" fill="rgb(229,180,178)" d=" M 525.0796741159394,651.3501025382969 L 499.0492403531558,703.738618091849 A 328,328 0 0,1 436.3528136341047,663.0817093778121 L 473.565204838031,617.9443857457072 A 269.5009398042718,269.5009398042718 0 0 0 525.0796741159394,651.3501025382969 Z "/><path class="wedge" fill="rgb(229,181,178)" d=" M 473.565204838031,617.9443857457072 L 436.3528136341047,663.0817093778121 A 328,328 0 0,1 391.2912764576841,617.884303396213 L 436.54042856342585,580.8079729751091 A 269.5009398042718,269.5009398042718 0 0 0 473.565204838031,617.9443857457072 Z "/><path class="wedge" fill="rgb(229,181,178)" d=" M 436.54042856342585,580.8079729751091 L 391.2912764576841,617.884303396213 A 328,328 0 0,1 356.1441270850257,565.3907483813892 L 407.6618011628998,537.6766851392485 A 269.5009398042718,269.5009398042718 0 0 0 436.54042856342585,580.8079729751091 Z "/><path class="wedge" fill="rgb(229,195,178)" d=" M 898.0317185916822,336.13475452335274 L 959.8584751014671,318.0862324960029 A 328,328 0 0,1 960.0183154429175,318.6355597866076 L 898.1601721017375,336.57621390717975 A 263.59272581538664,263.59272581538664 0 0 0 898.0317185916822,336.13475452335274 Z "/><path class="wedge" fill="url(#hiddenPattern)" d=" M 898.0317185916822,336.13475452335274 L 959.8584751014671,318.0862324960029 A 328,328 0 0,1 960.0183154429175,318.6355597866076 L 898.1601721017375,336.57621390717975 A 263.59272581538664,263.59272581538664 0 0 0 898.0317185916822,336.13475452335274 Z "/><path class="wedge" fill="rgb(226,188,168)" d=" M 892.5387306921251,342.7408762848322 L 961.5240063194872,323.9967824819254 A 328,328 0 0,1 961.5488779023023,324.08837157408004 L 892.5581816023798,342.812503861776 A 256.51357257580094,256.51357257580094 0 0 0 892.5387306921251,342.7408762848322 Z "/><path class="wedge" fill="url(#hiddenPattern)" d=" M 892.5387306921251,342.7408762848322 L 961.5240063194872,323.9967824819254 A 328,328 0 0,1 961.5488779023023,324.08837157408004 L 892.5581816023798,342.812503861776 A 256.51357257580094,256.51357257580094 0 0 0 892.5387306921251,342.7408762848322 Z "/><path class="wedge" fill="rgb(223,180,159)" d=" M 884.4129140505438,345.7715458342958 L 961.7978676208269,325.0111120740068 A 328,328 0 0,1 962.872319522547,329.1223857834827 L 885.2249070817148,348.8785491314995 A 247.87867544161406,247.87867544161406 0 0 0 884.4129140505438,345.7715458342958 Z "/><path class="wedge" fill="url(#hiddenPattern)" d=" M 884.4129140505438,345.7715458342958 L 961.7978676208269,325.0111120740068 A 328,328 0 0,1 962.872319522547,329.1223857834827 L 885.2249070817148,348.8785491314995 A 247.87867544161406,247.87867544161406 0 0 0 884.4129140505438,345.7715458342958 Z "/><path class="wedge" fill="rgb(223,181,159)" d=" M 875.1351667983329,352.8925181972927 L 963.345011932578,331.00345971090394 A 328,328 0 0,1 731.3530601821649,726.4287423689185 L 707.4255922463702,638.7498741154473 A 237.11486557182158,237.11486557182158 0 0 0 875.1351667983329,352.8925181972927 Z "/><path class="wedge" fill="rgb(223,181,159)" d=" M 710.5059226269519,649.0665427019867 L 731.6792699426906,726.339539359534 A 328,328 0 0,1 731.3530601821649,726.4287423689185 L 710.2593968850152,649.1339558843392 A 247.87867544161406,247.87867544161406 0 0 0 710.5059226269519,649.0665427019867 Z "/><path class="wedge" fill="rgb(226,188,168)" d=" M 885.5821338149154,350.3001287459414 L 963.345011932578,331.00345971090394 A 328,328 0 0,1 732.2399288176553,726.1853804651481 L 710.9296280516496,648.9500405600722 A 247.87867544161406,247.87867544161406 0 0 0 885.5821338149154,350.3001287459414 Z "/><path class="wedge" fill="rgb(226,188,168)" d=" M 713.7924575379885,657.1169980019276 L 732.9638681333031,725.9847431491382 A 328,328 0 0,1 732.2399288176553,726.1853804651481 L 713.2262982081564,657.2739071321769 A 256.51357257580094,256.51357257580094 0 0 0 713.7924575379885,657.1169980019276 Z "/><path class="wedge" fill="rgb(229,195,178)" d=" M 893.9628546418036,348.2204732601091 L 963.345011932578,331.00345971090394 A 328,328 0 0,1 732.9844717679669,725.9790067832226 L 713.8085706841337,657.1125118564563 A 256.51357257580094,256.51357257580094 0 0 0 893.9628546418036,348.2204732601091 Z "/><path class="wedge" fill="rgb(229,195,178)" d=" M 731.6711651655602,658.9362051442695 L 752.8487355307902,719.7622479328455 A 328,328 0 0,1 732.9844717679669,725.9790067832226 L 715.7075205571502,663.9322185927689 A 263.59272581538664,263.59272581538664 0 0 0 731.6711651655602,658.9362051442695 Z "/><path class="wedge" fill="rgb(229,195,178)" d=" M 900.8336263568293,346.51550797320783 L 963.345011932578,331.00345971090394 A 328,328 0 0,1 930.3487689814679,571.7407803887471 L 874.3166458045431,539.980771884688 A 263.59272581538664,263.59272581538664 0 0 0 900.8336263568293,346.51550797320783 Z "/><path class="wedge" fill="rgb(229,195,178)" d=" M 912.2930912835168,375.5738484943888 L 970.3129061615384,368.1011565227147 A 328,328 0 0,1 930.3487689814679,571.7407803887471 L 879.4565896722488,542.894183900743 A 269.5009398042718,269.5009398042718 0 0 0 912.2930912835168,375.5738484943888 Z "/><path class="wedge" fill="rgb(229,195,178)" d=" M 906.5679265177802,345.09255533781277 L 963.345011932578,331.00345971090394 A 328,328 0 0,1 970.2344819412696,367.4966853481518 L 912.2286540851451,375.07718523332386 A 269.5009398042718,269.5009398042718 0 0 0 906.5679265177802,345.09255533781277 Z "/><path class="wedge" fill="rgb(229,195,178)" d=" M 914.8888528376492,359.8645952364389 L 967.4830758922217,350.0945264346267 A 328,328 0 0,1 970.2344819412696,367.4966853481518 L 917.1915281647609,374.42861132650944 A 274.5060139538447,274.5060139538447 0 0 0 914.8888528376492,359.8645952364389 Z "/><path class="wedge" fill="rgb(229,195,178)" d=" M 911.4256716088448,343.88711771065834 L 963.345011932578,331.00345971090394 A 328,328 0 0,1 966.9647186037812,347.36837879802243 L 914.4550351759001,357.58305889139643 A 274.5060139538447,274.5060139538447 0 0 0 911.4256716088448,343.88711771065834 Z "/><path class="wedge" fill="rgb(229,195,178)" d=" M 911.4256716088448,343.88711771065834 L 963.345011932578,331.00345971090394 A 328,328 0 0,1 966.9647186037812,347.36837879802243 L 914.4550351759001,357.58305889139643 A 274.5060139538447,274.5060139538447 0 0 0 911.4256716088448,343.88711771065834 Z "/><path class="wedge" fill="rgb(229,196,178)" d=" M 914.4550351759001,357.58305889139643 L 966.9647186037812,347.36837879802243 A 328,328 0 0,1 967.4830758922217,350.0945264346267 L 914.8888528376492,359.8645952364389 A 274.5060139538447,274.5060139538447 0 0 0 914.4550351759001,357.58305889139643 Z "/><path class="wedge" fill="url(#hiddenPattern)" d=" M 914.4550351759001,357.58305889139643 L 966.9647186037812,347.36837879802243 A 328,328 0 0,1 967.4830758922217,350.0945264346267 L 914.8888528376492,359.8645952364389 A 274.5060139538447,274.5060139538447 0 0 0 914.4550351759001,357.58305889139643 Z "/><path class="wedge" fill="rgb(229,196,178)" d=" M 912.2286540851451,375.07718523332386 L 970.2344819412696,367.4966853481518 A 328,328 0 0,1 970.3129061615384,368.1011565227147 L 912.2930912835168,375.5738484943888 A 269.5009398042718,269.5009398042718 0 0 0 912.2286540851451,375.07718523332386 Z "/><path class="wedge" fill="url(#hiddenPattern)" d=" M 912.2286540851451,375.07718523332386 L 970.2344819412696,367.4966853481518 A 328,328 0 0,1 970.3129061615384,368.1011565227147 L 912.2930912835168,375.5738484943888 A 269.5009398042718,269.5009398042718 0 0 0 912.2286540851451,375.07718523332386 Z "/><path class="wedge" fill="rgb(229,198,178)" d=" M 874.3166458045431,539.980771884688 L 930.3487689814679,571.7407803887471 A 328,328 0 0,1 756.4027045715488,718.5019244901791 L 734.5272639061609,657.9233634013991 A 263.59272581538664,263.59272581538664 0 0 0 874.3166458045431,539.980771884688 Z "/><path class="wedge" fill="rgb(229,198,178)" d=" M 855.7302406155766,577.998578105551 L 901.4722741676076,614.4650889107857 A 328,328 0 0,1 756.4027045715488,718.5019244901791 L 736.5339438377135,663.4803615290542 A 269.5009398042718,269.5009398042718 0 0 0 855.7302406155766,577.998578105551 Z "/><path class="wedge" fill="rgb(229,198,178)" d=" M 879.4565896722488,542.894183900743 L 930.3487689814679,571.7407803887471 A 328,328 0 0,1 914.4574445039933,597.020548607305 L 866.3994955215964,563.6652854035951 A 269.5009398042718,269.5009398042718 0 0 0 879.4565896722488,542.894183900743 Z "/><path class="wedge" fill="rgb(229,199,178)" d=" M 866.3994955215964,563.6652854035951 L 914.4574445039933,597.020548607305 A 328,328 0 0,1 901.4722741676076,614.4650889107857 L 855.7302406155766,577.998578105551 A 269.5009398042718,269.5009398042718 0 0 0 866.3994955215964,563.6652854035951 Z "/><path class="wedge" fill="rgb(229,201,178)" d=" M 734.5272639061609,657.9233634013991 L 756.4027045715488,718.5019244901791 A 328,328 0 0,1 752.8487355307902,719.7622479328455 L 731.6711651655602,658.9362051442695 A 263.59272581538664,263.59272581538664 0 0 0 734.5272639061609,657.9233634013991 Z "/><path class="wedge" fill="url(#hiddenPattern)" d=" M 734.5272639061609,657.9233634013991 L 756.4027045715488,718.5019244901791 A 328,328 0 0,1 752.8487355307902,719.7622479328455 L 731.6711651655602,658.9362051442695 A 263.59272581538664,263.59272581538664 0 0 0 734.5272639061609,657.9233634013991 Z "/><path class="wedge" fill="rgb(226,195,168)" d=" M 713.8085706841337,657.1125118564563 L 732.9844717679669,725.9790067832226 A 328,328 0 0,1 732.9638681333031,725.9847431491382 L 713.7924575379885,657.1169980019276 A 256.51357257580094,256.51357257580094 0 0 0 713.8085706841337,657.1125118564563 Z "/><path class="wedge" fill="url(#hiddenPattern)" d=" M 713.8085706841337,657.1125118564563 L 732.9844717679669,725.9790067832226 A 328,328 0 0,1 732.9638681333031,725.9847431491382 L 713.7924575379885,657.1169980019276 A 256.51357257580094,256.51357257580094 0 0 0 713.8085706841337,657.1125118564563 Z "/><path class="wedge" fill="rgb(223,188,159)" d=" M 710.9296280516496,648.9500405600722 L 732.2399288176553,726.1853804651481 A 328,328 0 0,1 731.6792699426906,726.339539359534 L 710.5059226269519,649.0665427019867 A 247.87867544161406,247.87867544161406 0 0 0 710.9296280516496,648.9500405600722 Z "/><path class="wedge" fill="url(#hiddenPattern)" d=" M 710.9296280516496,648.9500405600722 L 732.2399288176553,726.1853804651481 A 328,328 0 0,1 731.6792699426906,726.339539359534 L 710.5059226269519,649.0665427019867 A 247.87867544161406,247.87867544161406 0 0 0 710.9296280516496,648.9500405600722 Z "/><path class="wedge" fill="rgb(216,176,140)" d=" M 696.5199512219843,627.3063901018813 L 720.6661882847018,729.1529851818154 A 328,328 0 0,1 720.0963831449902,729.2875400615264 L 696.1319796104963,627.3980064631193 A 223.33018728561228,223.33018728561228 0 0 0 696.5199512219843,627.3063901018813 Z "/><path class="wedge" fill="url(#hiddenPattern)" d=" M 696.5199512219843,627.3063901018813 L 720.6661882847018,729.1529851818154 A 328,328 0 0,1 720.0963831449902,729.2875400615264 L 696.1319796104963,627.3980064631193 A 223.33018728561228,223.33018728561228 0 0 0 696.5199512219843,627.3063901018813 Z "/><path class="wedge" fill="rgb(216,176,140)" d=" M 690.7333316900817,609.8940019324108 L 718.1523152601445,729.7385475229416 A 328,328 0 0,1 654.0269647582339,737.8757598653087 L 650.6434737844575,614.9812207000286 A 205.05889309178886,205.05889309178886 0 0 0 690.7333316900817,609.8940019324108 Z "/><path class="wedge" fill="rgb(216,176,140)" d=" M 651.1481419419353,633.2455439727487 L 654.0296371550335,737.8756862788829 A 328,328 0 0,1 654.0269647582339,737.8757598653087 L 651.1463223477958,633.2455940766215 A 223.33018728561228,223.33018728561228 0 0 0 651.1481419419353,633.2455439727487 Z "/><path class="wedge" fill="rgb(219,183,149)" d=" M 694.8082934982447,627.7050905510006 L 718.1523152601445,729.7385475229416 A 328,328 0 0,1 654.0336457491082,737.8755758584034 L 651.1508713323786,633.2454687891317 A 223.33018728561228,223.33018728561228 0 0 0 694.8082934982447,627.7050905510006 Z "/><path class="wedge" fill="rgb(219,183,149)" d=" M 651.5962079740613,647.0230991180099 L 654.1245068514557,737.8730598489569 A 328,328 0 0,1 654.0336457491082,737.8755758584034 L 651.5305234677538,647.0249179693565 A 237.11486557182158,237.11486557182158 0 0 0 651.5962079740613,647.0230991180099 Z "/><path class="wedge" fill="rgb(223,189,159)" d=" M 697.8826262170021,641.1425692500969 L 718.1523152601445,729.7385475229416 A 328,328 0 0,1 654.1953245780164,737.8710813809369 L 651.6474029000173,647.0216688613677 A 237.11486557182158,237.11486557182158 0 0 0 697.8826262170021,641.1425692500969 Z "/><path class="wedge" fill="rgb(223,189,159)" d=" M 651.9501709970609,657.7812197520237 L 654.1966607574234,737.8710439043266 A 328,328 0 0,1 654.1953245780164,737.8710813809369 L 651.9491612093124,657.781248074135 A 247.87867544161406,247.87867544161406 0 0 0 651.9501709970609,657.7812197520237 Z "/><path class="wedge" fill="rgb(226,196,168)" d=" M 700.2832286956464,651.6352672183303 L 718.1523152601445,729.7385475229416 A 328,328 0 0,1 654.1966607574234,737.8710439043266 L 651.9501709970609,657.7812197520237 A 247.87867544161406,247.87867544161406 0 0 0 700.2832286956464,651.6352672183303 Z "/><path class="wedge" fill="rgb(226,196,168)" d=" M 652.3437999124087,666.4084271595752 L 654.3904051434091,737.8655521570429 A 328,328 0 0,1 654.1966607574234,737.8710439043266 L 652.1922814227266,666.412722000171 A 256.51357257580094,256.51357257580094 0 0 0 652.3437999124087,666.4084271595752 Z "/><path class="wedge" fill="rgb(229,202,178)" d=" M 702.2090296633261,660.0526741320343 L 718.1523152601445,729.7385475229416 A 328,328 0 0,1 654.4104474801018,737.864977510902 L 652.3594740934691,666.4079777555064 A 256.51357257580094,256.51357257580094 0 0 0 702.2090296633261,660.0526741320343 Z "/><path class="wedge" fill="rgb(229,202,178)" d=" M 653.0833471158898,673.468754508366 L 655.058463661356,737.8457370605468 A 328,328 0 0,1 654.4104474801018,737.864977510902 L 652.5625777512884,673.4842168338387 A 263.59272581538664,263.59272581538664 0 0 0 653.0833471158898,673.468754508366 Z "/><path class="wedge" fill="rgb(229,202,178)" d=" M 703.7878603022195,666.9535222250754 L 718.1523152601445,729.7385475229416 A 328,328 0 0,1 655.5087117122197,737.8316137564366 L 653.4451828202198,673.4574045076712 A 263.59272581538664,263.59272581538664 0 0 0 703.7878603022195,666.9535222250754 Z "/><path class="wedge" fill="rgb(229,202,178)" d=" M 703.7878603022195,666.9535222250754 L 718.1523152601445,729.7385475229416 A 328,328 0 0,1 655.5087117122197,737.8316137564366 L 653.4451828202198,673.4574045076712 A 263.59272581538664,263.59272581538664 0 0 0 703.7878603022195,666.9535222250754 Z "/><path class="wedge" fill="rgb(229,203,178)" d=" M 653.4451828202198,673.4574045076712 L 655.5087117122197,737.8316137564366 A 328,328 0 0,1 655.058463661356,737.8457370605468 L 653.0833471158898,673.468754508366 A 263.59272581538664,263.59272581538664 0 0 0 653.4451828202198,673.4574045076712 Z "/><path class="wedge" fill="url(#hiddenPattern)" d=" M 653.4451828202198,673.4574045076712 L 655.5087117122197,737.8316137564366 A 328,328 0 0,1 655.058463661356,737.8457370605468 L 653.0833471158898,673.468754508366 A 263.59272581538664,263.59272581538664 0 0 0 653.4451828202198,673.4574045076712 Z "/><path class="wedge" fill="rgb(226,196,168)" d=" M 652.3594740934691,666.4079777555064 L 654.4104474801018,737.864977510902 A 328,328 0 0,1 654.3904051434091,737.8655521570429 L 652.3437999124087,666.4084271595752 A 256.51357257580094,256.51357257580094 0 0 0 652.3594740934691,666.4079777555064 Z "/><path class="wedge" fill="url(#hiddenPattern)" d=" M 652.3594740934691,666.4079777555064 L 654.4104474801018,737.864977510902 A 328,328 0 0,1 654.3904051434091,737.8655521570429 L 652.3437999124087,666.4084271595752 A 256.51357257580094,256.51357257580094 0 0 0 652.3594740934691,666.4079777555064 Z "/><path class="wedge" fill="rgb(219,184,149)" d=" M 651.6474029000173,647.0216688613677 L 654.1953245780164,737.8710813809369 A 328,328 0 0,1 654.1245068514557,737.8730598489569 L 651.5962079740613,647.0230991180099 A 237.11486557182158,237.11486557182158 0 0 0 651.6474029000173,647.0216688613677 Z "/><path class="wedge" fill="url(#hiddenPattern)" d=" M 651.6474029000173,647.0216688613677 L 654.1953245780164,737.8710813809369 A 328,328 0 0,1 654.1245068514557,737.8730598489569 L 651.5962079740613,647.0230991180099 A 237.11486557182158,237.11486557182158 0 0 0 651.6474029000173,647.0216688613677 Z "/><path class="wedge" fill="rgb(216,177,140)" d=" M 651.1508713323786,633.2454687891317 L 654.0336457491082,737.8755758584034 A 328,328 0 0,1 654.0296371550335,737.8756862788829 L 651.1481419419353,633.2455439727487 A 223.33018728561228,223.33018728561228 0 0 0 651.1508713323786,633.2454687891317 Z "/><path class="wedge" fill="url(#hiddenPattern)" d=" M 651.1508713323786,633.2454687891317 L 654.0336457491082,737.8755758584034 A 328,328 0 0,1 654.0296371550335,737.8756862788829 L 651.1481419419353,633.2455439727487 A 223.33018728561228,223.33018728561228 0 0 0 651.1508713323786,633.2454687891317 Z "/><path class="wedge" fill="rgb(213,171,130)" d=" M 650.6434737844575,614.9812207000286 L 654.0269647582339,737.8757598653087 A 328,328 0 0,1 653.9320942846515,737.8783580715417 L 650.5841627042748,614.9828450454377 A 205.05889309178886,205.05889309178886 0 0 0 650.6434737844575,614.9812207000286 Z "/><path class="wedge" fill="url(#hiddenPattern)" d=" M 650.6434737844575,614.9812207000286 L 654.0269647582339,737.8757598653087 A 328,328 0 0,1 653.9320942846515,737.8783580715417 L 650.5841627042748,614.9828450454377 A 205.05889309178886,205.05889309178886 0 0 0 650.6434737844575,614.9812207000286 Z "/><path class="wedge" fill="rgb(210,165,121)" d=" M 649.7462143376254,589.6563760089626 L 653.6621770426577,737.8856000023204 A 328,328 0 0,1 653.0434834942477,737.9013607371548 L 649.4072173192548,589.6650116931878 A 179.71905850858568,179.71905850858568 0 0 0 649.7462143376254,589.6563760089626 Z "/><path class="wedge" fill="url(#hiddenPattern)" d=" M 649.7462143376254,589.6563760089626 L 653.6621770426577,737.8856000023204 A 328,328 0 0,1 653.0434834942477,737.9013607371548 L 649.4072173192548,589.6650116931878 A 179.71905850858568,179.71905850858568 0 0 0 649.7462143376254,589.6563760089626 Z "/><path class="wedge" fill="rgb(207,159,111)" d=" M 648.1058234184626,552.2940190657648 L 652.1574864012958,737.9218967809488 A 328,328 0 0,1 652.1561500146641,737.9219259472711 L 648.105243524815,552.2940317218066 A 142.32791012656273,142.32791012656273 0 0 0 648.1058234184626,552.2940190657648 Z "/><path class="wedge" fill="url(#hiddenPattern)" d=" M 648.1058234184626,552.2940190657648 L 652.1574864012958,737.9218967809488 A 328,328 0 0,1 652.1561500146641,737.9219259472711 L 648.105243524815,552.2940317218066 A 142.32791012656273,142.32791012656273 0 0 0 648.1058234184626,552.2940190657648 Z "/><path class="wedge" fill="rgb(101,204,204)" d=" M 646.789037503666,491.9804814868178 L 652.1561500146641,737.9219259472711 A 328,328 0 0,1 650.3906880231759,737.9556989634984 L 646.3476720057939,491.9889247408746 A 82,82 0 0 0 646.789037503666,491.9804814868178 Z "/><path class="wedge" fill="url(#hiddenPattern)" d=" M 646.789037503666,491.9804814868178 L 652.1561500146641,737.9219259472711 A 328,328 0 0,1 650.3906880231759,737.9556989634984 L 646.3476720057939,491.9889247408746 A 82,82 0 0 0 646.789037503666,491.9804814868178 Z "/><rect fill="rgb(101,204,204)" x="1405.7" y="756.3666666666668" width="22" height="22"/><rect fill="url(#hiddenPattern)" style="stroke:none" x="1405.7" y="756.3666666666668" width="22" height="22"/><path class="line" d="M 651.2734417460516,737.9400005010962 L 652.3190153703935,792.5966672512789 A 382.6666666666667,382.6666666666667 0 0,0 781.8314413186285,767.3666666666668 L 1041.3333333333333,767.3666666666668 L 1316.0224283854168,767.3666666666668"/><text x="1398.3666666666668" y="767.3666666666668" style="font-color:black;font-weight:normal" text-anchor="end">Viruses&#160;&#160;&#160;0.09%</text><circle cx="645" cy="410" r="82"/><circle cx="645" cy="410" r="328"/><text x="645" y="410" text-anchor="middle" style="font-color:black;font-weight:bold" transform="rotate(360,645,410)">all</text><rect fill="rgb(220,220,220)" x="1405.7" y="785.7" width="22" height="22"/><path class="line" d="M 647.6954350272752,737.9889245538845 L 648.2569839912908,806.3199505026105 A 396.3333333333333,396.3333333333333 0 0,0 731.8517191027964,796.7 L 1030.3333333333333,796.7 L 1313.3798502604168,796.7"/><text x="1398.3666666666668" y="796.7" style="font-color:black;font-weight:normal" text-anchor="end">[other all]&#160;&#160;&#160;0.3%</text><path class="line" d=" M 646.789037503666,491.9804814868178 A 82,82 0 1 0 645,492"/><line x1="652.1561500146641" y1="737.9219259472711" x2="646.789037503666" y2="491.9804814868178"/><text x="645" y="297.8360449367186" text-anchor="middle" style="font-color:black;font-weight:normal" transform="rotate(359.37492419402435,645,410)">cellular organisms</text><path class="line" d=" M 648.1058234184626,552.2940190657648 A 142.32791012656273,142.32791012656273 0 1 0 645,552.3279101265628"/><line x1="652.1574864012958" y1="737.9218967809488" x2="648.1058234184626" y2="552.2940190657648"/><text x="645" y="256.45474535883034" text-anchor="middle" style="font-color:black;font-weight:normal" transform="rotate(359.37480744471435,645,410)">Bacteria</text><path class="line" d=" M 649.7462143376254,589.6563760089626 A 179.71905850858568,179.71905850858568 0 1 0 645,589.7190585085857"/><line x1="653.6621770426577" y1="737.8856000023204" x2="649.7462143376254" y2="589.6563760089626"/><text x="645" y="217.61102419981273" text-anchor="middle" style="font-color:black;font-weight:normal" transform="rotate(359.24334772160483,645,410)">Terrabacteria group</text><path class="line" d=" M 690.7333316900817,609.8940019324108 A 205.05889309178886,205.05889309178886 0 1 0 645,615.0588930917888"/><line x1="718.1523152601445" y1="729.7385475229416" x2="690.7333316900817" y2="609.8940019324108"/><text x="645" y="195.80545981129941" text-anchor="middle" style="font-color:black;font-weight:normal" transform="rotate(353.55660557867117,645,410)">Firmicutes</text><path class="line" d=" M 696.5199512219843,627.3063901018813 A 223.33018728561228,223.33018728561228 0 1 0 645,633.3301872856123"/><line x1="720.6661882847018" y1="729.1529851818154" x2="696.5199512219843" y2="627.3063901018813"/><text x="645" y="179.77747357128305" text-anchor="middle" style="font-color:black;font-weight:normal" transform="rotate(353.3311626609762,645,410)">Bacilli</text><path class="line" d=" M 875.1351667983329,352.8925181972927 A 237.11486557182158,237.11486557182158 0 1 0 645,647.1148655718216"/><line x1="963.345011932578" y1="331.00345971090394" x2="875.1351667983329" y2="352.8925181972927"/><path class="line" d=" M 884.4129140505438,345.7715458342958 A 247.87867544161406,247.87867544161406 0 1 0 645,657.8786754416141"/><line x1="961.7978676208269" y1="325.0111120740068" x2="884.4129140505438" y2="345.7715458342958"/><path class="line" d=" M 892.5387306921251,342.7408762848322 A 256.51357257580094,256.51357257580094 0 1 0 645,666.5135725758009"/><line x1="961.5240063194872" y1="323.9967824819254" x2="892.5387306921251" y2="342.7408762848322"/><path class="line" d=" M 898.0317185916822,336.13475452335274 A 263.59272581538664,263.59272581538664 0 1 0 645,673.5927258153866"/><line x1="959.8584751014671" y1="318.0862324960029" x2="898.0317185916822" y2="336.13475452335274"/><text x="349.2036370923067" y="410" text-anchor="end" style="font-color:black;font-weight:normal" transform="rotate(36.86318602381039,645,410)">Enterococcus faecalis&#160;&#160;&#160;70%</text><path class="line" d=" M 525.0796741159394,651.3501025382969 A 269.5009398042718,269.5009398042718 0 0 0 645,679.5009398042719"/><line x1="499.0492403531558" y1="703.738618091849" x2="525.0796741159394" y2="651.3501025382969"/><text x="346.2495300978641" y="410" text-anchor="end" style="font-color:black;font-weight:normal" transform="rotate(-76.78923182197026,645,410)">Enterococcus faecalis V583&#160;&#160;&#160;7%</text><path class="line" d=" M 473.565204838031,617.9443857457072 A 269.5009398042718,269.5009398042718 0 0 0 525.0796741159394,651.3501025382969"/><line x1="436.3528136341047" y1="663.0817093778121" x2="473.565204838031" y2="617.9443857457072"/><text x="346.2495300978641" y="410" text-anchor="end" style="font-color:black;font-weight:normal" transform="rotate(-57.037700298035055,645,410)">Enterococcus faecalis str. Symbioflor 1&#160;&#160;&#160;4%</text><path class="line" d=" M 436.54042856342585,580.8079729751091 A 269.5009398042718,269.5009398042718 0 0 0 473.565204838031,617.9443857457072"/><line x1="391.2912764576841" y1="617.884303396213" x2="436.54042856342585" y2="580.8079729751091"/><text x="346.2495300978641" y="410" text-anchor="end" style="font-color:black;font-weight:normal" transform="rotate(-44.91375144720497,645,410)">Enterococcus faecalis OG1RF&#160;&#160;&#160;3%</text><path class="line" d=" M 407.6618011628998,537.6766851392485 A 269.5009398042718,269.5009398042718 0 0 0 436.54042856342585,580.8079729751091"/><line x1="356.1441270850257" y1="565.3907483813892" x2="407.6618011628998" y2="537.6766851392485"/><text x="346.2495300978641" y="410" text-anchor="end" style="font-color:black;font-weight:normal" transform="rotate(-33.80435410065738,645,410)">Enterococcus faecalis D32&#160;&#160;&#160;3%</text><path class="line" d=" M 898.1601721017375,336.57621390717975 A 263.59272581538664,263.59272581538664 0 0 0 898.0317185916822,336.13475452335274"/><line x1="960.0183154429175" y1="318.6355597866076" x2="898.1601721017375" y2="336.57621390717975"/><path class="line" d=" M 892.5581816023798,342.812503861776 A 256.51357257580094,256.51357257580094 0 0 0 892.5387306921251,342.7408762848322"/><line x1="961.5488779023023" y1="324.08837157408004" x2="892.5581816023798" y2="342.812503861776"/><path class="line" d=" M 885.2249070817148,348.8785491314995 A 247.87867544161406,247.87867544161406 0 0 0 884.4129140505438,345.7715458342958"/><line x1="962.872319522547" y1="329.1223857834827" x2="885.2249070817148" y2="348.8785491314995"/><path class="line" d=" M 707.4255922463702,638.7498741154473 A 237.11486557182158,237.11486557182158 0 0 0 875.1351667983329,352.8925181972927"/><line x1="731.3530601821649" y1="726.4287423689185" x2="707.4255922463702" y2="638.7498741154473"/><path class="line" d=" M 710.9296280516496,648.9500405600722 A 247.87867544161406,247.87867544161406 0 0 0 885.5821338149154,350.3001287459414"/><line x1="732.2399288176553" y1="726.1853804651481" x2="710.9296280516496" y2="648.9500405600722"/><path class="line" d=" M 713.8085706841337,657.1125118564563 A 256.51357257580094,256.51357257580094 0 0 0 893.9628546418036,348.2204732601091"/><line x1="732.9844717679669" y1="725.9790067832226" x2="713.8085706841337" y2="657.1125118564563"/><path class="line" d=" M 874.3166458045431,539.980771884688 A 263.59272581538664,263.59272581538664 0 0 0 900.8336263568293,346.51550797320783"/><line x1="930.3487689814679" y1="571.7407803887471" x2="874.3166458045431" y2="539.980771884688"/><text x="940.7963629076933" y="410" text-anchor="start" style="font-color:black;font-weight:normal" transform="rotate(367.8045162524769,645,410)">12%&#160;&#160;&#160;Staphylococcus aureus</text><path class="line" d=" M 912.2286540851451,375.07718523332386 A 269.5009398042718,269.5009398042718 0 0 0 906.5679265177802,345.09255533781277"/><line x1="970.2344819412696" y1="367.4966853481518" x2="912.2286540851451" y2="375.07718523332386"/><line x1="966.9647186037812" y1="347.36837879802243" x2="914.4550351759001" y2="357.58305889139643"/><path class="line" d=" M 914.4550351759001,357.58305889139643 A 274.5060139538447,274.5060139538447 0 0 0 911.4256716088448,343.88711771065834"/><text x="946.2530069769223" y="410" text-anchor="start" style="font-color:black;font-weight:normal" transform="rotate(347.52772958265365,645,410)">0.8%&#160;&#160;&#160;Staphylococcus aureus subsp. aureus CN1</text><path class="line" d=" M 914.8888528376492,359.8645952364389 A 274.5060139538447,274.5060139538447 0 0 0 914.4550351759001,357.58305889139643"/><line x1="967.4830758922217" y1="350.0945264346267" x2="914.8888528376492" y2="359.8645952364389"/><path class="line" d=" M 912.2930912835168,375.5738484943888 A 269.5009398042718,269.5009398042718 0 0 0 912.2286540851451,375.07718523332386"/><line x1="970.3129061615384" y1="368.1011565227147" x2="912.2930912835168" y2="375.5738484943888"/><path class="line" d=" M 734.5272639061609,657.9233634013991 A 263.59272581538664,263.59272581538664 0 0 0 874.3166458045431,539.980771884688"/><line x1="756.4027045715488" y1="718.5019244901791" x2="734.5272639061609" y2="657.9233634013991"/><text x="940.7963629076933" y="410" text-anchor="start" style="font-color:black;font-weight:normal" transform="rotate(409.84512555415387,645,410)">11%&#160;&#160;&#160;Staphylococcus epidermidis</text><path class="line" d=" M 866.3994955215964,563.6652854035951 A 269.5009398042718,269.5009398042718 0 0 0 879.4565896722488,542.894183900743"/><line x1="914.4574445039933" y1="597.020548607305" x2="866.3994955215964" y2="563.6652854035951"/><text x="943.7504699021358" y="410" text-anchor="start" style="font-color:black;font-weight:normal" transform="rotate(392.1542193524954,645,410)">1%&#160;&#160;&#160;Staphylococcus epidermidis RP62A</text><path class="line" d=" M 855.7302406155766,577.998578105551 A 269.5009398042718,269.5009398042718 0 0 0 866.3994955215964,563.6652854035951"/><line x1="901.4722741676076" y1="614.4650889107857" x2="855.7302406155766" y2="577.998578105551"/><text x="943.7504699021358" y="410" text-anchor="start" style="font-color:black;font-weight:normal" transform="rotate(396.6628442077749,645,410)">1%&#160;&#160;&#160;Staphylococcus epidermidis ATCC 12228</text><path class="line" d=" M 731.6711651655602,658.9362051442695 A 263.59272581538664,263.59272581538664 0 0 0 734.5272639061609,657.9233634013991"/><line x1="752.8487355307902" y1="719.7622479328455" x2="731.6711651655602" y2="658.9362051442695"/><path class="line" d=" M 713.7924575379885,657.1169980019276 A 256.51357257580094,256.51357257580094 0 0 0 713.8085706841337,657.1125118564563"/><line x1="732.9638681333031" y1="725.9847431491382" x2="713.7924575379885" y2="657.1169980019276"/><path class="line" d=" M 710.5059226269519,649.0665427019867 A 247.87867544161406,247.87867544161406 0 0 0 710.9296280516496,648.9500405600722"/><line x1="731.6792699426906" y1="726.339539359534" x2="710.5059226269519" y2="649.0665427019867"/><path class="line" d=" M 696.1319796104963,627.3980064631193 A 223.33018728561228,223.33018728561228 0 0 0 696.5199512219843,627.3063901018813"/><line x1="720.0963831449902" y1="729.2875400615264" x2="696.1319796104963" y2="627.3980064631193"/><path class="line" d=" M 650.6434737844575,614.9812207000286 A 205.05889309178886,205.05889309178886 0 0 0 690.7333316900817,609.8940019324108"/><line x1="654.0269647582339" y1="737.8757598653087" x2="650.6434737844575" y2="614.9812207000286"/><text x="645" y="624.1945401887006" text-anchor="middle" style="font-color:black;font-weight:normal" transform="rotate(352.76808073863407,645,410)">Actinobacteria</text><path class="line" d=" M 651.1508713323786,633.2454687891317 A 223.33018728561228,223.33018728561228 0 0 0 694.8082934982447,627.7050905510006"/><line x1="654.0336457491082" y1="737.8755758584034" x2="651.1508713323786" y2="633.2454687891317"/><text x="645" y="640.222526428717" text-anchor="middle" style="font-color:black;font-weight:normal" transform="rotate(352.76749699208375,645,410)">Actinobacteria</text><path class="line" d=" M 651.6474029000173,647.0216688613677 A 237.11486557182158,237.11486557182158 0 0 0 697.8826262170021,641.1425692500969"/><line x1="654.1953245780164" y1="737.8710813809369" x2="651.6474029000173" y2="647.0216688613677"/><path class="line" d=" M 651.9501709970609,657.7812197520237 A 247.87867544161406,247.87867544161406 0 0 0 700.2832286956464,651.6352672183303"/><line x1="654.1966607574234" y1="737.8710439043266" x2="651.9501709970609" y2="657.7812197520237"/><path class="line" d=" M 652.3594740934691,666.4079777555064 A 256.51357257580094,256.51357257580094 0 0 0 702.2090296633261,660.0526741320343"/><line x1="654.4104474801018" y1="737.864977510902" x2="652.3594740934691" y2="666.4079777555064"/><line x1="655.5087117122197" y1="737.8316137564366" x2="653.4451828202198" y2="673.4574045076712"/><path class="line" d=" M 653.4451828202198,673.4574045076712 A 263.59272581538664,263.59272581538664 0 0 0 703.7878603022195,666.9535222250754"/><text x="940.7963629076933" y="410" text-anchor="start" style="font-color:black;font-weight:normal" transform="rotate(442.6386057537952,645,410)">3%&#160;&#160;&#160;Cutibacterium avidum 44067</text><path class="line" d=" M 653.0833471158898,673.468754508366 A 263.59272581538664,263.59272581538664 0 0 0 653.4451828202198,673.4574045076712"/><line x1="655.058463661356" y1="737.8457370605468" x2="653.0833471158898" y2="673.468754508366"/><path class="line" d=" M 652.3437999124087,666.4084271595752 A 256.51357257580094,256.51357257580094 0 0 0 652.3594740934691,666.4079777555064"/><line x1="654.3904051434091" y1="737.8655521570429" x2="652.3437999124087" y2="666.4084271595752"/><path class="line" d=" M 651.5962079740613,647.0230991180099 A 237.11486557182158,237.11486557182158 0 0 0 651.6474029000173,647.0216688613677"/><line x1="654.1245068514557" y1="737.8730598489569" x2="651.5962079740613" y2="647.0230991180099"/><path class="line" d=" M 651.1481419419353,633.2455439727487 A 223.33018728561228,223.33018728561228 0 0 0 651.1508713323786,633.2454687891317"/><line x1="654.0296371550335" y1="737.8756862788829" x2="651.1481419419353" y2="633.2455439727487"/><path class="line" d=" M 650.5841627042748,614.9828450454377 A 205.05889309178886,205.05889309178886 0 0 0 650.6434737844575,614.9812207000286"/><line x1="653.9320942846515" y1="737.8783580715417" x2="650.5841627042748" y2="614.9828450454377"/><path class="line" d=" M 649.4072173192548,589.6650116931878 A 179.71905850858568,179.71905850858568 0 0 0 649.7462143376254,589.6563760089626"/><line x1="653.0434834942477" y1="737.9013607371548" x2="649.4072173192548" y2="589.6650116931878"/><path class="line" d=" M 648.105243524815,552.2940317218066 A 142.32791012656273,142.32791012656273 0 0 0 648.1058234184626,552.2940190657648"/><path class="line" d=" M 646.3476720057939,491.9889247408746 A 82,82 0 0 0 646.789037503666,491.9804814868178"/><line x1="650.3906880231759" y1="737.9556989634984" x2="646.3476720057939" y2="491.9889247408746"/></svg>