<?xml version="1.0" standalone="no"?><!DOCTYPE svg PUBLIC "-//W3C//DTD SVG 1.1//EN" 	"http://www.w3.org/Graphics/SVG/1.1/DTD/svg11.dtd"><svg width="1440" height="820" version="1.1"	xmlns="http://www.w3.org/2000/svg"><title>Krona (snapshot) - all</title><defs>	<style type="text/css">	text {font-size: 11px; font-family: sans-serif; dominant-baseline:central}	path {stroke-width:0.27499999999999997;}	path.wedge {stroke:none}	path.line {fill:none;stroke:black;}	line {stroke:black;stroke-width:0.27499999999999997;}	line.tick {stroke-width:0.5499999999999999;}	line.pattern {stroke-width:0.18333333333333332;}	circle {fill:none;stroke:black;stroke-width:0.27499999999999997;}	rect {stroke:black;stroke-width:0.27499999999999997;}	.highlight {stroke:black;stroke-width:1.375;}	.searchHighlight {fill:rgb(255, 255, 100);stroke:none;}	</style><pattern id="hiddenPattern" patternUnits="userSpaceOnUse" x="0" y="0" width="6.6" height="6.6"><line class="pattern" x1="0" y1="0" x2="3.3" y2="3.3"/><line class="pattern" x1="3.3" y1="6.6" x2="6.6" y2="3.3"/></pattern></defs><path class="wedge" fill="rgb(220,220,220)" d=" M 645.6573647397005,491.99736502838977 L 647.6294589588018,737.9894601135591 A 328,328 0 0,1 645.0000000000001,738 L 645,492 A 82,82 0 0 0 645.6573647397005,491.99736502838977 Z "/><path class="wedge" fill="rgb(207,111,111)" d=" M 645,492 L 645,738 A 328,328 0 1,1 651.1288269152564,737.9427350630638 L 646.5322067288141,491.98568376576594 A 82,82 0 1 0 645,492 Z "/><path class="wedge" fill="rgb(207,111,111)" d=" M 647.5408427127064,545.8962704636616 L 651.1315205913268,737.9426847106643 A 328,328 0 0,1 651.1288269152564,737.9427350630638 L 647.5397264794472,545.896291329208 A 135.92002136412196,135.92002136412196 0 0 0 647.5408427127064,545.8962704636616 Z "/><path class="wedge" fill="rgb(210,121,121)" d=" M 645,545.920021364122 L 645,738 A 328,328 0 1,1 651.1692320127934,737.941977453897 L 647.5564699603021,545.8959773833112 A 135.92002136412196,135.92002136412196 0 1 0 645,545.920021364122 Z "/><path class="wedge" fill="rgb(210,121,121)" d=" M 648.6190813058423,582.4234311610015 L 651.8830393988874,737.9277721825849 A 328,328 0 0,1 651.1692320127934,737.941977453897 L 648.2437635403502,582.4309002497093 A 172.4614083290257,172.4614083290257 0 0 0 648.6190813058423,582.4234311610015 Z "/><path class="wedge" fill="rgb(213,130,130)" d=" M 645,582.4614083290257 L 645,738 A 328,328 0 1,1 652.7988195144187,737.9072710602519 L 649.1005957218309,582.4126517328616 A 172.4614083290257,172.4614083290257 0 1 0 645,582.4614083290257 Z "/><path class="wedge" fill="rgb(213,130,130)" d=" M 649.8780812837329,608.7497303197964 L 653.0479553501604,737.901251011157 A 328,328 0 0,1 652.7988195144187,737.9072710602519 L 649.7270733811587,608.753379232786 A 198.80958472669897,198.80958472669897 0 0 0 649.8780812837329,608.7497303197964 Z "/><path class="wedge" fill="rgb(216,140,140)" d=" M 645,608.809584726699 L 645,738 A 328,328 0 1,1 653.4600292229675,737.8908780456488 L 650.1278502944936,608.7434429875858 A 198.80958472669897,198.80958472669897 0 1 0 645,608.809584726699 Z "/><path class="wedge" fill="rgb(216,140,140)" d=" M 651.7412371275635,628.5838958919871 L 655.110877459866,737.8441247864472 A 328,328 0 0,1 653.4600292229675,737.8908780456488 L 650.640565156142,628.6150677470526 A 218.68782275501553,218.68782275501553 0 0 0 651.7412371275635,628.5838958919871 Z "/><path class="wedge" fill="rgb(219,149,149)" d=" M 645,628.6878227550155 L 645,738 A 328,328 0 1,1 655.3088012787452,737.8379609139176 L 651.8731991062893,628.5797862460626 A 218.68782275501553,218.68782275501553 0 1 0 645,628.6878227550155 Z "/><path class="wedge" fill="rgb(219,149,149)" d=" M 661.6678437362489,643.6159609422191 L 668.3425439748477,737.1683444968085 A 328,328 0 0,1 655.3088012787452,737.8379609139176 L 652.36104380942,644.0941034195612 A 234.20980812462236,234.20980812462236 0 0 0 661.6678437362489,643.6159609422191 Z "/><path class="wedge" fill="rgb(223,159,159)" d=" M 645,644.2098081246223 L 645,738 A 328,328 0 1,1 924.2552379658207,582.0479935037106 L 844.4034015297885,532.8516083741778 A 234.20980812462236,234.20980812462236 0 1 0 645,644.2098081246223 Z "/><path class="wedge" fill="rgb(223,159,159)" d=" M 855.9288032343951,537.8713328612711 L 925.4838477048622,580.0376757565087 A 328,328 0 0,1 924.2552379658207,582.0479935037106 L 855.0048670290887,539.3831272836876 A 246.6617882883608,246.6617882883608 0 0 0 855.9288032343951,537.8713328612711 Z "/><path class="wedge" fill="rgb(226,168,168)" d=" M 645,656.6617882883609 L 645,738 A 328,328 0 1,1 926.9667401367349,577.5671729685233 L 857.0439645120931,536.0134711671983 A 246.6617882883608,246.6617882883608 0 1 0 645,656.6617882883609 Z "/><path class="wedge" fill="rgb(226,168,168)" d=" M 866.3290094722911,540.3680260107136 L 927.617002498613,576.4681047489246 A 328,328 0 0,1 926.9667401367349,577.5671729685233 L 865.819762246614,541.228751580073 A 256.87030314910993,256.87030314910993 0 0 0 866.3290094722911,540.3680260107136 Z "/><path class="wedge" fill="rgb(229,178,178)" d=" M 645,666.87030314911 L 645,738 A 328,328 0 1,1 927.6593810620138,576.3961366668086 L 866.3621978699368,540.3116648428166 A 256.87030314910993,256.87030314910993 0 1 0 645,666.87030314911 Z "/><path class="wedge" fill="rgb(229,178,178)" d=" M 875.8722815040671,540.8815514044807 L 930.3386854651651,571.7585687900694 A 328,328 0 0,1 927.6593810620138,576.3961366668086 L 873.7044116991334,544.6338847923887 A 265.3902614357523,265.3902614357523 0 0 0 875.8722815040671,540.8815514044807 Z "/><path class="wedge" fill="rgb(229,178,178)" d=" M 645,675.3902614357523 L 645,738 A 328,328 0 1,1 930.5881337135679,571.3177543917634 L 876.0741142353426,540.5248811349346 A 265.3902614357523,265.3902614357523 0 1 0 645,675.3902614357523 Z "/><path class="wedge" fill="rgb(229,178,178)" d=" M 381.93093204899867,481.4821807353103 L 328.47699397006863,496.0068988731487 A 328,328 0 1,1 930.5881337135679,571.3177543917634 L 882.3584312123896,544.0746501307292 A 272.6078441191378,272.6078441191378 0 1 0 381.93093204899867,481.4821807353103 Z "/><path class="wedge" fill="rgb(229,178,178)" d=" M 645,682.6078441191378 L 645,738 A 328,328 0 0,1 479.88541561162276,693.4099045944822 L 507.7697229184666,645.5480582119277 A 272.6078441191378,272.6078441191378 0 0 0 645,682.6078441191378 Z "/><path class="wedge" fill="rgb(229,180,178)" d=" M 507.7697229184666,645.5480582119277 L 479.88541561162276,693.4099045944822 A 328,328 0 0,1 406.17117874920064,634.8216941043585 L 446.5042375771484,596.8541382347604 A 272.6078441191378,272.6078441191378 0 0 0 507.7697229184666,645.5480582119277 Z "/><path class="wedge" fill="rgb(229,181,178)" d=" M 446.5042375771484,596.8541382347604 L 406.17117874920064,634.8216941043585 A 328,328 0 0,1 358.66958120710024,569.9965351933679 L 407.02463971688337,542.976556480475 A 272.6078441191378,272.6078441191378 0 0 0 446.5042375771484,596.8541382347604 Z "/><path class="wedge" fill="rgb(229,182,178)" d=" M 407.02463971688337,542.976556480475 L 358.66958120710024,569.9965351933679 A 328,328 0 0,1 328.47699397006863,496.0068988731487 L 381.93093204899867,481.4821807353103 A 272.6078441191378,272.6078441191378 0 0 0 407.02463971688337,542.976556480475 Z "/><path class="wedge" fill="rgb(229,198,178)" d=" M 876.0741142353426,540.5248811349346 L 930.5881337135679,571.3177543917634 A 328,328 0 0,1 930.3386854651651,571.7585687900694 L 875.8722815040671,540.8815514044807 A 265.3902614357523,265.3902614357523 0 0 0 876.0741142353426,540.5248811349346 Z "/><path class="wedge" fill="url(#hiddenPattern)" d=" M 876.0741142353426,540.5248811349346 L 930.5881337135679,571.3177543917634 A 328,328 0 0,1 930.3386854651651,571.7585687900694 L 875.8722815040671,540.8815514044807 A 265.3902614357523,265.3902614357523 0 0 0 876.0741142353426,540.5248811349346 Z "/><path class="wedge" fill="rgb(226,191,168)" d=" M 866.3621978699368,540.3116648428166 L 927.6593810620138,576.3961366668086 A 328,328 0 0,1 927.617002498613,576.4681047489246 L 866.3290094722911,540.3680260107136 A 256.87030314910993,256.87030314910993 0 0 0 866.3621978699368,540.3116648428166 Z "/><path class="wedge" fill="url(#hiddenPattern)" d=" M 866.3621978699368,540.3116648428166 L 927.6593810620138,576.3961366668086 A 328,328 0 0,1 927.617002498613,576.4681047489246 L 866.3290094722911,540.3680260107136 A 256.87030314910993,256.87030314910993 0 0 0 866.3621978699368,540.3116648428166 Z "/><path class="wedge" fill="rgb(223,184,159)" d=" M 857.0439645120931,536.0134711671983 L 926.9667401367349,577.5671729685233 A 328,328 0 0,1 925.4838477048622,580.0376757565087 L 855.9288032343951,537.8713328612711 A 246.6617882883608,246.6617882883608 0 0 0 857.0439645120931,536.0134711671983 Z "/><path class="wedge" fill="url(#hiddenPattern)" d=" M 857.0439645120931,536.0134711671983 L 926.9667401367349,577.5671729685233 A 328,328 0 0,1 925.4838477048622,580.0376757565087 L 855.9288032343951,537.8713328612711 A 246.6617882883608,246.6617882883608 0 0 0 857.0439645120931,536.0134711671983 Z "/><path class="wedge" fill="rgb(223,185,159)" d=" M 844.4034015297885,532.8516083741778 L 924.2552379658207,582.0479935037106 A 328,328 0 0,1 668.3425439748477,737.1683444968085 L 661.6678437362489,643.6159609422191 A 234.20980812462236,234.20980812462236 0 0 0 844.4034015297885,532.8516083741778 Z "/><path class="wedge" fill="rgb(223,185,159)" d=" M 662.7207259255035,656.0244168254145 L 668.5642421304842,737.1524514546941 A 328,328 0 0,1 668.3425439748477,737.1683444968085 L 662.5540050001086,656.0363686735526 A 246.6617882883608,246.6617882883608 0 0 0 662.7207259255035,656.0244168254145 Z "/><path class="wedge" fill="rgb(226,192,168)" d=" M 855.0048670290887,539.3831272836876 L 924.2552379658207,582.0479935037106 A 328,328 0 0,1 669.1003036598112,737.1133983246557 L 663.1238536555535,655.9950481824466 A 246.6617882883608,246.6617882883608 0 0 0 855.0048670290887,539.3831272836876 Z "/><path class="wedge" fill="rgb(226,192,168)" d=" M 664.1948146522296,666.152126148471 L 669.5100314390045,737.0829533296699 A 328,328 0 0,1 669.1003036598112,737.1133983246557 L 663.8739399606137,666.1759688774082 A 256.87030314910993,256.87030314910993 0 0 0 664.1948146522296,666.152126148471 Z "/><path class="wedge" fill="rgb(229,199,178)" d=" M 863.6962732690769,544.7378666082141 L 924.2552379658207,582.0479935037106 A 328,328 0 0,1 669.5167479692086,737.0824499556867 L 664.2000746435394,666.1517319355818 A 256.87030314910993,256.87030314910993 0 0 0 863.6962732690769,544.7378666082141 Z "/><path class="wedge" fill="rgb(229,199,178)" d=" M 672.9150239021486,673.9180598319854 L 679.5006172810201,736.1804828729465 A 328,328 0 0,1 669.5167479692086,737.0824499556867 L 664.8369090033619,674.6478564170307 A 265.3902614357523,265.3902614357523 0 0 0 672.9150239021486,673.9180598319854 Z "/><path class="wedge" fill="rgb(229,199,178)" d=" M 870.9500628385744,549.2068962666048 L 924.2552379658207,582.0479935037106 A 328,328 0 0,1 683.579572767278,735.7232207950399 L 676.2153747036206,673.5480814710088 A 265.3902614357523,265.3902614357523 0 0 0 870.9500628385744,549.2068962666048 Z "/><path class="wedge" fill="rgb(229,199,178)" d=" M 842.4621341371359,597.9461153024766 L 882.5851663632805,636.1355538700899 A 328,328 0 0,1 683.579572767278,735.7232207950399 L 677.0643114607471,680.7155640258468 A 272.6078441191378,272.6078441191378 0 0 0 842.4621341371359,597.9461153024766 Z "/><path class="wedge" fill="rgb(229,199,178)" d=" M 877.095025551339,552.9927822989937 L 924.2552379658207,582.0479935037106 A 328,328 0 0,1 901.3618778548944,614.6034886865623 L 858.0678623059648,580.0503535063968 A 272.6078441191378,272.6078441191378 0 0 0 877.095025551339,552.9927822989937 Z "/><path class="wedge" fill="rgb(229,199,178)" d=" M 858.0678623059648,580.0503535063968 L 901.3618778548944,614.6034886865623 A 328,328 0 0,1 882.5851663632805,636.1355538700899 L 842.4621341371359,597.9461153024766 A 272.6078441191378,272.6078441191378 0 0 0 858.0678623059648,580.0503535063968 Z "/><path class="wedge" fill="rgb(229,202,178)" d=" M 676.2153747036206,673.5480814710088 L 683.579572767278,735.7232207950399 A 328,328 0 0,1 679.5006172810201,736.1804828729465 L 672.9150239021486,673.9180598319854 A 265.3902614357523,265.3902614357523 0 0 0 676.2153747036206,673.5480814710088 Z "/><path class="wedge" fill="url(#hiddenPattern)" d=" M 676.2153747036206,673.5480814710088 L 683.579572767278,735.7232207950399 A 328,328 0 0,1 679.5006172810201,736.1804828729465 L 672.9150239021486,673.9180598319854 A 265.3902614357523,265.3902614357523 0 0 0 676.2153747036206,673.5480814710088 Z "/><path class="wedge" fill="rgb(226,196,168)" d=" M 664.2000746435394,666.1517319355818 L 669.5167479692086,737.0824499556867 A 328,328 0 0,1 669.5100314390045,737.0829533296699 L 664.1948146522296,666.152126148471 A 256.87030314910993,256.87030314910993 0 0 0 664.2000746435394,666.1517319355818 Z "/><path class="wedge" fill="url(#hiddenPattern)" d=" M 664.2000746435394,666.1517319355818 L 669.5167479692086,737.0824499556867 A 328,328 0 0,1 669.5100314390045,737.0829533296699 L 664.1948146522296,666.152126148471 A 256.87030314910993,256.87030314910993 0 0 0 664.2000746435394,666.1517319355818 Z "/><path class="wedge" fill="rgb(223,189,159)" d=" M 663.1238536555535,655.9950481824466 L 669.1003036598112,737.1133983246557 A 328,328 0 0,1 668.5642421304842,737.1524514546941 L 662.7207259255035,656.0244168254145 A 246.6617882883608,246.6617882883608 0 0 0 663.1238536555535,655.9950481824466 Z "/><path class="wedge" fill="url(#hiddenPattern)" d=" M 663.1238536555535,655.9950481824466 L 669.1003036598112,737.1133983246557 A 328,328 0 0,1 668.5642421304842,737.1524514546941 L 662.7207259255035,656.0244168254145 A 246.6617882883608,246.6617882883608 0 0 0 663.1238536555535,655.9950481824466 Z "/><path class="wedge" fill="rgb(216,177,140)" d=" M 651.8731991062893,628.5797862460626 L 655.3088012787452,737.8379609139176 A 328,328 0 0,1 655.110877459866,737.8441247864472 L 651.7412371275635,628.5838958919871 A 218.68782275501553,218.68782275501553 0 0 0 651.8731991062893,628.5797862460626 Z "/><path class="wedge" fill="url(#hiddenPattern)" d=" M 651.8731991062893,628.5797862460626 L 655.3088012787452,737.8379609139176 A 328,328 0 0,1 655.110877459866,737.8441247864472 L 651.7412371275635,628.5838958919871 A 218.68782275501553,218.68782275501553 0 0 0 651.8731991062893,628.5797862460626 Z "/><path class="wedge" fill="rgb(213,171,130)" d=" M 650.1278502944936,608.7434429875858 L 653.4600292229675,737.8908780456488 A 328,328 0 0,1 653.0479553501604,737.901251011157 L 649.8780812837329,608.7497303197964 A 198.80958472669897,198.80958472669897 0 0 0 650.1278502944936,608.7434429875858 Z "/><path class="wedge" fill="url(#hiddenPattern)" d=" M 650.1278502944936,608.7434429875858 L 653.4600292229675,737.8908780456488 A 328,328 0 0,1 653.0479553501604,737.901251011157 L 649.8780812837329,608.7497303197964 A 198.80958472669897,198.80958472669897 0 0 0 650.1278502944936,608.7434429875858 Z "/><path class="wedge" fill="rgb(210,165,121)" d=" M 649.1005957218309,582.4126517328616 L 652.7988195144187,737.9072710602519 A 328,328 0 0,1 651.8830393988874,737.9277721825849 L 648.6190813058423,582.4234311610015 A 172.4614083290257,172.4614083290257 0 0 0 649.1005957218309,582.4126517328616 Z "/><path class="wedge" fill="url(#hiddenPattern)" d=" M 649.1005957218309,582.4126517328616 L 652.7988195144187,737.9072710602519 A 328,328 0 0,1 651.8830393988874,737.9277721825849 L 648.6190813058423,582.4234311610015 A 172.4614083290257,172.4614083290257 0 0 0 649.1005957218309,582.4126517328616 Z "/><path class="wedge" fill="rgb(207,159,111)" d=" M 647.5564699603021,545.8959773833112 L 651.1692320127934,737.941977453897 A 328,328 0 0,1 651.1315205913268,737.9426847106643 L 647.5408427127064,545.8962704636616 A 135.92002136412196,135.92002136412196 0 0 0 647.5564699603021,545.8959773833112 Z "/><path class="wedge" fill="url(#hiddenPattern)" d=" M 647.5564699603021,545.8959773833112 L 651.1692320127934,737.941977453897 A 328,328 0 0,1 651.1315205913268,737.9426847106643 L 647.5408427127064,545.8962704636616 A 135.92002136412196,135.92002136412196 0 0 0 647.5564699603021,545.8959773833112 Z "/><path class="wedge" fill="rgb(101,204,204)" d=" M 646.5322067288141,491.98568376576594 L 651.1288269152564,737.9427350630638 A 328,328 0 0,1 647.6294589588018,737.9894601135591 L 645.6573647397005,491.99736502838977 A 82,82 0 0 0 646.5322067288141,491.98568376576594 Z "/><path class="wedge" fill="url(#hiddenPattern)" d=" M 646.5322067288141,491.98568376576594 L 651.1288269152564,737.9427350630638 A 328,328 0 0,1 647.6294589588018,737.9894601135591 L 645.6573647397005,491.99736502838977 A 82,82 0 0 0 646.5322067288141,491.98568376576594 Z "/><rect fill="rgb(101,204,204)" x="1405.7" y="756.3666666666668" width="22" height="22"/><rect fill="url(#hiddenPattern)" style="stroke:none" x="1405.7" y="756.3666666666668" width="22" height="22"/><path class="line" d="M 649.3792052555821,737.9707647966957 L 650.109072798179,792.6325589294784 A 382.6666666666667,382.6666666666667 0 0,0 781.8314413186285,767.3666666666668 L 1041.3333333333333,767.3666666666668 L 1322.1401041666668,767.3666666666668"/><text x="1398.3666666666668" y="767.3666666666668" style="font-color:black;font-weight:normal" text-anchor="end">Viruses&#160;&#160;&#160;0.2%</text><circle cx="645" cy="410" r="82"/><circle cx="645" cy="410" r="328"/><text x="645" y="410" text-anchor="middle" style="font-color:black;font-weight:bold" transform="rotate(360,645,410)">all</text><rect fill="rgb(220,220,220)" x="1405.7" y="785.7" width="22" height="22"/><path class="line" d="M 646.3147400413418,737.9973650178058 L 646.5886442166213,806.3301493965153 A 396.3333333333333,396.3333333333333 0 0,0 731.8517191027964,796.7 L 1030.3333333333333,796.7 L 1313.3798502604168,796.7"/><text x="1398.3666666666668" y="796.7" style="font-color:black;font-weight:normal" text-anchor="end">[other all]&#160;&#160;&#160;0.1%</text><path class="line" d=" M 646.5322067288141,491.98568376576594 A 82,82 0 1 0 645,492"/><line x1="651.1288269152564" y1="737.9427350630638" x2="646.5322067288141" y2="491.98568376576594"/><text x="645" y="311.8239935907634" text-anchor="middle" style="font-color:black;font-weight:normal" transform="rotate(359.4646701936992,645,410)">cellular organisms</text><path class="line" d=" M 647.5564699603021,545.8959773833112 A 135.92002136412196,135.92002136412196 0 1 0 645,545.920021364122"/><line x1="651.1692320127934" y1="737.941977453897" x2="647.5564699603021" y2="545.8959773833112"/><text x="645" y="263.11756254640693" text-anchor="middle" style="font-color:black;font-weight:normal" transform="rotate(359.46114054662473,645,410)">Bacteria</text><path class="line" d=" M 649.1005957218309,582.4126517328616 A 172.4614083290257,172.4614083290257 0 1 0 645,582.4614083290257"/><line x1="652.7988195144187" y1="737.9072710602519" x2="649.1005957218309" y2="582.4126517328616"/><text x="645" y="224.36450347213767" text-anchor="middle" style="font-color:black;font-weight:normal" transform="rotate(359.3187781146194,645,410)">Terrabacteria group</text><path class="line" d=" M 650.1278502944936,608.7434429875858 A 198.80958472669897,198.80958472669897 0 1 0 645,608.809584726699"/><line x1="653.4600292229675" y1="737.8908780456488" x2="650.1278502944936" y2="608.7434429875858"/><text x="645" y="201.25129625914275" text-anchor="middle" style="font-color:black;font-weight:normal" transform="rotate(359.26100955749996,645,410)">Firmicutes</text><path class="line" d=" M 651.8731991062893,628.5797862460626 A 218.68782275501553,218.68782275501553 0 1 0 645,628.6878227550155"/><line x1="655.3088012787452" y1="737.8379609139176" x2="651.8731991062893" y2="628.5797862460626"/><text x="645" y="183.55118456018104" text-anchor="middle" style="font-color:black;font-weight:normal" transform="rotate(359.0994693763898,645,410)">Bacilli</text><path class="line" d=" M 844.4034015297885,532.8516083741778 A 234.20980812462236,234.20980812462236 0 1 0 645,644.2098081246223"/><line x1="924.2552379658207" y1="582.0479935037106" x2="844.4034015297885" y2="532.8516083741778"/><path class="line" d=" M 857.0439645120931,536.0134711671983 A 246.6617882883608,246.6617882883608 0 1 0 645,656.6617882883609"/><line x1="926.9667401367349" y1="577.5671729685233" x2="857.0439645120931" y2="536.0134711671983"/><path class="line" d=" M 866.3621978699368,540.3116648428166 A 256.87030314910993,256.87030314910993 0 1 0 645,666.87030314911"/><line x1="927.6593810620138" y1="576.3961366668086" x2="866.3621978699368" y2="540.3116648428166"/><path class="line" d=" M 876.0741142353426,540.5248811349346 A 265.3902614357523,265.3902614357523 0 1 0 645,675.3902614357523"/><line x1="930.5881337135679" y1="571.3177543917634" x2="876.0741142353426" y2="540.5248811349346"/><text x="348.30486928212383" y="410" text-anchor="end" style="font-color:black;font-weight:normal" transform="rotate(59.730217308604914,645,410)">Enterococcus faecalis&#160;&#160;&#160;83%</text><path class="line" d=" M 507.7697229184666,645.5480582119277 A 272.6078441191378,272.6078441191378 0 0 0 645,682.6078441191378"/><line x1="479.88541561162276" y1="693.4099045944822" x2="507.7697229184666" y2="645.5480582119277"/><text x="344.6960779404311" y="410" text-anchor="end" style="font-color:black;font-weight:normal" transform="rotate(-74.88746308577436,645,410)">Enterococcus faecalis V583&#160;&#160;&#160;8%</text><path class="line" d=" M 446.5042375771484,596.8541382347604 A 272.6078441191378,272.6078441191378 0 0 0 507.7697229184666,645.5480582119277"/><line x1="406.17117874920064" y1="634.8216941043585" x2="446.5042375771484" y2="596.8541382347604"/><text x="344.6960779404311" y="410" text-anchor="end" style="font-color:black;font-weight:normal" transform="rotate(-51.522258346634885,645,410)">Enterococcus faecalis str. Symbioflor 1&#160;&#160;&#160;5%</text><path class="line" d=" M 407.02463971688337,542.976556480475 A 272.6078441191378,272.6078441191378 0 0 0 446.5042375771484,596.8541382347604"/><line x1="358.66958120710024" y1="569.9965351933679" x2="407.02463971688337" y2="542.976556480475"/><text x="344.6960779404311" y="410" text-anchor="end" style="font-color:black;font-weight:normal" transform="rotate(-36.23265080417125,645,410)">Enterococcus faecalis OG1RF&#160;&#160;&#160;4%</text><path class="line" d=" M 381.93093204899867,481.4821807353103 A 272.6078441191378,272.6078441191378 0 0 0 407.02463971688337,542.976556480475"/><line x1="328.47699397006863" y1="496.0068988731487" x2="381.93093204899867" y2="481.4821807353103"/><text x="344.6960779404311" y="410" text-anchor="end" style="font-color:black;font-weight:normal" transform="rotate(-22.198656381013627,645,410)">Enterococcus faecalis D32&#160;&#160;&#160;4%</text><path class="line" d=" M 875.8722815040671,540.8815514044807 A 265.3902614357523,265.3902614357523 0 0 0 876.0741142353426,540.5248811349346"/><line x1="930.3386854651651" y1="571.7585687900694" x2="875.8722815040671" y2="540.8815514044807"/><path class="line" d=" M 866.3290094722911,540.3680260107136 A 256.87030314910993,256.87030314910993 0 0 0 866.3621978699368,540.3116648428166"/><line x1="927.617002498613" y1="576.4681047489246" x2="866.3290094722911" y2="540.3680260107136"/><path class="line" d=" M 855.9288032343951,537.8713328612711 A 246.6617882883608,246.6617882883608 0 0 0 857.0439645120931,536.0134711671983"/><line x1="925.4838477048622" y1="580.0376757565087" x2="855.9288032343951" y2="537.8713328612711"/><path class="line" d=" M 661.6678437362489,643.6159609422191 A 234.20980812462236,234.20980812462236 0 0 0 844.4034015297885,532.8516083741778"/><line x1="668.3425439748477" y1="737.1683444968085" x2="661.6678437362489" y2="643.6159609422191"/><path class="line" d=" M 663.1238536555535,655.9950481824466 A 246.6617882883608,246.6617882883608 0 0 0 855.0048670290887,539.3831272836876"/><line x1="669.1003036598112" y1="737.1133983246557" x2="663.1238536555535" y2="655.9950481824466"/><path class="line" d=" M 664.2000746435394,666.1517319355818 A 256.87030314910993,256.87030314910993 0 0 0 863.6962732690769,544.7378666082141"/><line x1="669.5167479692086" y1="737.0824499556867" x2="664.2000746435394" y2="666.1517319355818"/><path class="line" d=" M 676.2153747036206,673.5480814710088 A 265.3902614357523,265.3902614357523 0 0 0 870.9500628385744,549.2068962666048"/><line x1="683.579572767278" y1="735.7232207950399" x2="676.2153747036206" y2="673.5480814710088"/><text x="941.6951307178762" y="410" text-anchor="start" style="font-color:black;font-weight:normal" transform="rotate(417.4411235258822,645,410)">14%&#160;&#160;&#160;Staphylococcus epidermidis</text><path class="line" d=" M 858.0678623059648,580.0503535063968 A 272.6078441191378,272.6078441191378 0 0 0 877.095025551339,552.9927822989937"/><line x1="901.3618778548944" y1="614.6034886865623" x2="858.0678623059648" y2="580.0503535063968"/><text x="945.3039220595689" y="410" text-anchor="start" style="font-color:black;font-weight:normal" transform="rotate(395.1152821952836,645,410)">2%&#160;&#160;&#160;Staphylococcus epidermidis RP62A</text><path class="line" d=" M 842.4621341371359,597.9461153024766 A 272.6078441191378,272.6078441191378 0 0 0 858.0678623059648,580.0503535063968"/><line x1="882.5851663632805" y1="636.1355538700899" x2="842.4621341371359" y2="597.9461153024766"/><text x="945.3039220595689" y="410" text-anchor="start" style="font-color:black;font-weight:normal" transform="rotate(401.08956283360067,645,410)">1%&#160;&#160;&#160;Staphylococcus epidermidis ATCC 12228</text><path class="line" d=" M 672.9150239021486,673.9180598319854 A 265.3902614357523,265.3902614357523 0 0 0 676.2153747036206,673.5480814710088"/><line x1="679.5006172810201" y1="736.1804828729465" x2="672.9150239021486" y2="673.9180598319854"/><path class="line" d=" M 664.1948146522296,666.152126148471 A 256.87030314910993,256.87030314910993 0 0 0 664.2000746435394,666.1517319355818"/><line x1="669.5100314390045" y1="737.0829533296699" x2="664.1948146522296" y2="666.152126148471"/><path class="line" d=" M 662.7207259255035,656.0244168254145 A 246.6617882883608,246.6617882883608 0 0 0 663.1238536555535,655.9950481824466"/><line x1="668.5642421304842" y1="737.1524514546941" x2="662.7207259255035" y2="656.0244168254145"/><path class="line" d=" M 651.7412371275635,628.5838958919871 A 218.68782275501553,218.68782275501553 0 0 0 651.8731991062893,628.5797862460626"/><line x1="655.110877459866" y1="737.8441247864472" x2="651.7412371275635" y2="628.5838958919871"/><path class="line" d=" M 649.8780812837329,608.7497303197964 A 198.80958472669897,198.80958472669897 0 0 0 650.1278502944936,608.7434429875858"/><line x1="653.0479553501604" y1="737.901251011157" x2="649.8780812837329" y2="608.7497303197964"/><path class="line" d=" M 648.6190813058423,582.4234311610015 A 172.4614083290257,172.4614083290257 0 0 0 649.1005957218309,582.4126517328616"/><line x1="651.8830393988874" y1="737.9277721825849" x2="648.6190813058423" y2="582.4234311610015"/><path class="line" d=" M 647.5408427127064,545.8962704636616 A 135.92002136412196,135.92002136412196 0 0 0 647.5564699603021,545.8959773833112"/><line x1="651.1315205913268" y1="737.9426847106643" x2="647.5408427127064" y2="545.8962704636616"/><path class="line" d=" M 645.6573647397005,491.99736502838977 A 82,82 0 0 0 646.5322067288141,491.98568376576594"/><line x1="647.6294589588018" y1="737.9894601135591" x2="645.6573647397005" y2="491.99736502838977"/></svg>