<?xml version="1.0" standalone="no"?><!DOCTYPE svg PUBLIC "-//W3C//DTD SVG 1.1//EN" 	"http://www.w3.org/Graphics/SVG/1.1/DTD/svg11.dtd"><svg width="1440" height="820" version="1.1"	xmlns="http://www.w3.org/2000/svg"><title>Krona (snapshot) - all</title><defs>	<style type="text/css">	text {font-size: 11px; font-family: sans-serif; dominant-baseline:central}	path {stroke-width:0.27499999999999997;}	path.wedge {stroke:none}	path.line {fill:none;stroke:black;}	line {stroke:black;stroke-width:0.27499999999999997;}	line.tick {stroke-width:0.5499999999999999;}	line.pattern {stroke-width:0.18333333333333332;}	circle {fill:none;stroke:black;stroke-width:0.27499999999999997;}	rect {stroke:black;stroke-width:0.27499999999999997;}	.highlight {stroke:black;stroke-width:1.375;}	.searchHighlight {fill:rgb(255, 255, 100);stroke:none;}	</style><pattern id="hiddenPattern" patternUnits="userSpaceOnUse" x="0" y="0" width="6.6" height="6.6"><line class="pattern" x1="0" y1="0" x2="3.3" y2="3.3"/><line class="pattern" x1="3.3" y1="6.6" x2="6.6" y2="3.3"/></pattern></defs><path class="wedge" fill="rgb(220,220,220)" d=" M 645.6678123671516,491.99728060516566 L 647.6712494686062,737.9891224206627 A 328,328 0 0,1 645.0000000000001,738 L 645,492 A 82,82 0 0 0 645.6678123671516,491.99728060516566 Z "/><path class="wedge" fill="rgb(207,111,111)" d=" M 645,492 L 645,738 A 328,328 0 1,1 650.125759154945,737.9599466292881 L 646.2814397887362,491.989986657322 A 82,82 0 1 0 645,492 Z "/><path class="wedge" fill="rgb(210,121,121)" d=" M 645,545.920021364122 L 645,738 A 328,328 0 1,1 650.1333578813004,737.9598277790475 L 647.1272137588294,545.9033743850667 A 135.92002136412196,135.92002136412196 0 1 0 645,545.920021364122 Z "/><path class="wedge" fill="rgb(210,121,121)" d=" M 648.1612268602908,582.4324331660628 L 651.0122575840109,737.9448928688225 A 328,328 0 0,1 650.1333578813004,737.9598277790475 L 647.6991040538596,582.4402858967051 A 172.4614083290257,172.4614083290257 0 0 0 648.1612268602908,582.4324331660628 Z "/><path class="wedge" fill="rgb(213,130,130)" d=" M 645,582.4614083290257 L 645,738 A 328,328 0 1,1 651.765746962612,737.9302131064442 L 648.5574092974691,582.4247145913869 A 172.4614083290257,172.4614083290257 0 1 0 645,582.4614083290257 Z "/><path class="wedge" fill="rgb(213,130,130)" d=" M 649.2482712926727,608.7641898588032 L 652.0088823228125,737.9251066456866 A 328,328 0 0,1 651.765746962612,737.9302131064442 L 649.1009004390329,608.7672850214332 A 198.80958472669897,198.80958472669897 0 0 0 649.2482712926727,608.7641898588032 Z "/><path class="wedge" fill="rgb(216,140,140)" d=" M 645,608.809584726699 L 645,738 A 328,328 0 1,1 652.2963342521161,737.918836766785 L 649.4225036057634,608.7603895172765 A 198.80958472669897,198.80958472669897 0 1 0 645,608.809584726699 Z "/><path class="wedge" fill="rgb(216,140,140)" d=" M 651.0550487404761,628.6039803070373 L 654.0816944531064,737.8742484945417 A 328,328 0 0,1 652.2963342521161,737.918836766785 L 649.8646934502686,628.6337086978218 A 218.68782275501553,218.68782275501553 0 0 0 651.0550487404761,628.6039803070373 Z "/><path class="wedge" fill="rgb(219,149,149)" d=" M 645,628.6878227550155 L 645,738 A 328,328 0 1,1 654.1981772569096,737.8710013635705 L 651.1327114561838,628.6018153436157 A 218.68782275501553,218.68782275501553 0 1 0 645,628.6878227550155 Z "/><path class="wedge" fill="rgb(219,149,149)" d=" M 661.0464396948081,643.6594658790722 L 667.4722963655582,737.229271148011 A 328,328 0 0,1 654.1981772569096,737.8710013635705 L 651.5679979586496,644.1176960944806 A 234.20980812462236,234.20980812462236 0 0 0 661.0464396948081,643.6594658790722 Z "/><path class="wedge" fill="rgb(223,159,159)" d=" M 645,644.2098081246223 L 645,738 A 328,328 0 1,1 809.8672589843577,693.5538518782362 L 762.7241740632892,612.4728452481686 A 234.20980812462236,234.20980812462236 0 1 0 645,644.2098081246223 Z "/><path class="wedge" fill="rgb(223,159,159)" d=" M 770.3704125356307,622.4248042537827 L 811.7120618764575,692.4731640791745 A 328,328 0 0,1 809.8672589843577,693.5538518782362 L 768.9830882051281,623.2375005498131 A 246.6617882883608,246.6617882883608 0 0 0 770.3704125356307,622.4248042537827 Z "/><path class="wedge" fill="rgb(226,168,168)" d=" M 645,656.6617882883609 L 645,738 A 328,328 0 1,1 814.0970993731995,691.0519008716544 L 772.1640028224635,621.3559892403823 A 246.6617882883608,246.6617882883608 0 1 0 645,656.6617882883609 Z "/><path class="wedge" fill="rgb(226,168,168)" d=" M 778.2148052155037,629.6273396262657 L 815.103182715213,690.4441249699391 A 328,328 0 0,1 814.0970993731995,691.0519008716544 L 777.4268999317956,630.1033139559008 A 256.87030314910993,256.87030314910993 0 0 0 778.2148052155037,629.6273396262657 Z "/><path class="wedge" fill="rgb(229,178,178)" d=" M 645,666.87030314911 L 645,738 A 328,328 0 1,1 815.151913656013,690.4145614607 L 778.2529684214062,629.6041872251059 A 256.87030314910993,256.87030314910993 0 1 0 645,666.87030314911 Z "/><path class="wedge" fill="rgb(229,178,178)" d=" M 787.2136658311111,634.0697751054657 L 820.7641073197287,686.9313607703159 A 328,328 0 0,1 815.151913656013,690.4145614607 L 782.6727464907403,636.8880907818507 A 265.3902614357523,265.3902614357523 0 0 0 787.2136658311111,634.0697751054657 Z "/><path class="wedge" fill="rgb(229,178,178)" d=" M 645,675.3902614357523 L 645,738 A 328,328 0 1,1 821.2621637695013,686.6146229382921 L 787.6166515976199,633.8134972516627 A 265.3902614357523,265.3902614357523 0 1 0 645,675.3902614357523 Z "/><path class="wedge" fill="rgb(229,178,178)" d=" M 373.8174244221945,437.8396727400294 L 318.71487391739424,443.4965147031461 A 328,328 0 1,1 821.2621637695013,686.6146229382921 L 791.4952697102992,639.900353692183 A 272.6078441191378,272.6078441191378 0 1 0 373.8174244221945,437.8396727400294 Z "/><path class="wedge" fill="rgb(229,178,178)" d=" M 645,682.6078441191378 L 645,738 A 328,328 0 0,1 454.2685906042624,676.8436423636799 L 486.47902950860765,631.779481895308 A 272.6078441191378,272.6078441191378 0 0 0 645,682.6078441191378 Z "/><path class="wedge" fill="rgb(229,180,178)" d=" M 486.47902950860765,631.779481895308 L 454.2685906042624,676.8436423636799 A 328,328 0 0,1 381.3555610849376,605.1297256421019 L 425.8794447968449,572.1765055818665 A 272.6078441191378,272.6078441191378 0 0 0 486.47902950860765,631.779481895308 Z "/><path class="wedge" fill="rgb(229,182,178)" d=" M 425.8794447968449,572.1765055818665 L 381.3555610849376,605.1297256421019 A 328,328 0 0,1 339.0814141309733,528.3123781347283 L 390.74449338496737,508.33195834120886 A 272.6078441191378,272.6078441191378 0 0 0 425.8794447968449,572.1765055818665 Z "/><path class="wedge" fill="rgb(229,183,178)" d=" M 390.74449338496737,508.33195834120886 L 339.0814141309733,528.3123781347283 A 328,328 0 0,1 318.71487391739424,443.4965147031461 L 373.8174244221945,437.8396727400294 A 272.6078441191378,272.6078441191378 0 0 0 390.74449338496737,508.33195834120886 Z "/><path class="wedge" fill="rgb(229,200,178)" d=" M 787.6166515976199,633.8134972516627 L 821.2621637695013,686.6146229382921 A 328,328 0 0,1 820.7641073197287,686.9313607703159 L 787.2136658311111,634.0697751054657 A 265.3902614357523,265.3902614357523 0 0 0 787.6166515976199,633.8134972516627 Z "/><path class="wedge" fill="url(#hiddenPattern)" d=" M 787.6166515976199,633.8134972516627 L 821.2621637695013,686.6146229382921 A 328,328 0 0,1 820.7641073197287,686.9313607703159 L 787.2136658311111,634.0697751054657 A 265.3902614357523,265.3902614357523 0 0 0 787.6166515976199,633.8134972516627 Z "/><path class="wedge" fill="rgb(226,193,168)" d=" M 778.2529684214062,629.6041872251059 L 815.151913656013,690.4145614607 A 328,328 0 0,1 815.103182715213,690.4441249699391 L 778.2148052155037,629.6273396262657 A 256.87030314910993,256.87030314910993 0 0 0 778.2529684214062,629.6041872251059 Z "/><path class="wedge" fill="url(#hiddenPattern)" d=" M 778.2529684214062,629.6041872251059 L 815.151913656013,690.4145614607 A 328,328 0 0,1 815.103182715213,690.4441249699391 L 778.2148052155037,629.6273396262657 A 256.87030314910993,256.87030314910993 0 0 0 778.2529684214062,629.6041872251059 Z "/><path class="wedge" fill="rgb(223,187,159)" d=" M 772.1640028224635,621.3559892403823 L 814.0970993731995,691.0519008716544 A 328,328 0 0,1 811.7120618764575,692.4731640791745 L 770.3704125356307,622.4248042537827 A 246.6617882883608,246.6617882883608 0 0 0 772.1640028224635,621.3559892403823 Z "/><path class="wedge" fill="url(#hiddenPattern)" d=" M 772.1640028224635,621.3559892403823 L 814.0970993731995,691.0519008716544 A 328,328 0 0,1 811.7120618764575,692.4731640791745 L 770.3704125356307,622.4248042537827 A 246.6617882883608,246.6617882883608 0 0 0 772.1640028224635,621.3559892403823 Z "/><path class="wedge" fill="rgb(223,187,159)" d=" M 762.7241740632892,612.4728452481686 L 809.8672589843577,693.5538518782362 A 328,328 0 0,1 667.4722963655582,737.229271148011 L 661.0464396948081,643.6594658790722 A 234.20980812462236,234.20980812462236 0 0 0 762.7241740632892,612.4728452481686 Z "/><path class="wedge" fill="rgb(223,187,159)" d=" M 662.0145447868921,656.0742633176151 L 667.6251935041369,737.2187351282018 A 328,328 0 0,1 667.4722963655582,737.229271148011 L 661.8995634404714,656.082186590443 A 246.6617882883608,246.6617882883608 0 0 0 662.0145447868921,656.0742633176151 Z "/><path class="wedge" fill="rgb(226,194,168)" d=" M 768.9830882051281,623.2375005498131 L 809.8672589843577,693.5538518782362 A 328,328 0 0,1 668.1546088514694,737.1816988905942 L 662.4126744707957,656.0464114133474 A 246.6617882883608,246.6617882883608 0 0 0 768.9830882051281,623.2375005498131 Z "/><path class="wedge" fill="rgb(226,194,168)" d=" M 663.3104362715262,666.2168623714333 L 668.3807607319026,737.1656155949117 A 328,328 0 0,1 668.1546088514694,737.1816988905942 L 663.1333274237073,666.2294578624017 A 256.87030314910993,256.87030314910993 0 0 0 663.3104362715262,666.2168623714333 Z "/><path class="wedge" fill="rgb(229,200,178)" d=" M 774.1143377886426,632.0626947898181 L 809.8672589843577,693.5538518782362 A 328,328 0 0,1 668.3971847363256,737.1644414456043 L 663.3232985855356,666.2159428467733 A 256.87030314910993,256.87030314910993 0 0 0 774.1143377886426,632.0626947898181 Z "/><path class="wedge" fill="rgb(229,200,178)" d=" M 668.5208242758744,674.3459129442338 L 674.0697568205775,736.709273266604 A 328,328 0 0,1 668.3971847363256,737.1644414456043 L 663.9310517501037,674.7141970967402 A 265.3902614357523,265.3902614357523 0 0 0 668.5208242758744,674.3459129442338 Z "/><path class="wedge" fill="rgb(229,200,178)" d=" M 778.3968444026054,639.428142930121 L 809.8672589843577,693.5538518782362 A 328,328 0 0,1 679.943905423665,736.1332909620573 L 673.2736957194288,673.8798760711056 A 265.3902614357523,265.3902614357523 0 0 0 778.3968444026054,639.428142930121 Z "/><path class="wedge" fill="rgb(229,200,178)" d=" M 757.4156736443388,658.3500613939398 L 780.2578135617728,708.8131922631408 A 328,328 0 0,1 679.943905423665,736.1332909620573 L 674.0426302519768,681.0563821483108 A 272.6078441191378,272.6078441191378 0 0 0 757.4156736443388,658.3500613939398 Z "/><path class="wedge" fill="rgb(229,200,178)" d=" M 782.024719626699,645.6676958908638 L 809.8672589843577,693.5538518782362 A 328,328 0 0,1 793.6632573381046,702.3751629629721 L 768.5572258617966,652.9992769796263 A 272.6078441191378,272.6078441191378 0 0 0 782.024719626699,645.6676958908638 Z "/><path class="wedge" fill="rgb(229,201,178)" d=" M 768.5572258617966,652.9992769796263 L 793.6632573381046,702.3751629629721 A 328,328 0 0,1 780.2578135617728,708.8131922631408 L 757.4156736443388,658.3500613939398 A 272.6078441191378,272.6078441191378 0 0 0 768.5572258617966,652.9992769796263 Z "/><path class="wedge" fill="rgb(229,202,178)" d=" M 673.2736957194288,673.8798760711056 L 679.943905423665,736.1332909620573 A 328,328 0 0,1 674.0697568205775,736.709273266604 L 668.5208242758744,674.3459129442338 A 265.3902614357523,265.3902614357523 0 0 0 673.2736957194288,673.8798760711056 Z "/><path class="wedge" fill="url(#hiddenPattern)" d=" M 673.2736957194288,673.8798760711056 L 679.943905423665,736.1332909620573 A 328,328 0 0,1 674.0697568205775,736.709273266604 L 668.5208242758744,674.3459129442338 A 265.3902614357523,265.3902614357523 0 0 0 673.2736957194288,673.8798760711056 Z "/><path class="wedge" fill="rgb(226,196,168)" d=" M 663.3232985855356,666.2159428467733 L 668.3971847363256,737.1644414456043 A 328,328 0 0,1 668.3807607319026,737.1656155949117 L 663.3104362715262,666.2168623714333 A 256.87030314910993,256.87030314910993 0 0 0 663.3232985855356,666.2159428467733 Z "/><path class="wedge" fill="url(#hiddenPattern)" d=" M 663.3232985855356,666.2159428467733 L 668.3971847363256,737.1644414456043 A 328,328 0 0,1 668.3807607319026,737.1656155949117 L 663.3104362715262,666.2168623714333 A 256.87030314910993,256.87030314910993 0 0 0 663.3232985855356,666.2159428467733 Z "/><path class="wedge" fill="rgb(223,189,159)" d=" M 662.4126744707957,656.0464114133474 L 668.1546088514694,737.1816988905942 A 328,328 0 0,1 667.6251935041369,737.2187351282018 L 662.0145447868921,656.0742633176151 A 246.6617882883608,246.6617882883608 0 0 0 662.4126744707957,656.0464114133474 Z "/><path class="wedge" fill="url(#hiddenPattern)" d=" M 662.4126744707957,656.0464114133474 L 668.1546088514694,737.1816988905942 A 328,328 0 0,1 667.6251935041369,737.2187351282018 L 662.0145447868921,656.0742633176151 A 246.6617882883608,246.6617882883608 0 0 0 662.4126744707957,656.0464114133474 Z "/><path class="wedge" fill="rgb(216,177,140)" d=" M 651.1327114561838,628.6018153436157 L 654.1981772569096,737.8710013635705 A 328,328 0 0,1 654.0816944531064,737.8742484945417 L 651.0550487404761,628.6039803070373 A 218.68782275501553,218.68782275501553 0 0 0 651.1327114561838,628.6018153436157 Z "/><path class="wedge" fill="url(#hiddenPattern)" d=" M 651.1327114561838,628.6018153436157 L 654.1981772569096,737.8710013635705 A 328,328 0 0,1 654.0816944531064,737.8742484945417 L 651.0550487404761,628.6039803070373 A 218.68782275501553,218.68782275501553 0 0 0 651.1327114561838,628.6018153436157 Z "/><path class="wedge" fill="rgb(213,171,130)" d=" M 649.4225036057634,608.7603895172765 L 652.2963342521161,737.918836766785 A 328,328 0 0,1 652.0088823228125,737.9251066456866 L 649.2482712926727,608.7641898588032 A 198.80958472669897,198.80958472669897 0 0 0 649.4225036057634,608.7603895172765 Z "/><path class="wedge" fill="url(#hiddenPattern)" d=" M 649.4225036057634,608.7603895172765 L 652.2963342521161,737.918836766785 A 328,328 0 0,1 652.0088823228125,737.9251066456866 L 649.2482712926727,608.7641898588032 A 198.80958472669897,198.80958472669897 0 0 0 649.4225036057634,608.7603895172765 Z "/><path class="wedge" fill="rgb(210,165,121)" d=" M 648.5574092974691,582.4247145913869 L 651.765746962612,737.9302131064442 A 328,328 0 0,1 651.0122575840109,737.9448928688225 L 648.1612268602908,582.4324331660628 A 172.4614083290257,172.4614083290257 0 0 0 648.5574092974691,582.4247145913869 Z "/><path class="wedge" fill="url(#hiddenPattern)" d=" M 648.5574092974691,582.4247145913869 L 651.765746962612,737.9302131064442 A 328,328 0 0,1 651.0122575840109,737.9448928688225 L 648.1612268602908,582.4324331660628 A 172.4614083290257,172.4614083290257 0 0 0 648.5574092974691,582.4247145913869 Z "/><path class="wedge" fill="rgb(207,159,111)" d=" M 647.1272137588294,545.9033743850667 L 650.1333578813004,737.9598277790475 A 328,328 0 0,1 650.125759154945,737.9599466292881 L 647.1240649202666,545.9034236354547 A 135.92002136412196,135.92002136412196 0 0 0 647.1272137588294,545.9033743850667 Z "/><path class="wedge" fill="url(#hiddenPattern)" d=" M 647.1272137588294,545.9033743850667 L 650.1333578813004,737.9598277790475 A 328,328 0 0,1 650.125759154945,737.9599466292881 L 647.1240649202666,545.9034236354547 A 135.92002136412196,135.92002136412196 0 0 0 647.1272137588294,545.9033743850667 Z "/><path class="wedge" fill="rgb(101,204,204)" d=" M 646.2814397887362,491.989986657322 L 650.125759154945,737.9599466292881 A 328,328 0 0,1 647.6712494686062,737.9891224206627 L 645.6678123671516,491.99728060516566 A 82,82 0 0 0 646.2814397887362,491.989986657322 Z "/><path class="wedge" fill="url(#hiddenPattern)" d=" M 646.2814397887362,491.989986657322 L 650.125759154945,737.9599466292881 A 328,328 0 0,1 647.6712494686062,737.9891224206627 L 645.6678123671516,491.99728060516566 A 82,82 0 0 0 646.2814397887362,491.989986657322 Z "/><rect fill="rgb(101,204,204)" x="1405.7" y="756.3666666666668" width="22" height="22"/><rect fill="url(#hiddenPattern)" style="stroke:none" x="1405.7" y="756.3666666666668" width="22" height="22"/><path class="line" d="M 648.8985316050577,737.976830662357 L 649.5482868725674,792.6396357727498 A 382.6666666666667,382.6666666666667 0 0,0 781.8314413186285,767.3666666666668 L 1041.3333333333333,767.3666666666668 L 1322.1401041666668,767.3666666666668"/><text x="1398.3666666666668" y="767.3666666666668" style="font-color:black;font-weight:normal" text-anchor="end">Viruses&#160;&#160;&#160;0.1%</text><circle cx="645" cy="410" r="82"/><circle cx="645" cy="410" r="328"/><text x="645" y="410" text-anchor="middle" style="font-color:black;font-weight:bold" transform="rotate(360,645,410)">all</text><rect fill="rgb(220,220,220)" x="1405.7" y="785.7" width="22" height="22"/><path class="line" d="M 646.3356358078889,737.9972805938926 L 646.6138932678658,806.3300473842868 A 396.3333333333333,396.3333333333333 0 0,0 731.8517191027964,796.7 L 1030.3333333333333,796.7 L 1313.3798502604168,796.7"/><text x="1398.3666666666668" y="796.7" style="font-color:black;font-weight:normal" text-anchor="end">[other all]&#160;&#160;&#160;0.1%</text><path class="line" d=" M 646.2814397887362,491.989986657322 A 82,82 0 1 0 645,492"/><line x1="650.125759154945" y1="737.9599466292881" x2="646.2814397887362" y2="491.989986657322"/><text x="645" y="311.8239935907634" text-anchor="middle" style="font-color:black;font-weight:normal" transform="rotate(359.55229219316965,645,410)">cellular organisms</text><path class="line" d=" M 647.1272137588294,545.9033743850667 A 135.92002136412196,135.92002136412196 0 1 0 645,545.920021364122"/><line x1="650.1333578813004" y1="737.9598277790475" x2="647.1272137588294" y2="545.9033743850667"/><text x="645" y="263.11756254640693" text-anchor="middle" style="font-color:black;font-weight:normal" transform="rotate(359.55162843066876,645,410)">Bacteria</text><path class="line" d=" M 648.5574092974691,582.4247145913869 A 172.4614083290257,172.4614083290257 0 1 0 645,582.4614083290257"/><line x1="651.765746962612" y1="737.9302131064442" x2="648.5574092974691" y2="582.4247145913869"/><text x="645" y="224.36450347213767" text-anchor="middle" style="font-color:black;font-weight:normal" transform="rotate(359.4090301200673,645,410)">Terrabacteria group</text><path class="line" d=" M 649.4225036057634,608.7603895172765 A 198.80958472669897,198.80958472669897 0 1 0 645,608.809584726699"/><line x1="652.2963342521161" y1="737.918836766785" x2="649.4225036057634" y2="608.7603895172765"/><text x="645" y="201.25129625914275" text-anchor="middle" style="font-color:black;font-weight:normal" transform="rotate(359.3626773720905,645,410)">Firmicutes</text><path class="line" d=" M 651.1327114561838,628.6018153436157 A 218.68782275501553,218.68782275501553 0 1 0 645,628.6878227550155"/><line x1="654.1981772569096" y1="737.8710013635705" x2="651.1327114561838" y2="628.6018153436157"/><text x="645" y="183.55118456018104" text-anchor="middle" style="font-color:black;font-weight:normal" transform="rotate(359.1965154927085,645,410)">Bacilli</text><path class="line" d=" M 762.7241740632892,612.4728452481686 A 234.20980812462236,234.20980812462236 0 1 0 645,644.2098081246223"/><line x1="809.8672589843577" y1="693.5538518782362" x2="762.7241740632892" y2="612.4728452481686"/><path class="line" d=" M 772.1640028224635,621.3559892403823 A 246.6617882883608,246.6617882883608 0 1 0 645,656.6617882883609"/><line x1="814.0970993731995" y1="691.0519008716544" x2="772.1640028224635" y2="621.3559892403823"/><path class="line" d=" M 778.2529684214062,629.6041872251059 A 256.87030314910993,256.87030314910993 0 1 0 645,666.87030314911"/><line x1="815.151913656013" y1="690.4145614607" x2="778.2529684214062" y2="629.6041872251059"/><path class="line" d=" M 787.6166515976199,633.8134972516627 A 265.3902614357523,265.3902614357523 0 1 0 645,675.3902614357523"/><line x1="821.2621637695013" y1="686.6146229382921" x2="787.6166515976199" y2="633.8134972516627"/><text x="348.30486928212383" y="410" text-anchor="end" style="font-color:black;font-weight:normal" transform="rotate(73.74711140393146,645,410)">Enterococcus faecalis&#160;&#160;&#160;91%</text><path class="line" d=" M 486.47902950860765,631.779481895308 A 272.6078441191378,272.6078441191378 0 0 0 645,682.6078441191378"/><line x1="454.2685906042624" y1="676.8436423636799" x2="486.47902950860765" y2="631.779481895308"/><text x="344.6960779404311" y="410" text-anchor="end" style="font-color:black;font-weight:normal" transform="rotate(-72.22200643112112,645,410)">Enterococcus faecalis V583&#160;&#160;&#160;10%</text><path class="line" d=" M 425.8794447968449,572.1765055818665 A 272.6078441191378,272.6078441191378 0 0 0 486.47902950860765,631.779481895308"/><line x1="381.3555610849376" y1="605.1297256421019" x2="425.8794447968449" y2="572.1765055818665"/><text x="344.6960779404311" y="410" text-anchor="end" style="font-color:black;font-weight:normal" transform="rotate(-45.47503269644911,645,410)">Enterococcus faecalis str. Symbioflor 1&#160;&#160;&#160;5%</text><path class="line" d=" M 390.74449338496737,508.33195834120886 A 272.6078441191378,272.6078441191378 0 0 0 425.8794447968449,572.1765055818665"/><line x1="339.0814141309733" y1="528.3123781347283" x2="390.74449338496737" y2="508.33195834120886"/><text x="344.6960779404311" y="410" text-anchor="end" style="font-color:black;font-weight:normal" transform="rotate(-28.824882243615587,645,410)">Enterococcus faecalis D32&#160;&#160;&#160;4%</text><path class="line" d=" M 373.8174244221945,437.8396727400294 A 272.6078441191378,272.6078441191378 0 0 0 390.74449338496737,508.33195834120886"/><line x1="318.71487391739424" y1="443.4965147031461" x2="373.8174244221945" y2="437.8396727400294"/><text x="344.6960779404311" y="410" text-anchor="end" style="font-color:black;font-weight:normal" transform="rotate(-13.502588673753365,645,410)">Enterococcus faecalis OG1RF&#160;&#160;&#160;4%</text><path class="line" d=" M 787.2136658311111,634.0697751054657 A 265.3902614357523,265.3902614357523 0 0 0 787.6166515976199,633.8134972516627"/><line x1="820.7641073197287" y1="686.9313607703159" x2="787.2136658311111" y2="634.0697751054657"/><path class="line" d=" M 778.2148052155037,629.6273396262657 A 256.87030314910993,256.87030314910993 0 0 0 778.2529684214062,629.6041872251059"/><line x1="815.103182715213" y1="690.4441249699391" x2="778.2148052155037" y2="629.6273396262657"/><path class="line" d=" M 770.3704125356307,622.4248042537827 A 246.6617882883608,246.6617882883608 0 0 0 772.1640028224635,621.3559892403823"/><line x1="811.7120618764575" y1="692.4731640791745" x2="770.3704125356307" y2="622.4248042537827"/><path class="line" d=" M 661.0464396948081,643.6594658790722 A 234.20980812462236,234.20980812462236 0 0 0 762.7241740632892,612.4728452481686"/><line x1="667.4722963655582" y1="737.229271148011" x2="661.0464396948081" y2="643.6594658790722"/><path class="line" d=" M 662.4126744707957,656.0464114133474 A 246.6617882883608,246.6617882883608 0 0 0 768.9830882051281,623.2375005498131"/><line x1="668.1546088514694" y1="737.1816988905942" x2="662.4126744707957" y2="656.0464114133474"/><path class="line" d=" M 663.3232985855356,666.2159428467733 A 256.87030314910993,256.87030314910993 0 0 0 774.1143377886426,632.0626947898181"/><line x1="668.3971847363256" y1="737.1644414456043" x2="663.3232985855356" y2="666.2159428467733"/><path class="line" d=" M 673.2736957194288,673.8798760711056 A 265.3902614357523,265.3902614357523 0 0 0 778.3968444026054,639.428142930121"/><line x1="679.943905423665" y1="736.1332909620573" x2="673.2736957194288" y2="673.8798760711056"/><text x="941.6951307178762" y="410" text-anchor="start" style="font-color:black;font-weight:normal" transform="rotate(431.8546138868949,645,410)">7%&#160;&#160;&#160;Staphylococcus epidermidis</text><path class="line" d=" M 768.5572258617966,652.9992769796263 A 272.6078441191378,272.6078441191378 0 0 0 782.024719626699,645.6676958908638"/><line x1="793.6632573381046" y1="702.3751629629721" x2="768.5572258617966" y2="652.9992769796263"/><text x="945.3039220595689" y="410" text-anchor="start" style="font-color:black;font-weight:normal" transform="rotate(421.43652955463995,645,410)">0.9%&#160;&#160;&#160;Staphylococcus epidermidis RP62A</text><path class="line" d=" M 757.4156736443388,658.3500613939398 A 272.6078441191378,272.6078441191378 0 0 0 768.5572258617966,652.9992769796263"/><line x1="780.2578135617728" y1="708.8131922631408" x2="757.4156736443388" y2="658.3500613939398"/><text x="945.3039220595689" y="410" text-anchor="start" style="font-color:black;font-weight:normal" transform="rotate(424.34712812091294,645,410)">0.7%&#160;&#160;&#160;Staphylococcus epidermidis ATCC 12228</text><path class="line" d=" M 668.5208242758744,674.3459129442338 A 265.3902614357523,265.3902614357523 0 0 0 673.2736957194288,673.8798760711056"/><line x1="674.0697568205775" y1="736.709273266604" x2="668.5208242758744" y2="674.3459129442338"/><path class="line" d=" M 663.3104362715262,666.2168623714333 A 256.87030314910993,256.87030314910993 0 0 0 663.3232985855356,666.2159428467733"/><line x1="668.3807607319026" y1="737.1656155949117" x2="663.3104362715262" y2="666.2168623714333"/><path class="line" d=" M 662.0145447868921,656.0742633176151 A 246.6617882883608,246.6617882883608 0 0 0 662.4126744707957,656.0464114133474"/><line x1="667.6251935041369" y1="737.2187351282018" x2="662.0145447868921" y2="656.0742633176151"/><path class="line" d=" M 651.0550487404761,628.6039803070373 A 218.68782275501553,218.68782275501553 0 0 0 651.1327114561838,628.6018153436157"/><line x1="654.0816944531064" y1="737.8742484945417" x2="651.0550487404761" y2="628.6039803070373"/><path class="line" d=" M 649.2482712926727,608.7641898588032 A 198.80958472669897,198.80958472669897 0 0 0 649.4225036057634,608.7603895172765"/><line x1="652.0088823228125" y1="737.9251066456866" x2="649.2482712926727" y2="608.7641898588032"/><path class="line" d=" M 648.1612268602908,582.4324331660628 A 172.4614083290257,172.4614083290257 0 0 0 648.5574092974691,582.4247145913869"/><line x1="651.0122575840109" y1="737.9448928688225" x2="648.1612268602908" y2="582.4324331660628"/><path class="line" d=" M 647.1240649202666,545.9034236354547 A 135.92002136412196,135.92002136412196 0 0 0 647.1272137588294,545.9033743850667"/><path class="line" d=" M 645.6678123671516,491.99728060516566 A 82,82 0 0 0 646.2814397887362,491.989986657322"/><line x1="647.6712494686062" y1="737.9891224206627" x2="645.6678123671516" y2="491.99728060516566"/></svg>