<?xml version="1.0" standalone="no"?><!DOCTYPE svg PUBLIC "-//W3C//DTD SVG 1.1//EN" 	"http://www.w3.org/Graphics/SVG/1.1/DTD/svg11.dtd"><svg width="1440" height="820" version="1.1"	xmlns="http://www.w3.org/2000/svg"><title>Krona (snapshot) - all</title><defs>	<style type="text/css">	text {font-size: 11px; font-family: sans-serif; dominant-baseline:central}	path {stroke-width:0.27499999999999997;}	path.wedge {stroke:none}	path.line {fill:none;stroke:black;}	line {stroke:black;stroke-width:0.27499999999999997;}	line.tick {stroke-width:0.5499999999999999;}	line.pattern {stroke-width:0.18333333333333332;}	circle {fill:none;stroke:black;stroke-width:0.27499999999999997;}	rect {stroke:black;stroke-width:0.27499999999999997;}	.highlight {stroke:black;stroke-width:1.375;}	.searchHighlight {fill:rgb(255, 255, 100);stroke:none;}	</style><pattern id="hiddenPattern" patternUnits="userSpaceOnUse" x="0" y="0" width="6.6" height="6.6"><line class="pattern" x1="0" y1="0" x2="3.3" y2="3.3"/><line class="pattern" x1="3.3" y1="6.6" x2="6.6" y2="3.3"/></pattern></defs><path class="wedge" fill="rgb(220,220,220)" d=" M 645.5660968097026,491.99804591819276 L 647.2643872388104,737.992183672771 A 328,328 0 0,1 645.0000000000001,738 L 645,492 A 82,82 0 0 0 645.5660968097026,491.99804591819276 Z "/><path class="wedge" fill="rgb(207,111,111)" d=" M 645,492 L 645,738 A 328,328 0 1,1 657.3782232197042,737.7663490810537 L 648.094555804926,491.9415872702634 A 82,82 0 1 0 645,492 Z "/><path class="wedge" fill="rgb(207,111,111)" d=" M 650.1299329428495,545.8231791544625 L 657.3794713123756,737.7663019439706 A 328,328 0 0,1 657.3782232197042,737.7663490810537 L 650.1294157453417,545.8231986876131 A 135.92002136412196,135.92002136412196 0 0 0 650.1299329428495,545.8231791544625 Z "/><path class="wedge" fill="rgb(210,121,121)" d=" M 645,545.920021364122 L 645,738 A 328,328 0 1,1 657.3857117730402,737.7660661872659 L 650.1325189292728,545.8230814591689 A 135.92002136412196,135.92002136412196 0 1 0 645,545.920021364122 Z "/><path class="wedge" fill="rgb(210,121,121)" d=" M 652.2138375009731,582.3104695349081 L 658.7198154836183,737.7129333167909 A 328,328 0 0,1 657.3857117730402,737.7660661872659 L 651.5123698034631,582.3384066375626 A 172.4614083290257,172.4614083290257 0 0 0 652.2138375009731,582.3104695349081 Z "/><path class="wedge" fill="rgb(213,130,130)" d=" M 645,582.4614083290257 L 645,738 A 328,328 0 1,1 659.4473005752975,737.6816679432754 L 652.5963469627089,582.294030296041 A 172.4614083290257,172.4614083290257 0 1 0 645,582.4614083290257 Z "/><path class="wedge" fill="rgb(213,130,130)" d=" M 653.972438112757,608.6070148144704 L 659.8029065350645,737.6657961370306 A 328,328 0 0,1 659.4473005752975,737.6816679432754 L 653.7568958164534,608.6166351413251 A 198.80958472669897,198.80958472669897 0 0 0 653.972438112757,608.6070148144704 Z "/><path class="wedge" fill="rgb(216,140,140)" d=" M 645,608.809584726699 L 645,738 A 328,328 0 1,1 722.3763499977124,728.7426869138044 L 691.8998780814419,603.1984793292856 A 198.80958472669897,198.80958472669897 0 1 0 645,608.809584726699 Z "/><path class="wedge" fill="rgb(216,140,140)" d=" M 697.5864359097066,622.2711251669512 L 723.872022964471,728.3758847549418 A 328,328 0 0,1 722.3763499977124,728.7426869138044 L 696.589224127225,622.5156835983641 A 218.68782275501553,218.68782275501553 0 0 0 697.5864359097066,622.2711251669512 Z "/><path class="wedge" fill="rgb(219,149,149)" d=" M 645,628.6878227550155 L 645,738 A 328,328 0 1,1 724.0393143056099,728.3343946137443 L 697.6979742608024,622.2434623966941 A 218.68782275501553,218.68782275501553 0 1 0 645,628.6878227550155 Z "/><path class="wedge" fill="rgb(219,149,149)" d=" M 710.5108990461738,634.8611934681803 L 736.7449830952918,724.907697709733 A 328,328 0 0,1 724.0393143056099,728.3343946137443 L 701.4383617006665,637.3080411035148 A 234.20980812462236,234.20980812462236 0 0 0 710.5108990461738,634.8611934681803 Z "/><path class="wedge" fill="rgb(223,159,159)" d=" M 645,644.2098081246223 L 645,738 A 328,328 0 1,1 971.1495351492817,444.79196346726326 L 877.8884757538051,434.84335087788594 A 234.20980812462236,234.20980812462236 0 1 0 645,644.2098081246223 Z "/><path class="wedge" fill="rgb(223,159,159)" d=" M 890.4427513521637,434.4927256607357 L 971.3789782850142,442.5693496040399 A 328,328 0 0,1 971.1495351492817,444.79196346726326 L 890.2702060650593,436.1641705088368 A 246.6617882883608,246.6617882883608 0 0 0 890.4427513521637,434.4927256607357 Z "/><path class="wedge" fill="rgb(226,168,168)" d=" M 645,656.6617882883609 L 645,738 A 328,328 0 1,1 971.5783296824179,440.5056483596384 L 890.5926671210094,432.9407859063546 A 246.6617882883608,246.6617882883608 0 1 0 645,656.6617882883609 Z "/><path class="wedge" fill="rgb(226,168,168)" d=" M 900.8463128900453,432.91324552490704 L 971.6924576299573,439.25812925835504 A 328,328 0 0,1 971.5783296824179,440.5056483596384 L 900.7569345958923,433.89022909116 A 256.87030314910993,256.87030314910993 0 0 0 900.8463128900453,432.91324552490704 Z "/><path class="wedge" fill="rgb(229,178,178)" d=" M 645,666.87030314911 L 645,738 A 328,328 0 1,1 971.699689354338,439.1772681342696 L 900.8519763511244,432.8499198497338 A 256.87030314910993,256.87030314910993 0 1 0 645,666.87030314911 Z "/><path class="wedge" fill="rgb(229,178,178)" d=" M 909.6625842143867,429.63943435793453 L 972.1006522721796,434.27268594767935 A 328,328 0 0,1 971.699689354338,439.1772681342696 L 909.3381584412402,433.6078134699233 A 265.3902614357523,265.3902614357523 0 0 0 909.6625842143867,429.63943435793453 Z "/><path class="wedge" fill="rgb(229,178,178)" d=" M 645,675.3902614357523 L 645,738 A 328,328 0 1,1 972.131440112892,433.85415874989764 L 909.6874951689468,429.3007970334307 A 265.3902614357523,265.3902614357523 0 1 0 645,675.3902614357523 Z "/><path class="wedge" fill="rgb(229,178,178)" d=" M 394.4345052472743,517.3870081276403 L 343.5212126068664,539.2073556418742 A 328,328 0 1,1 972.131440112892,433.85415874989764 L 916.8859653437937,429.8257036283087 A 272.6078441191378,272.6078441191378 0 1 0 394.4345052472743,517.3870081276403 Z "/><path class="wedge" fill="rgb(229,178,178)" d=" M 645,682.6078441191378 L 645,738 A 328,328 0 0,1 497.6978894797114,703.063283671409 L 522.5740524904426,653.5711888784698 A 272.6078441191378,272.6078441191378 0 0 0 645,682.6078441191378 Z "/><path class="wedge" fill="rgb(229,180,178)" d=" M 522.5740524904426,653.5711888784698 L 497.6978894797114,703.063283671409 A 328,328 0 0,1 427.06185827803563,655.1264293844647 L 463.86692998123226,613.7298397900031 A 272.6078441191378,272.6078441191378 0 0 0 522.5740524904426,653.5711888784698 Z "/><path class="wedge" fill="rgb(229,181,178)" d=" M 463.86692998123226,613.7298397900031 L 427.06185827803563,655.1264293844647 A 328,328 0 0,1 378.4062611809119,601.0805547994348 L 423.42821830752405,568.8111527346424 A 272.6078441191378,272.6078441191378 0 0 0 463.86692998123226,613.7298397900031 Z "/><path class="wedge" fill="rgb(229,182,178)" d=" M 423.42821830752405,568.8111527346424 L 378.4062611809119,601.0805547994348 A 328,328 0 0,1 343.5212126068664,539.2073556418742 L 394.4345052472743,517.3870081276403 A 272.6078441191378,272.6078441191378 0 0 0 423.42821830752405,568.8111527346424 Z "/><path class="wedge" fill="rgb(229,196,178)" d=" M 909.6874951689468,429.3007970334307 L 972.131440112892,433.85415874989764 A 328,328 0 0,1 972.1006522721796,434.27268594767935 L 909.6625842143867,429.63943435793453 A 265.3902614357523,265.3902614357523 0 0 0 909.6874951689468,429.3007970334307 Z "/><path class="wedge" fill="url(#hiddenPattern)" d=" M 909.6874951689468,429.3007970334307 L 972.131440112892,433.85415874989764 A 328,328 0 0,1 972.1006522721796,434.27268594767935 L 909.6625842143867,429.63943435793453 A 265.3902614357523,265.3902614357523 0 0 0 909.6874951689468,429.3007970334307 Z "/><path class="wedge" fill="rgb(226,189,168)" d=" M 900.8519763511244,432.8499198497338 L 971.699689354338,439.1772681342696 A 328,328 0 0,1 971.6924576299573,439.25812925835504 L 900.8463128900453,432.91324552490704 A 256.87030314910993,256.87030314910993 0 0 0 900.8519763511244,432.8499198497338 Z "/><path class="wedge" fill="url(#hiddenPattern)" d=" M 900.8519763511244,432.8499198497338 L 971.699689354338,439.1772681342696 A 328,328 0 0,1 971.6924576299573,439.25812925835504 L 900.8463128900453,432.91324552490704 A 256.87030314910993,256.87030314910993 0 0 0 900.8519763511244,432.8499198497338 Z "/><path class="wedge" fill="rgb(223,182,159)" d=" M 890.5926671210094,432.9407859063546 L 971.5783296824179,440.5056483596384 A 328,328 0 0,1 971.3789782850142,442.5693496040399 L 890.4427513521637,434.4927256607357 A 246.6617882883608,246.6617882883608 0 0 0 890.5926671210094,432.9407859063546 Z "/><path class="wedge" fill="url(#hiddenPattern)" d=" M 890.5926671210094,432.9407859063546 L 971.5783296824179,440.5056483596384 A 328,328 0 0,1 971.3789782850142,442.5693496040399 L 890.4427513521637,434.4927256607357 A 246.6617882883608,246.6617882883608 0 0 0 890.5926671210094,432.9407859063546 Z "/><path class="wedge" fill="rgb(223,182,159)" d=" M 877.8884757538051,434.84335087788594 L 971.1495351492817,444.79196346726326 A 328,328 0 0,1 736.7449830952918,724.907697709733 L 710.5108990461738,634.8611934681803 A 234.20980812462236,234.20980812462236 0 0 0 877.8884757538051,434.84335087788594 Z "/><path class="wedge" fill="rgb(223,182,159)" d=" M 714.2454000347664,646.7427134583814 L 737.0794881485706,724.8100504467691 A 328,328 0 0,1 736.7449830952918,724.907697709733 L 713.9938463316162,646.8161459233332 A 246.6617882883608,246.6617882883608 0 0 0 714.2454000347664,646.7427134583814 Z "/><path class="wedge" fill="rgb(226,190,168)" d=" M 890.2702060650593,436.1641705088368 L 971.1495351492817,444.79196346726326 A 328,328 0 0,1 737.5612803182962,724.6687295964405 L 714.6077162486927,646.6364376850142 A 246.6617882883608,246.6617882883608 0 0 0 890.2702060650593,436.1641705088368 Z "/><path class="wedge" fill="rgb(226,190,168)" d=" M 717.9904287167595,656.2818506420222 L 738.2021347956279,724.479509776929 A 328,328 0 0,1 737.5612803182962,724.6687295964405 L 717.4885491927758,656.4300364725091 A 256.87030314910993,256.87030314910993 0 0 0 717.9904287167595,656.2818506420222 Z "/><path class="wedge" fill="rgb(229,197,178)" d=" M 900.421127944321,437.2470189115508 L 971.1495351492817,444.79196346726326 A 328,328 0 0,1 738.2236895435481,724.4731208034927 L 718.0073091272247,656.2768471739021 A 256.87030314910993,256.87030314910993 0 0 0 900.421127944321,437.2470189115508 Z "/><path class="wedge" fill="rgb(229,197,178)" d=" M 729.4181814923492,661.6059647513582 L 749.3337588187792,720.9637708331065 A 328,328 0 0,1 738.2236895435481,724.4731208034927 L 720.4288394511209,664.4454382455972 A 265.3902614357523,265.3902614357523 0 0 0 729.4181814923492,661.6059647513582 Z "/><path class="wedge" fill="rgb(229,197,178)" d=" M 908.8930195134665,438.1507569525614 L 971.1495351492817,444.79196346726326 A 328,328 0 0,1 775.2985340074933,711.0087906282773 L 750.426713429707,653.5512245100554 A 265.3902614357523,265.3902614357523 0 0 0 908.8930195134665,438.1507569525614 Z "/><path class="wedge" fill="rgb(229,197,178)" d=" M 900.7538687266211,504.3662826789864 L 952.7214054987738,523.5409027525287 A 328,328 0 0,1 775.2985340074933,711.0087906282773 L 753.2939099014235,660.1748703478158 A 272.6078441191378,272.6078441191378 0 0 0 900.7538687266211,504.3662826789864 Z "/><path class="wedge" fill="rgb(229,197,178)" d=" M 916.0698830411727,438.91634802890985 L 971.1495351492817,444.79196346726326 A 328,328 0 0,1 963.0550136665685,490.1561493683357 L 909.3423523991651,476.6194971713219 A 272.6078441191378,272.6078441191378 0 0 0 916.0698830411727,438.91634802890985 Z "/><path class="wedge" fill="rgb(229,197,178)" d=" M 909.3423523991651,476.6194971713219 L 963.0550136665685,490.1561493683357 A 328,328 0 0,1 952.7214054987738,523.5409027525287 L 900.7538687266211,504.3662826789864 A 272.6078441191378,272.6078441191378 0 0 0 909.3423523991651,476.6194971713219 Z "/><path class="wedge" fill="rgb(229,201,178)" d=" M 750.426713429707,653.5512245100554 L 775.2985340074933,711.0087906282773 A 328,328 0 0,1 758.2564085375485,717.826226831269 L 736.6376459483365,659.0673256571088 A 265.3902614357523,265.3902614357523 0 0 0 750.426713429707,653.5512245100554 Z "/><path class="wedge" fill="rgb(229,201,178)" d=" M 752.8116762572275,660.3830647985021 L 774.7183135967148,711.2592888486998 A 328,328 0 0,1 758.2564085375485,717.826226831269 L 739.1298334271263,665.840987987198 A 272.6078441191378,272.6078441191378 0 0 0 752.8116762572275,660.3830647985021 Z "/><path class="wedge" fill="rgb(229,201,178)" d=" M 753.2939099014235,660.1748703478158 L 775.2985340074933,711.0087906282773 A 328,328 0 0,1 774.7183135967148,711.2592888486998 L 752.8116762572275,660.3830647985021 A 272.6078441191378,272.6078441191378 0 0 0 753.2939099014235,660.1748703478158 Z "/><path class="wedge" fill="url(#hiddenPattern)" d=" M 753.2939099014235,660.1748703478158 L 775.2985340074933,711.0087906282773 A 328,328 0 0,1 774.7183135967148,711.2592888486998 L 752.8116762572275,660.3830647985021 A 272.6078441191378,272.6078441191378 0 0 0 753.2939099014235,660.1748703478158 Z "/><path class="wedge" fill="rgb(229,201,178)" d=" M 736.6376459483365,659.0673256571088 L 758.2564085375485,717.826226831269 A 328,328 0 0,1 749.3337588187792,720.9637708331065 L 729.4181814923492,661.6059647513582 A 265.3902614357523,265.3902614357523 0 0 0 736.6376459483365,659.0673256571088 Z "/><path class="wedge" fill="url(#hiddenPattern)" d=" M 736.6376459483365,659.0673256571088 L 758.2564085375485,717.826226831269 A 328,328 0 0,1 749.3337588187792,720.9637708331065 L 729.4181814923492,661.6059647513582 A 265.3902614357523,265.3902614357523 0 0 0 736.6376459483365,659.0673256571088 Z "/><path class="wedge" fill="rgb(226,195,168)" d=" M 718.0073091272247,656.2768471739021 L 738.2236895435481,724.4731208034927 A 328,328 0 0,1 738.2021347956279,724.479509776929 L 717.9904287167595,656.2818506420222 A 256.87030314910993,256.87030314910993 0 0 0 718.0073091272247,656.2768471739021 Z "/><path class="wedge" fill="url(#hiddenPattern)" d=" M 718.0073091272247,656.2768471739021 L 738.2236895435481,724.4731208034927 A 328,328 0 0,1 738.2021347956279,724.479509776929 L 717.9904287167595,656.2818506420222 A 256.87030314910993,256.87030314910993 0 0 0 718.0073091272247,656.2768471739021 Z "/><path class="wedge" fill="rgb(223,188,159)" d=" M 714.6077162486927,646.6364376850142 L 737.5612803182962,724.6687295964405 A 328,328 0 0,1 737.0794881485706,724.8100504467691 L 714.2454000347664,646.7427134583814 A 246.6617882883608,246.6617882883608 0 0 0 714.6077162486927,646.6364376850142 Z "/><path class="wedge" fill="url(#hiddenPattern)" d=" M 714.6077162486927,646.6364376850142 L 737.5612803182962,724.6687295964405 A 328,328 0 0,1 737.0794881485706,724.8100504467691 L 714.2454000347664,646.7427134583814 A 246.6617882883608,246.6617882883608 0 0 0 714.6077162486927,646.6364376850142 Z "/><path class="wedge" fill="rgb(216,176,140)" d=" M 697.6979742608024,622.2434623966941 L 724.0393143056099,728.3343946137443 A 328,328 0 0,1 723.872022964471,728.3758847549418 L 697.5864359097066,622.2711251669512 A 218.68782275501553,218.68782275501553 0 0 0 697.6979742608024,622.2434623966941 Z "/><path class="wedge" fill="url(#hiddenPattern)" d=" M 697.6979742608024,622.2434623966941 L 724.0393143056099,728.3343946137443 A 328,328 0 0,1 723.872022964471,728.3758847549418 L 697.5864359097066,622.2711251669512 A 218.68782275501553,218.68782275501553 0 0 0 697.6979742608024,622.2434623966941 Z "/><path class="wedge" fill="rgb(216,176,140)" d=" M 691.8998780814419,603.1984793292856 L 722.3763499977124,728.7426869138044 A 328,328 0 0,1 659.8415854377582,737.664046458707 L 653.9958824316053,608.6059542875773 A 198.80958472669897,198.80958472669897 0 0 0 691.8998780814419,603.1984793292856 Z "/><path class="wedge" fill="rgb(216,176,140)" d=" M 654.897011343039,628.463756691596 L 659.8440808437394,737.6639334194481 A 328,328 0 0,1 659.8415854377582,737.664046458707 L 654.8953475780972,628.463832058393 A 218.68782275501553,218.68782275501553 0 0 0 654.897011343039,628.463756691596 Z "/><path class="wedge" fill="rgb(219,183,149)" d=" M 696.589224127225,622.5156835983641 L 722.3763499977124,728.7426869138044 A 328,328 0 0,1 659.845328546407,737.6638768926921 L 654.8978432252947,628.4637190034459 A 218.68782275501553,218.68782275501553 0 0 0 696.589224127225,622.5156835983641 Z "/><path class="wedge" fill="rgb(219,183,149)" d=" M 655.659171451491,643.9671265065674 L 659.9276764456795,737.6601356221613 A 328,328 0 0,1 659.845328546407,737.6638768926921 L 655.6003705804908,643.9697979768514 A 234.20980812462236,234.20980812462236 0 0 0 655.659171451491,643.9671265065674 Z "/><path class="wedge" fill="rgb(223,189,159)" d=" M 700.250914897402,637.5995839731972 L 722.3763499977124,728.7426869138044 A 328,328 0 0,1 660.0087757279987,737.6564308099973 L 655.7170807421953,643.9644810695369 A 234.20980812462236,234.20980812462236 0 0 0 700.250914897402,637.5995839731972 Z "/><path class="wedge" fill="rgb(223,189,159)" d=" M 656.2878024835708,656.4033752137012 L 660.0100234020963,737.656373656104 A 328,328 0 0,1 660.0087757279987,737.6564308099973 L 656.2868642106314,656.4034181944376 A 246.6617882883608,246.6617882883608 0 0 0 656.2878024835708,656.4033752137012 Z "/><path class="wedge" fill="rgb(226,196,168)" d=" M 703.1883806757984,649.7001254816954 L 722.3763499977124,728.7426869138044 A 328,328 0 0,1 660.0112710759762,737.6563164974598 L 656.2887407563464,656.403332229392 A 246.6617882883608,246.6617882883608 0 0 0 703.1883806757984,649.7001254816954 Z "/><path class="wedge" fill="rgb(226,196,168)" d=" M 656.9171643092719,666.593713552654 L 660.2171342717346,737.6468202570505 A 328,328 0 0,1 660.0112710759762,737.6563164974598 L 656.755944365669,666.6011504494611 A 256.87030314910993,256.87030314910993 0 0 0 656.9171643092719,666.593713552654 Z "/><path class="wedge" fill="rgb(229,202,178)" d=" M 705.5966051234269,659.6205201649718 L 722.3763499977124,728.7426869138044 A 328,328 0 0,1 660.2283630012914,737.6462985603544 L 656.9259579896537,666.593304990494 A 256.87030314910993,256.87030314910993 0 0 0 705.5966051234269,659.6205201649718 Z "/><path class="wedge" fill="rgb(229,202,178)" d=" M 657.8514755404854,675.0789136113419 L 660.8833408372811,737.6152003247817 A 328,328 0 0,1 660.2283630012914,737.6462985603544 L 657.3215220675344,675.1040757115518 A 265.3902614357523,265.3902614357523 0 0 0 657.8514755404854,675.0789136113419 Z "/><path class="wedge" fill="rgb(229,202,178)" d=" M 707.6064931549914,667.9000152767948 L 722.3763499977124,728.7426869138044 A 328,328 0 0,1 665.2780295144828,737.3725729486357 L 661.4072913239345,674.882599761382 A 265.3902614357523,265.3902614357523 0 0 0 707.6064931549914,667.9000152767948 Z "/><path class="wedge" fill="rgb(229,202,178)" d=" M 707.6064931549914,667.9000152767948 L 722.3763499977124,728.7426869138044 A 328,328 0 0,1 665.2780295144828,737.3725729486357 L 661.4072913239345,674.882599761382 A 265.3902614357523,265.3902614357523 0 0 0 707.6064931549914,667.9000152767948 Z "/><path class="wedge" fill="rgb(229,203,178)" d=" M 661.4072913239345,674.882599761382 L 665.2780295144828,737.3725729486357 A 328,328 0 0,1 660.8833408372811,737.6152003247817 L 657.8514755404854,675.0789136113419 A 265.3902614357523,265.3902614357523 0 0 0 661.4072913239345,674.882599761382 Z "/><path class="wedge" fill="url(#hiddenPattern)" d=" M 661.4072913239345,674.882599761382 L 665.2780295144828,737.3725729486357 A 328,328 0 0,1 660.8833408372811,737.6152003247817 L 657.8514755404854,675.0789136113419 A 265.3902614357523,265.3902614357523 0 0 0 661.4072913239345,674.882599761382 Z "/><path class="wedge" fill="rgb(226,196,168)" d=" M 656.9259579896537,666.593304990494 L 660.2283630012914,737.6462985603544 A 328,328 0 0,1 660.2171342717346,737.6468202570505 L 656.9171643092719,666.593713552654 A 256.87030314910993,256.87030314910993 0 0 0 656.9259579896537,666.593304990494 Z "/><path class="wedge" fill="url(#hiddenPattern)" d=" M 656.9259579896537,666.593304990494 L 660.2283630012914,737.6462985603544 A 328,328 0 0,1 660.2171342717346,737.6468202570505 L 656.9171643092719,666.593713552654 A 256.87030314910993,256.87030314910993 0 0 0 656.9259579896537,666.593304990494 Z "/><path class="wedge" fill="rgb(223,190,159)" d=" M 656.2887407563464,656.403332229392 L 660.0112710759762,737.6563164974598 A 328,328 0 0,1 660.0100234020963,737.656373656104 L 656.2878024835708,656.4033752137012 A 246.6617882883608,246.6617882883608 0 0 0 656.2887407563464,656.403332229392 Z "/><path class="wedge" fill="url(#hiddenPattern)" d=" M 656.2887407563464,656.403332229392 L 660.0112710759762,737.6563164974598 A 328,328 0 0,1 660.0100234020963,737.656373656104 L 656.2878024835708,656.4033752137012 A 246.6617882883608,246.6617882883608 0 0 0 656.2887407563464,656.403332229392 Z "/><path class="wedge" fill="rgb(219,184,149)" d=" M 655.7170807421953,643.9644810695369 L 660.0087757279987,737.6564308099973 A 328,328 0 0,1 659.9276764456795,737.6601356221613 L 655.659171451491,643.9671265065674 A 234.20980812462236,234.20980812462236 0 0 0 655.7170807421953,643.9644810695369 Z "/><path class="wedge" fill="url(#hiddenPattern)" d=" M 655.7170807421953,643.9644810695369 L 660.0087757279987,737.6564308099973 A 328,328 0 0,1 659.9276764456795,737.6601356221613 L 655.659171451491,643.9671265065674 A 234.20980812462236,234.20980812462236 0 0 0 655.7170807421953,643.9644810695369 Z "/><path class="wedge" fill="rgb(216,177,140)" d=" M 654.8978432252947,628.4637190034459 L 659.845328546407,737.6638768926921 A 328,328 0 0,1 659.8440808437394,737.6639334194481 L 654.897011343039,628.463756691596 A 218.68782275501553,218.68782275501553 0 0 0 654.8978432252947,628.4637190034459 Z "/><path class="wedge" fill="url(#hiddenPattern)" d=" M 654.8978432252947,628.4637190034459 L 659.845328546407,737.6638768926921 A 328,328 0 0,1 659.8440808437394,737.6639334194481 L 654.897011343039,628.463756691596 A 218.68782275501553,218.68782275501553 0 0 0 654.8978432252947,628.4637190034459 Z "/><path class="wedge" fill="rgb(213,171,130)" d=" M 653.9958824316053,608.6059542875773 L 659.8415854377582,737.664046458707 A 328,328 0 0,1 659.8029065350645,737.6657961370306 L 653.972438112757,608.6070148144704 A 198.80958472669897,198.80958472669897 0 0 0 653.9958824316053,608.6059542875773 Z "/><path class="wedge" fill="url(#hiddenPattern)" d=" M 653.9958824316053,608.6059542875773 L 659.8415854377582,737.664046458707 A 328,328 0 0,1 659.8029065350645,737.6657961370306 L 653.972438112757,608.6070148144704 A 198.80958472669897,198.80958472669897 0 0 0 653.9958824316053,608.6059542875773 Z "/><path class="wedge" fill="rgb(210,165,121)" d=" M 652.5963469627089,582.294030296041 L 659.4473005752975,737.6816679432754 A 328,328 0 0,1 658.7198154836183,737.7129333167909 L 652.2138375009731,582.3104695349081 A 172.4614083290257,172.4614083290257 0 0 0 652.5963469627089,582.294030296041 Z "/><path class="wedge" fill="url(#hiddenPattern)" d=" M 652.5963469627089,582.294030296041 L 659.4473005752975,737.6816679432754 A 328,328 0 0,1 658.7198154836183,737.7129333167909 L 652.2138375009731,582.3104695349081 A 172.4614083290257,172.4614083290257 0 0 0 652.5963469627089,582.294030296041 Z "/><path class="wedge" fill="rgb(207,159,111)" d=" M 650.1325189292728,545.8230814591689 L 657.3857117730402,737.7660661872659 A 328,328 0 0,1 657.3794713123756,737.7663019439706 L 650.1299329428495,545.8231791544625 A 135.92002136412196,135.92002136412196 0 0 0 650.1325189292728,545.8230814591689 Z "/><path class="wedge" fill="url(#hiddenPattern)" d=" M 650.1325189292728,545.8230814591689 L 657.3857117730402,737.7660661872659 A 328,328 0 0,1 657.3794713123756,737.7663019439706 L 650.1299329428495,545.8231791544625 A 135.92002136412196,135.92002136412196 0 0 0 650.1325189292728,545.8230814591689 Z "/><path class="wedge" fill="rgb(101,204,204)" d=" M 648.094555804926,491.9415872702634 L 657.3782232197042,737.7663490810537 A 328,328 0 0,1 647.2643872388104,737.992183672771 L 645.5660968097026,491.99804591819276 A 82,82 0 0 0 648.094555804926,491.9415872702634 Z "/><path class="wedge" fill="url(#hiddenPattern)" d=" M 648.094555804926,491.9415872702634 L 657.3782232197042,737.7663490810537 A 328,328 0 0,1 647.2643872388104,737.992183672771 L 645.5660968097026,491.99804591819276 A 82,82 0 0 0 648.094555804926,491.9415872702634 Z "/><rect fill="rgb(101,204,204)" x="1405.7" y="756.3666666666668" width="22" height="22"/><rect fill="url(#hiddenPattern)" style="stroke:none" x="1405.7" y="756.3666666666668" width="22" height="22"/><path class="line" d="M 652.3221759454177,737.9182607593307 L 653.5425386029873,792.571304219219 A 382.6666666666667,382.6666666666667 0 0,0 781.8314413186285,767.3666666666668 L 1041.3333333333333,767.3666666666668 L 1322.1401041666668,767.3666666666668"/><text x="1398.3666666666668" y="767.3666666666668" style="font-color:black;font-weight:normal" text-anchor="end">Viruses&#160;&#160;&#160;0.5%</text><circle cx="645" cy="410" r="82"/><circle cx="645" cy="410" r="328"/><text x="645" y="410" text-anchor="middle" style="font-color:black;font-weight:bold" transform="rotate(360,645,410)">all</text><rect fill="rgb(220,220,220)" x="1405.7" y="785.7" width="22" height="22"/><path class="line" d="M 646.1322003645843,737.9980459123719 L 646.3680754405393,806.330972144116 A 396.3333333333333,396.3333333333333 0 0,0 731.8517191027964,796.7 L 1030.3333333333333,796.7 L 1313.3798502604168,796.7"/><text x="1398.3666666666668" y="796.7" style="font-color:black;font-weight:normal" text-anchor="end">[other all]&#160;&#160;&#160;0.1%</text><path class="line" d=" M 648.094555804926,491.9415872702634 A 82,82 0 1 0 645,492"/><line x1="657.3782232197042" y1="737.7663490810537" x2="648.094555804926" y2="491.9415872702634"/><text x="645" y="311.8239935907634" text-anchor="middle" style="font-color:black;font-weight:normal" transform="rotate(358.9186152428016,645,410)">cellular organisms</text><path class="line" d=" M 650.1325189292728,545.8230814591689 A 135.92002136412196,135.92002136412196 0 1 0 645,545.920021364122"/><line x1="657.3857117730402" y1="737.7660661872659" x2="650.1325189292728" y2="545.8230814591689"/><text x="645" y="263.11756254640693" text-anchor="middle" style="font-color:black;font-weight:normal" transform="rotate(358.9179607175778,645,410)">Bacteria</text><path class="line" d=" M 652.5963469627089,582.294030296041 A 172.4614083290257,172.4614083290257 0 1 0 645,582.4614083290257"/><line x1="659.4473005752975" y1="737.6816679432754" x2="652.5963469627089" y2="582.294030296041"/><text x="645" y="224.36450347213767" text-anchor="middle" style="font-color:black;font-weight:normal" transform="rotate(358.7377481059676,645,410)">Terrabacteria group</text><path class="line" d=" M 691.8998780814419,603.1984793292856 A 198.80958472669897,198.80958472669897 0 1 0 645,608.809584726699"/><line x1="722.3763499977124" y1="728.7426869138044" x2="691.8998780814419" y2="603.1984793292856"/><text x="645" y="201.25129625914275" text-anchor="middle" style="font-color:black;font-weight:normal" transform="rotate(353.17755633007704,645,410)">Firmicutes</text><path class="line" d=" M 697.6979742608024,622.2434623966941 A 218.68782275501553,218.68782275501553 0 1 0 645,628.6878227550155"/><line x1="724.0393143056099" y1="728.3343946137443" x2="697.6979742608024" y2="622.2434623966941"/><text x="645" y="183.55118456018104" text-anchor="middle" style="font-color:black;font-weight:normal" transform="rotate(353.0279973164466,645,410)">Bacilli</text><path class="line" d=" M 877.8884757538051,434.84335087788594 A 234.20980812462236,234.20980812462236 0 1 0 645,644.2098081246223"/><line x1="971.1495351492817" y1="444.79196346726326" x2="877.8884757538051" y2="434.84335087788594"/><path class="line" d=" M 890.5926671210094,432.9407859063546 A 246.6617882883608,246.6617882883608 0 1 0 645,656.6617882883609"/><line x1="971.5783296824179" y1="440.5056483596384" x2="890.5926671210094" y2="432.9407859063546"/><path class="line" d=" M 900.8519763511244,432.8499198497338 A 256.87030314910993,256.87030314910993 0 1 0 645,666.87030314911"/><line x1="971.699689354338" y1="439.1772681342696" x2="900.8519763511244" y2="432.8499198497338"/><path class="line" d=" M 909.6874951689468,429.3007970334307 A 265.3902614357523,265.3902614357523 0 1 0 645,675.3902614357523"/><line x1="972.131440112892" y1="433.85415874989764" x2="909.6874951689468" y2="429.3007970334307"/><text x="348.30486928212383" y="410" text-anchor="end" style="font-color:black;font-weight:normal" transform="rotate(47.085290091033556,645,410)">Enterococcus faecalis&#160;&#160;&#160;76%</text><path class="line" d=" M 522.5740524904426,653.5711888784698 A 272.6078441191378,272.6078441191378 0 0 0 645,682.6078441191378"/><line x1="497.6978894797114" y1="703.063283671409" x2="522.5740524904426" y2="653.5711888784698"/><text x="344.6960779404311" y="410" text-anchor="end" style="font-color:black;font-weight:normal" transform="rotate(-76.65728513845936,645,410)">Enterococcus faecalis V583&#160;&#160;&#160;7%</text><path class="line" d=" M 463.86692998123226,613.7298397900031 A 272.6078441191378,272.6078441191378 0 0 0 522.5740524904426,653.5711888784698"/><line x1="427.06185827803563" y1="655.1264293844647" x2="463.86692998123226" y2="613.7298397900031"/><text x="344.6960779404311" y="410" text-anchor="end" style="font-color:black;font-weight:normal" transform="rotate(-55.837383208155394,645,410)">Enterococcus faecalis str. Symbioflor 1&#160;&#160;&#160;4%</text><path class="line" d=" M 423.42821830752405,568.8111527346424 A 272.6078441191378,272.6078441191378 0 0 0 463.86692998123226,613.7298397900031"/><line x1="378.4062611809119" y1="601.0805547994348" x2="423.42821830752405" y2="568.8111527346424"/><text x="344.6960779404311" y="410" text-anchor="end" style="font-color:black;font-weight:normal" transform="rotate(-41.995592863493336,645,410)">Enterococcus faecalis OG1RF&#160;&#160;&#160;4%</text><path class="line" d=" M 394.4345052472743,517.3870081276403 A 272.6078441191378,272.6078441191378 0 0 0 423.42821830752405,568.8111527346424"/><line x1="343.5212126068664" y1="539.2073556418742" x2="394.4345052472743" y2="517.3870081276403"/><text x="344.6960779404311" y="410" text-anchor="end" style="font-color:black;font-weight:normal" transform="rotate(-29.414963537490646,645,410)">Enterococcus faecalis D32&#160;&#160;&#160;3%</text><path class="line" d=" M 909.6625842143867,429.63943435793453 A 265.3902614357523,265.3902614357523 0 0 0 909.6874951689468,429.3007970334307"/><line x1="972.1006522721796" y1="434.27268594767935" x2="909.6625842143867" y2="429.63943435793453"/><path class="line" d=" M 900.8463128900453,432.91324552490704 A 256.87030314910993,256.87030314910993 0 0 0 900.8519763511244,432.8499198497338"/><line x1="971.6924576299573" y1="439.25812925835504" x2="900.8463128900453" y2="432.91324552490704"/><path class="line" d=" M 890.4427513521637,434.4927256607357 A 246.6617882883608,246.6617882883608 0 0 0 890.5926671210094,432.9407859063546"/><line x1="971.3789782850142" y1="442.5693496040399" x2="890.4427513521637" y2="434.4927256607357"/><path class="line" d=" M 710.5108990461738,634.8611934681803 A 234.20980812462236,234.20980812462236 0 0 0 877.8884757538051,434.84335087788594"/><line x1="736.7449830952918" y1="724.907697709733" x2="710.5108990461738" y2="634.8611934681803"/><path class="line" d=" M 714.6077162486927,646.6364376850142 A 246.6617882883608,246.6617882883608 0 0 0 890.2702060650593,436.1641705088368"/><line x1="737.5612803182962" y1="724.6687295964405" x2="714.6077162486927" y2="646.6364376850142"/><path class="line" d=" M 718.0073091272247,656.2768471739021 A 256.87030314910993,256.87030314910993 0 0 0 900.421127944321,437.2470189115508"/><line x1="738.2236895435481" y1="724.4731208034927" x2="718.0073091272247" y2="656.2768471739021"/><path class="line" d=" M 750.426713429707,653.5512245100554 A 265.3902614357523,265.3902614357523 0 0 0 908.8930195134665,438.1507569525614"/><line x1="775.2985340074933" y1="711.0087906282773" x2="750.426713429707" y2="653.5512245100554"/><text x="941.6951307178762" y="410" text-anchor="start" style="font-color:black;font-weight:normal" transform="rotate(396.3412585429177,645,410)">17%&#160;&#160;&#160;Staphylococcus epidermidis</text><path class="line" d=" M 909.3423523991651,476.6194971713219 A 272.6078441191378,272.6078441191378 0 0 0 916.0698830411727,438.91634802890985"/><line x1="963.0550136665685" y1="490.1561493683357" x2="909.3423523991651" y2="476.6194971713219"/><text x="945.3039220595689" y="410" text-anchor="start" style="font-color:black;font-weight:normal" transform="rotate(370.1170509275168,645,410)">2%&#160;&#160;&#160;Staphylococcus epidermidis ATCC 12228</text><path class="line" d=" M 900.7538687266211,504.3662826789864 A 272.6078441191378,272.6078441191378 0 0 0 909.3423523991651,476.6194971713219"/><line x1="952.7214054987738" y1="523.5409027525287" x2="900.7538687266211" y2="504.3662826789864"/><text x="945.3039220595689" y="410" text-anchor="start" style="font-color:black;font-weight:normal" transform="rotate(377.19890476112556,645,410)">2%&#160;&#160;&#160;Staphylococcus epidermidis RP62A</text><path class="line" d=" M 736.6376459483365,659.0673256571088 A 265.3902614357523,265.3902614357523 0 0 0 750.426713429707,653.5512245100554"/><line x1="758.2564085375485" y1="717.826226831269" x2="736.6376459483365" y2="659.0673256571088"/><text x="941.6951307178762" y="410" text-anchor="start" style="font-color:black;font-weight:normal" transform="rotate(428.19689209606247,645,410)">0.9%&#160;&#160;&#160;Staphylococcus lugdunensis</text><path class="line" d=" M 752.8116762572275,660.3830647985021 A 272.6078441191378,272.6078441191378 0 0 0 753.2939099014235,660.1748703478158"/><line x1="774.7183135967148" y1="711.2592888486998" x2="752.8116762572275" y2="660.3830647985021"/><path class="line" d=" M 729.4181814923492,661.6059647513582 A 265.3902614357523,265.3902614357523 0 0 0 736.6376459483365,659.0673256571088"/><line x1="749.3337588187792" y1="720.9637708331065" x2="729.4181814923492" y2="661.6059647513582"/><path class="line" d=" M 717.9904287167595,656.2818506420222 A 256.87030314910993,256.87030314910993 0 0 0 718.0073091272247,656.2768471739021"/><line x1="738.2021347956279" y1="724.479509776929" x2="717.9904287167595" y2="656.2818506420222"/><path class="line" d=" M 714.2454000347664,646.7427134583814 A 246.6617882883608,246.6617882883608 0 0 0 714.6077162486927,646.6364376850142"/><line x1="737.0794881485706" y1="724.8100504467691" x2="714.2454000347664" y2="646.7427134583814"/><path class="line" d=" M 697.5864359097066,622.2711251669512 A 218.68782275501553,218.68782275501553 0 0 0 697.6979742608024,622.2434623966941"/><line x1="723.872022964471" y1="728.3758847549418" x2="697.5864359097066" y2="622.2711251669512"/><path class="line" d=" M 653.9958824316053,608.6059542875773 A 198.80958472669897,198.80958472669897 0 0 0 691.8998780814419,603.1984793292856"/><line x1="659.8415854377582" y1="737.664046458707" x2="653.9958824316053" y2="608.6059542875773"/><text x="645" y="618.7487037408573" text-anchor="middle" style="font-color:black;font-weight:normal" transform="rotate(351.8808327742597,645,410)">Actinobacteria</text><path class="line" d=" M 654.8978432252947,628.4637190034459 A 218.68782275501553,218.68782275501553 0 0 0 696.589224127225,622.5156835983641"/><line x1="659.845328546407" y1="737.6638768926921" x2="654.8978432252947" y2="628.4637190034459"/><text x="645" y="636.448815439819" text-anchor="middle" style="font-color:black;font-weight:normal" transform="rotate(351.8805055116478,645,410)">Actinobacteria</text><path class="line" d=" M 655.7170807421953,643.9644810695369 A 234.20980812462236,234.20980812462236 0 0 0 700.250914897402,637.5995839731972"/><line x1="660.0087757279987" y1="737.6564308099973" x2="655.7170807421953" y2="643.9644810695369"/><path class="line" d=" M 656.2887407563464,656.403332229392 A 246.6617882883608,246.6617882883608 0 0 0 703.1883806757984,649.7001254816954"/><line x1="660.0112710759762" y1="737.6563164974598" x2="656.2887407563464" y2="656.403332229392"/><path class="line" d=" M 656.9259579896537,666.593304990494 A 256.87030314910993,256.87030314910993 0 0 0 705.5966051234269,659.6205201649718"/><line x1="660.2283630012914" y1="737.6462985603544" x2="656.9259579896537" y2="666.593304990494"/><line x1="665.2780295144828" y1="737.3725729486357" x2="661.4072913239345" y2="674.882599761382"/><path class="line" d=" M 661.4072913239345,674.882599761382 A 265.3902614357523,265.3902614357523 0 0 0 707.6064931549914,667.9000152767948"/><text x="941.6951307178762" y="410" text-anchor="start" style="font-color:black;font-weight:normal" transform="rotate(441.40532019919385,645,410)">3%&#160;&#160;&#160;Cutibacterium avidum 44067</text><path class="line" d=" M 657.8514755404854,675.0789136113419 A 265.3902614357523,265.3902614357523 0 0 0 661.4072913239345,674.882599761382"/><line x1="660.8833408372811" y1="737.6152003247817" x2="657.8514755404854" y2="675.0789136113419"/><path class="line" d=" M 656.9171643092719,666.593713552654 A 256.87030314910993,256.87030314910993 0 0 0 656.9259579896537,666.593304990494"/><line x1="660.2171342717346" y1="737.6468202570505" x2="656.9171643092719" y2="666.593713552654"/><path class="line" d=" M 656.2878024835708,656.4033752137012 A 246.6617882883608,246.6617882883608 0 0 0 656.2887407563464,656.403332229392"/><line x1="660.0100234020963" y1="737.656373656104" x2="656.2878024835708" y2="656.4033752137012"/><path class="line" d=" M 655.659171451491,643.9671265065674 A 234.20980812462236,234.20980812462236 0 0 0 655.7170807421953,643.9644810695369"/><line x1="659.9276764456795" y1="737.6601356221613" x2="655.659171451491" y2="643.9671265065674"/><path class="line" d=" M 654.897011343039,628.463756691596 A 218.68782275501553,218.68782275501553 0 0 0 654.8978432252947,628.4637190034459"/><line x1="659.8440808437394" y1="737.6639334194481" x2="654.897011343039" y2="628.463756691596"/><path class="line" d=" M 653.972438112757,608.6070148144704 A 198.80958472669897,198.80958472669897 0 0 0 653.9958824316053,608.6059542875773"/><line x1="659.8029065350645" y1="737.6657961370306" x2="653.972438112757" y2="608.6070148144704"/><path class="line" d=" M 652.2138375009731,582.3104695349081 A 172.4614083290257,172.4614083290257 0 0 0 652.5963469627089,582.294030296041"/><line x1="658.7198154836183" y1="737.7129333167909" x2="652.2138375009731" y2="582.3104695349081"/><path class="line" d=" M 650.1299329428495,545.8231791544625 A 135.92002136412196,135.92002136412196 0 0 0 650.1325189292728,545.8230814591689"/><line x1="657.3794713123756" y1="737.7663019439706" x2="650.1299329428495" y2="545.8231791544625"/><path class="line" d=" M 645.5660968097026,491.99804591819276 A 82,82 0 0 0 648.094555804926,491.9415872702634"/><line x1="647.2643872388104" y1="737.992183672771" x2="645.5660968097026" y2="491.99804591819276"/></svg>